<svg width="24" height="24" viewBox="0 0 24 24" fill="none" xmlns="http://www.w3.org/2000/svg">
<circle cx="12" cy="12" r="12" fill="#8DC351"/>
<path fill-rule="evenodd" clip-rule="evenodd" d="M15.9104 7.95879C15.3097 6.46626 13.8832 6.39163 12.1564 6.69014L11.5558 4.60059L10.2795 4.97372L10.8801 6.98865C10.7584 7.01888 10.6245 7.06136 10.4831 7.10617C10.2756 7.17196 10.0523 7.24276 9.829 7.28715L9.22837 5.1976L7.95204 5.57074L8.55267 7.66029C8.40251 7.6976 8.27112 7.73491 8.13973 7.77223C8.00835 7.80954 7.87696 7.84685 7.72681 7.88417L6 8.48118L6.37539 9.82447C6.37539 9.82447 7.35141 9.52596 7.27633 9.52596C7.80188 9.37671 8.02712 9.60059 8.17728 9.89909L8.85298 12.2872H9.00314L8.85298 12.3618L9.829 15.72C9.829 15.8692 9.829 16.1678 9.45361 16.317L8.55267 16.6155L8.70283 18.1827L10.3546 17.7349L11.2555 17.511L11.8561 19.6006L13.1325 19.2275L12.5318 17.1379C12.9072 17.0633 13.2075 16.9886 13.5829 16.8394L14.1836 18.9289L15.4599 18.5558L14.8593 16.4663C16.9615 15.72 18.3129 14.7498 17.9375 12.6603C17.6372 11.0185 16.6611 10.4961 15.3097 10.5707C16.0605 9.82447 16.3608 9.0782 15.9104 7.95879ZM15.4595 13.0337C15.8566 14.4152 13.745 15.0428 12.6219 15.3766L12.6218 15.3767C12.4709 15.4215 12.3379 15.4611 12.2311 15.4964L11.4053 12.6606C11.5237 12.6312 11.6719 12.5876 11.8413 12.5378L11.8413 12.5378C12.9606 12.2085 15.003 11.6077 15.4595 13.0337ZM11.2394 11.3319C12.1371 11.0783 14.0721 10.5317 13.6578 9.22779C13.3182 7.87759 11.4426 8.48169 10.5321 8.77493C10.4362 8.80584 10.3509 8.8333 10.2793 8.85465L11.0301 11.392C11.0904 11.374 11.161 11.354 11.2394 11.3319Z" fill="white"/>
</svg>
