<svg width="24" height="24" viewBox="0 0 24 24" fill="none" xmlns="http://www.w3.org/2000/svg">
<circle cx="12" cy="12" r="12" fill="#988430"/>
<circle cx="12.0004" cy="12.0004" r="11.6156" fill="#7A6A2A"/>
<circle cx="11.9998" cy="11.9998" r="11.3709" fill="#BA9F33"/>
<path fill-rule="evenodd" clip-rule="evenodd" d="M5.2469 10.7185C5.17893 10.6564 5.10712 10.5942 5.04108 10.5321C4.97503 10.47 4.90719 10.4078 4.83922 10.3457L4.63724 10.1537C4.60421 10.1207 4.56927 10.0917 4.53624 10.0585C4.50322 10.0294 4.46444 9.99642 4.43141 9.96724C4.16338 9.7129 3.89381 9.45857 3.62949 9.2041C3.90328 9.4546 4.17132 9.7033 4.44511 9.95751L4.54021 10.0527C4.57324 10.0856 4.60818 10.1148 4.6412 10.1478L4.84306 10.3342C4.91103 10.3963 4.97708 10.4585 5.04504 10.5262C5.11301 10.5939 5.17906 10.6563 5.24703 10.7182L5.2469 10.7185ZM1.68965 10.6801C1.68965 10.6801 2.66437 10.7809 3.14014 10.8489C3.58085 10.9111 4.95954 11.1227 4.95954 11.1227L1.68965 10.6801ZM1.68958 10.6801C1.96337 10.7034 2.23717 10.7324 2.51096 10.7616C2.65073 10.7752 2.78475 10.7907 2.91877 10.8042L3.12446 10.8277C3.19243 10.8373 3.25848 10.847 3.32645 10.8567L4.14206 10.9868L4.54974 11.0547C4.68376 11.078 4.81777 11.1034 4.95755 11.1267C4.82353 11.1131 4.68376 11.0936 4.54974 11.0742L4.14206 11.0159L3.32645 10.8956C3.25848 10.8859 3.19243 10.8722 3.12446 10.8626L2.91864 10.8389C2.78462 10.8254 2.64485 10.8059 2.51083 10.7903C2.23704 10.7574 1.96325 10.7223 1.68945 10.6797L1.68958 10.6801ZM4.86244 11.3766C4.86244 11.3766 3.82167 11.6408 3.47019 11.7417C3.12459 11.8369 2.07793 12.1553 2.07793 12.1553L4.86231 11.3767L4.86244 11.3766Z" fill="#CFB66C"/>
<path fill-rule="evenodd" clip-rule="evenodd" d="M4.86154 11.376C4.6305 11.4439 4.40074 11.51 4.16637 11.5722L3.4712 11.7586C3.24016 11.8265 3.0104 11.8926 2.78 11.9606L2.4344 12.0557C2.31984 12.0887 2.20336 12.1177 2.08496 12.1509C2.19939 12.1125 2.316 12.0732 2.43056 12.0402L2.77616 11.9296C3.0072 11.8576 3.23696 11.7897 3.46736 11.7179C3.70224 11.6596 3.93341 11.5974 4.16829 11.5411C4.39152 11.4848 4.62653 11.4286 4.86154 11.3761V11.376ZM2.22285 12.7954C2.33728 12.7527 3.65773 12.1372 3.96455 11.9935C4.11815 11.9215 4.56461 11.7631 4.56461 11.7631L2.22285 12.7954Z" fill="#CFB66C"/>
<path fill-rule="evenodd" clip-rule="evenodd" d="M2.22278 12.7967C2.32365 12.7583 2.41888 12.7113 2.5159 12.6667L2.80326 12.5326L3.38003 12.255C3.57203 12.1637 3.75866 12.063 3.95667 11.9772C4.05766 11.9346 4.15866 11.8997 4.25952 11.8667L4.41312 11.8181C4.46547 11.8046 4.51411 11.789 4.56672 11.7754C4.37472 11.8667 4.17261 11.9444 3.98035 12.0336C3.78835 12.1288 3.592 12.2065 3.39386 12.2919L2.80749 12.55C2.61062 12.6298 2.41862 12.7152 2.22266 12.7967H2.22278ZM2.35078 13.3342C2.35078 13.3342 3.54681 12.6333 3.95846 12.408C4.17401 12.2877 4.8711 11.942 4.8711 11.942L2.35078 13.3342Z" fill="#CFB66C"/>
<path fill-rule="evenodd" clip-rule="evenodd" d="M2.35156 13.3346C2.55342 13.2103 2.75924 13.0841 2.96507 12.9559L3.27227 12.7695C3.3771 12.7074 3.47809 12.6491 3.58497 12.5871C3.6898 12.5248 3.79079 12.4628 3.89755 12.4045C3.94837 12.3731 4.00161 12.3459 4.05678 12.323L4.21985 12.2415C4.4354 12.1366 4.65095 12.0297 4.87815 11.9385C4.67233 12.0687 4.46062 12.1794 4.24903 12.2938C4.1442 12.352 4.03732 12.4045 3.93249 12.4628C3.82766 12.521 3.72667 12.5832 3.61979 12.6395C3.51495 12.7016 3.41396 12.7599 3.30721 12.8162L2.99067 12.989L2.35182 13.3346H2.35156ZM4.86208 12.0957C4.86208 12.0957 4.1184 12.6666 3.87763 12.8491C3.63686 13.0316 2.92812 13.5443 2.92812 13.5443L4.86208 12.0957Z" fill="#CFB66C"/>
<path fill-rule="evenodd" clip-rule="evenodd" d="M9.13054 16.6988L8.75 15.9784L8.97131 15.0774L10.5499 14.4677L9.87806 13.0892L10.2101 11.6969L10.8335 10.4502L12.7597 10.1474L14.1752 8.79785L17.2315 9.02889L17.8315 12.2969L16.6761 16.4114L16.018 18.5416L13.3499 18.6426L12.1112 17.7843L10.6607 17.1784L9.13054 16.6988Z" fill="#E2CC85"/>
<path fill-rule="evenodd" clip-rule="evenodd" d="M13.81 16.676C13.81 16.676 13.441 16.8449 12.8116 16.806C12.6295 16.5614 11.3538 16.4469 11.3538 16.4469C11.3538 16.4469 11.1946 16.3983 10.913 16.5148C10.6296 16.63 10.3616 16.6158 10.1111 16.6779C9.86056 16.74 9.61186 16.4138 9.41986 16.3459C9.22786 16.2741 8.97327 16.1013 8.97327 16.1013L8.43567 16.0488L7.35611 15.5925L5.64104 13.8838L5.17499 14.6134L5.03125 15.5163L5.54978 16.5863L6.94587 17.8581L9.66818 18.5493L11.2817 18.0739L13.3031 17.2195L13.81 16.6759V16.676Z" fill="#F1D789"/>
<path fill-rule="evenodd" clip-rule="evenodd" d="M4.13816 10.6368L4.48376 9.59027L4.89554 8.91443L6.22162 8.80371L5.82354 9.96493L4.71493 11.9378L5.17509 13.6989L4.3596 14.1066L4.10898 13.7222L3.90712 12.8407L3.89355 11.8504L4.13816 10.6368Z" fill="#F4ECB4"/>
<path fill-rule="evenodd" clip-rule="evenodd" d="M5.62513 16.604L5.37079 16.2487C5.37079 16.2487 5.30282 16.0797 5.34174 15.9321C5.38014 15.7826 5.37463 15.7729 5.3553 15.7166C5.33598 15.6602 5.17278 15.4661 5.1825 15.299C5.1921 15.1301 5.16894 15.0738 5.2931 14.9399C5.42314 14.8098 5.38436 14.5845 5.38436 14.5845L5.55332 14.6894L5.59172 14.6311C5.59172 14.6311 5.6538 14.6796 5.6538 14.7554C5.66737 14.6506 5.61105 14.1651 5.73918 14.0545C5.8673 13.9439 6.0945 14.5729 6.0945 14.5729L5.95473 13.6602L5.59543 12.7244L4.95658 11.87L4.91818 10.9282V10.8467C4.91818 10.8467 4.62494 11.2972 4.5434 11.6531C4.48516 11.8977 4.62494 12.1948 4.59588 12.5463C4.57246 12.8958 4.5434 12.8686 4.62878 13.0071C4.71415 13.1456 4.92202 13.4304 4.84049 13.6362C4.76868 13.813 4.52394 13.6887 4.52394 13.6887C4.52394 13.6887 4.47543 13.8323 4.40938 13.8848C4.38609 13.7994 4.36087 13.745 4.31428 13.6928C4.31031 13.7258 4.30071 13.7705 4.30071 13.7705C4.30071 13.7705 4.25796 13.6364 4.21521 13.4675C4.1571 13.2423 4.09489 12.9452 4.03857 12.786C4.01527 12.8773 3.95703 13.1549 3.95703 13.1549L3.99006 13.5822L4.14929 14.1685L4.30289 14.5525L4.45239 15.0224L4.58231 15.3381L4.68714 15.5788L4.77841 16.1207L5.21911 16.5866L5.45412 16.6915L5.62487 16.6041L5.62513 16.604Z" fill="#F3E19D"/>
<path fill-rule="evenodd" clip-rule="evenodd" d="M4.36925 9.78278C4.36925 9.78278 4.05271 10.3204 3.96157 10.8623C3.87044 11.4043 3.78877 11.977 3.84637 12.7147C3.90461 13.4586 4.01533 13.9147 4.10468 14.241C4.25828 14.7828 4.6561 15.5363 4.6561 15.5363L4.66967 15.5071C4.6028 15.3803 4.54943 15.2469 4.51044 15.109C4.45796 14.9032 4.4385 14.6586 4.38999 14.5478C4.34724 14.4372 4.27543 14.342 4.24048 14.2061C4.20746 14.076 4.20208 13.8702 4.10071 13.7169C4.05796 13.6547 4.00548 13.4916 3.98999 13.3285C3.97053 13.0838 3.99972 12.81 3.97642 12.5848C3.93367 12.21 3.90461 11.9557 3.9434 11.7595C3.98218 11.5633 4.18429 11.0062 4.30858 10.5635C4.39012 10.2799 4.34148 10.0411 4.49098 9.79443C4.64048 9.54982 4.73188 9.33427 4.76477 9.18476C4.80317 9.04883 4.36874 9.78278 4.36874 9.78278H4.36925Z" fill="#F2E8B0"/>
<path fill-rule="evenodd" clip-rule="evenodd" d="M5.86948 9.56738C5.86948 9.56738 5.7064 9.61602 5.62871 9.7014C5.55101 9.78293 5.51799 9.8509 5.41316 9.98876C5.30832 10.1266 5.30244 10.2393 5.21693 10.4121C5.13156 10.581 4.94314 10.8354 4.91984 10.9266C4.89655 11.0179 4.85776 11.445 4.80925 11.647C4.7665 11.849 4.85776 12.0976 4.85776 12.0976L4.96836 12.0741C4.96836 12.0741 4.96836 12.2179 5.07908 12.315C5.18967 12.4101 5.20912 11.9926 5.20912 11.9926L5.62269 10.5965L6.24592 10.1732L6.31389 9.83145L5.86922 9.56738H5.86948Z" fill="#F5EEC0"/>
<path fill-rule="evenodd" clip-rule="evenodd" d="M6.17265 10.2005C6.17265 10.2005 5.87941 10.2198 5.73579 10.3248C5.67755 10.3674 5.65425 10.4024 5.59217 10.4548C5.47761 10.5499 5.36101 10.6374 5.30481 10.762C5.24261 10.8862 5.17464 11.0746 5.12805 11.4299C5.10859 11.5794 5.10859 11.7173 5.09502 11.8377C5.07557 12.0008 5.04651 12.1309 5.062 12.2217C5.08145 12.4081 5.27371 12.5053 5.2924 12.7169L5.69048 12.515L6.06526 11.0372L6.86142 10.538L6.41086 10.0332L6.17214 10.1996L6.17265 10.2005Z" fill="#E6DB9D"/>
<path fill-rule="evenodd" clip-rule="evenodd" d="M4.07239 20.1506C4.07406 20.1361 4.07572 20.1215 4.07739 20.1065C4.1355 19.6073 4.14535 19.2289 4.18798 18.992C4.25006 18.6561 4.29281 18.5312 4.28308 18.4055C4.26951 18.2036 4.25403 18.0561 4.27348 17.9007C4.30254 17.6948 4.50452 17.4502 4.49876 17.2813C4.49479 17.1473 4.42683 17.06 4.36859 16.9784C4.31035 16.8969 4.26375 16.8289 4.26375 16.8289C4.26375 16.8289 4.66183 16.5551 4.65799 15.4521C4.66612 15.4544 4.67395 15.4577 4.68129 15.4619L4.87739 16.0191L5.0114 16.1821L5.52596 17.1414L6.18811 17.7842L7.16667 18.4424L7.7803 19.1101L7.84238 20.8907L7.04046 21.9315L6.90913 22.1693C5.86576 21.6455 4.909 20.9647 4.07227 20.1505L4.07239 20.1506Z" fill="#E5CB7A"/>
<path fill-rule="evenodd" clip-rule="evenodd" d="M6.52246 21.8545C6.52246 21.8545 6.53603 21.6332 6.71856 21.4895C6.74774 21.538 6.76707 21.5847 6.76131 21.6195C6.79433 21.5614 7.02537 21.1886 7.54774 21.0914C8.07011 20.9963 8.19632 20.6158 8.19632 20.6158L9.30492 19.608L10.5729 18.441L12.1147 17.8992L12.8352 17.7224C12.8352 17.7224 12.8487 17.7749 12.8216 17.8914C12.9555 17.8818 13.2526 17.8138 13.5613 17.705C13.6856 17.6565 13.8022 17.6371 13.8643 17.7012C13.9555 17.7866 13.9691 17.9886 13.9749 18.1089C14.1244 18.0758 14.2972 17.9322 14.4357 17.9458C14.6571 17.9691 14.8532 18.2293 15.0785 18.2293C15.3756 18.2293 15.5095 18.0468 15.7173 17.903C15.8416 17.8177 16.0202 17.711 16.1212 17.639C16.3619 17.4622 18.9095 16.6836 18.9095 16.6836L19.8027 16.7418L19.9465 17.7011L19.8697 20.2086C19.8602 20.2177 19.8507 20.2271 19.8411 20.2362L15.7799 22.3573L10.1505 23.2203C8.88948 23.0143 7.67258 22.5957 6.55164 21.9824L6.52284 21.8544L6.52246 21.8545Z" fill="#D8C173"/>
<path fill-rule="evenodd" clip-rule="evenodd" d="M4.41406 20.4696C4.49406 20.3023 4.566 20.1624 4.57867 20.1123C4.58865 20.2132 4.60696 20.4345 4.64382 20.6697C4.56643 20.604 4.48984 20.5372 4.41406 20.4694V20.4696Z" fill="#F1D789"/>
<path fill-rule="evenodd" clip-rule="evenodd" d="M8.52629 22.8293L9.25435 22.6268L9.31643 22.6463C9.31643 22.6463 9.34945 22.6657 9.34945 22.7316C9.44072 22.6793 9.51841 22.6889 9.57473 22.6541C9.60379 22.7162 9.63285 22.922 9.7611 22.9472C9.89499 22.9764 10.0387 22.889 10.1844 22.7784C10.328 22.6638 10.4916 22.5201 10.6154 22.4618C10.6608 22.5453 10.701 22.6315 10.7358 22.72C10.8989 22.5899 11.1824 22.0618 11.5863 22.0714C11.703 21.7956 11.898 21.56 12.1472 21.3938C12.5219 21.1394 12.7568 21.12 13.0501 21.1433C13.1665 20.992 13.3101 20.8636 13.4734 20.7647C13.5219 20.7841 13.6559 20.8657 13.8229 20.788C13.9919 20.7104 14.1821 20.4093 14.4326 20.3706C14.5676 20.352 14.7048 20.3808 14.8209 20.4521C14.8209 20.4521 15.5505 19.7277 16.054 19.487C16.0345 19.4287 15.9957 19.2093 16.5859 18.7238C16.619 18.753 16.5957 18.8346 16.619 18.839C16.6286 18.839 16.7726 18.777 16.9548 18.637C17.1801 18.4682 17.4499 18.2914 17.613 18.2429C17.9202 18.1517 18.2461 18.338 18.2461 18.338C18.2738 18.3186 18.3047 18.3041 18.3374 18.2953C18.4149 18.2817 18.4712 18.272 18.514 18.2569C18.5102 18.3579 18.5665 18.5307 18.514 18.6802C18.5748 18.7144 18.6392 18.7417 18.706 18.7617C18.6731 18.8335 18.6012 19.0161 18.4808 19.1035C18.5817 19.152 18.5953 19.2083 18.739 19.2571C18.6808 19.3386 18.5854 19.4785 18.5429 19.5643C18.5002 19.6555 18.3467 20.0342 18.2787 20.1778C18.2069 20.3215 18.1099 20.5856 18.0632 20.6386C18.0165 20.6916 17.8476 20.9162 17.7176 21.0268C17.8328 20.9841 18.3041 20.8404 18.504 20.786C18.4445 20.8733 18.1428 21.321 17.8528 21.7514C15.0434 23.4353 11.6452 23.8287 8.52539 22.8312L8.52629 22.8293Z" fill="#E0CD81"/>
<path fill-rule="evenodd" clip-rule="evenodd" d="M6.2211 10.1472C6.2211 10.1472 6.05227 10.1472 6.01925 10.1705C5.98622 10.1938 6.18821 10.2424 6.25029 10.2657C6.31237 10.289 6.44638 10.3957 6.48133 10.4812C6.51435 10.5628 7.6949 11.0384 7.6949 11.0384L8.52984 10.9957L8.81771 10.598L8.27013 10.1184L8.65413 8.98633L8.14546 9.06786L6.92216 9.79746L6.30853 10.0325L6.2211 10.1472Z" fill="#DFC57C"/>
<path fill-rule="evenodd" clip-rule="evenodd" d="M8.05432 10.5223C8.07888 10.5621 8.12279 10.5857 8.16952 10.5844C8.34232 10.5844 8.50142 10.6271 8.56747 10.7144C8.67819 10.8543 8.98501 11.3009 8.98501 11.3009L9.71896 11.565L9.76632 10.7007L8.9644 10.1436L8.05176 10.4794V10.5222H8.05381L8.05432 10.5223Z" fill="#E5CC7C"/>
<path fill-rule="evenodd" clip-rule="evenodd" d="M7.91061 10.8428C7.91061 10.8428 8.04449 10.8525 8.21345 10.7903C8.38241 10.7281 8.66005 10.5942 8.78049 10.6467C8.94933 10.7185 8.91438 10.9438 9.09704 11.1459C9.20763 11.2702 9.40961 11.2663 9.52417 11.4004C9.63873 11.5344 10.0328 11.4722 10.0328 11.4722L10.1823 12.2786L9.58241 13.0476L9.38619 14.0029H8.57493L7.83381 13.7088L7.46875 12.8256L7.65128 11.9325L7.91061 10.8428Z" fill="#D2C281"/>
<path fill-rule="evenodd" clip-rule="evenodd" d="M9.47926 10.8812C9.49938 10.8874 9.52028 10.8907 9.54134 10.8909C9.51804 10.9104 9.4694 10.953 9.48886 11.0637C9.50831 11.1744 9.57039 11.3142 9.51804 11.3996C9.55983 11.4453 9.591 11.4997 9.6093 11.5588C9.64233 11.654 9.65206 11.7413 9.86748 11.755C9.83639 11.7742 9.80772 11.797 9.7821 11.823C9.7821 11.823 9.93161 11.9531 10.0074 12.0734C10.085 12.07 10.2908 12.006 10.2908 12.006L10.3335 12.0352L10.4248 11.9968C10.4248 11.9968 10.3394 11.9638 10.4015 11.7561C10.4597 11.5735 10.5122 11.5833 10.5167 11.5697C10.5212 11.5561 10.5594 11.3639 10.5594 11.2862C10.5885 11.1853 10.6118 10.8785 10.6118 10.8785L10.5497 10.2009L10.2003 9.98915L9.91612 9.71484L9.64809 10.2197L9.47158 10.3957L9.45801 10.8325L9.47926 10.8812Z" fill="#E2C270"/>
<path fill-rule="evenodd" clip-rule="evenodd" d="M10.3203 10.3149C10.3203 10.3149 10.3824 10.4915 10.4058 10.6275C10.4141 10.6011 10.4186 10.5736 10.4194 10.5459C10.4194 10.5459 10.4679 10.814 10.4775 10.9247C10.497 10.9207 10.5159 10.915 10.5202 10.9343C10.5246 10.9536 10.5689 11.1693 10.5586 11.2896C10.6395 11.1562 10.7514 11.0443 10.8848 10.9635C10.9625 10.9148 11.0538 10.8625 11.149 10.8585C11.2985 10.8547 11.4072 10.9538 11.5858 10.9538C12.0168 10.9538 12.4072 10.6372 12.6946 10.5402C12.9062 10.4682 13.0887 10.4159 13.2168 10.2993C13.279 10.2469 13.3898 10.1305 13.4906 9.95753C13.6246 9.72713 13.7644 9.52655 13.9043 9.50134C13.841 9.51297 13.7766 9.51752 13.7123 9.5149C13.7123 9.5149 13.7551 9.47215 13.8275 9.41391C13.9 9.35567 13.9867 9.28386 14.1109 9.28386C14.3323 9.28386 14.4429 9.31676 14.5672 9.31676C14.6915 9.31292 14.7633 9.28386 14.7633 9.28386C14.7633 9.28386 14.8935 9.37513 15.1866 9.37513C15.4799 9.37897 15.676 9.40419 15.8294 9.41788C15.9829 9.43158 16.4973 9.37513 16.6449 9.37948C16.7411 9.38319 16.8356 9.40631 16.9227 9.44745L16.4469 8.06505L14.7378 6.57129L13.7204 7.29167L12.1552 8.85673L10.6407 9.41788L10.3242 9.77321V10.3149H10.3203Z" fill="#CCB360"/>
<path fill-rule="evenodd" clip-rule="evenodd" d="M13.719 9.52194C13.719 9.52194 13.7617 9.47932 13.8334 9.42108C13.9051 9.36284 13.9928 9.2909 14.1169 9.2909C14.3383 9.2909 14.449 9.32393 14.5733 9.32393C14.6976 9.32009 14.7694 9.2909 14.7694 9.2909C14.7694 9.2909 14.8997 9.38204 15.1927 9.38204C15.4859 9.38588 15.682 9.41109 15.8355 9.42466C15.9889 9.43823 16.5034 9.38204 16.651 9.38626C16.7472 9.38988 16.8416 9.41301 16.9286 9.45423L16.713 8.83087L16.4627 8.35522L15.7481 7.57263C15.7481 7.57263 14.8905 7.0678 14.8839 7.06396C14.8801 7.06012 14.5868 6.98242 14.5868 6.98242L13.8101 7.45231L13.1054 9.27567L13.0918 9.65967L13.548 9.87522C13.6625 9.68322 13.7889 9.52962 13.9073 9.51017C13.8004 9.52181 13.7189 9.52181 13.7189 9.52181L13.719 9.52194Z" fill="#D5B457"/>
<path fill-rule="evenodd" clip-rule="evenodd" d="M13.7085 9.65276C13.6405 9.6566 13.5843 9.64304 13.5687 9.59452C13.5105 9.43145 13.4639 9.40816 13.4151 9.40816C13.3663 9.40816 13.3005 9.51299 13.2615 9.52259C13.2225 9.53219 13.1761 9.40227 13.1761 9.40227L13.1334 9.38281C13.1334 9.38281 12.8829 9.54588 12.7062 9.73814C12.5296 9.9304 12.2402 10.2567 12.1101 10.3148C11.9801 10.3729 11.5334 10.3925 11.3805 10.4255C11.2277 10.4585 11.0582 10.5692 11.0349 10.5945C11.0116 10.6197 11.103 10.6468 11.1166 10.672C11.1302 10.6953 10.967 10.6856 10.9534 10.7104C10.9438 10.7299 10.9918 10.8405 11.0156 10.8968C11.0573 10.8761 11.103 10.8648 11.1495 10.8638C11.299 10.8599 11.4078 10.959 11.5864 10.959C12.0175 10.959 12.4077 10.6425 12.6951 10.5453C12.9068 10.4735 13.0893 10.421 13.2175 10.3045C13.2795 10.2522 13.3903 10.1356 13.4913 9.96278C13.565 9.84438 13.6369 9.73366 13.7089 9.65212L13.7085 9.65276Z" fill="#D2B257"/>
<path fill-rule="evenodd" clip-rule="evenodd" d="M7.52653 19.2618C7.52653 19.2618 7.48813 19.118 7.13229 18.7472C7.03129 18.6424 6.96921 18.5552 6.90125 18.4929C6.73229 18.3335 6.63321 18.2909 6.51289 18.1996C6.24883 18.0035 5.96147 18.0035 5.74016 17.7628C5.51885 17.522 5.26093 17.062 5.08173 16.5918C4.90509 16.1219 4.85645 15.9724 4.85645 15.9588C4.85645 15.9453 4.90509 15.854 4.96717 15.8676C5.02925 15.8812 5.02925 16.0015 5.04486 16.0307C5.07579 16.0783 5.11087 16.1231 5.14969 16.1645C5.24096 16.2695 5.37101 16.3949 5.43705 16.5821C5.42349 16.4228 5.36909 16.2462 5.36909 16.2462C5.36909 16.2462 5.71085 16.4618 6.00205 16.6869C6.29529 16.9122 6.41561 16.9899 6.50125 17.1335C6.58688 17.2771 6.78861 17.6559 6.88525 17.7666C6.98189 17.8773 8.30605 18.2947 8.30605 18.2947L8.93593 18.7644L9.24864 19.4498L9.0039 19.8338L8.53401 19.9348L7.77088 19.593L7.52653 19.2616V19.2618Z" fill="#D2B159"/>
<path fill-rule="evenodd" clip-rule="evenodd" d="M5.83105 16.9007C5.83105 16.9007 5.99029 17.155 6.37864 17.3958C6.72821 17.6075 7.28155 17.7997 7.77486 17.9143C8.05825 17.9823 8.34177 18.0346 8.59611 18.0386C9.28155 18.0482 9.75336 17.8522 10.3379 17.7881C10.6545 17.7551 11.0428 17.7298 11.4467 17.6345C11.9651 17.5102 12.2719 17.3703 12.6894 17.1737C12.9923 17.0339 13.27 16.9291 13.4952 16.7951C13.8117 16.6087 14.0428 16.4009 14.3108 16.3389C14.2778 16.4301 14.2428 16.5932 13.9788 16.7622C14.1185 16.7582 14.3108 16.7486 14.3108 16.7486C14.3108 16.7486 14.1244 16.8592 13.7962 17.1078C13.5943 17.2614 13.3264 17.5213 13.0526 17.6941C12.8758 17.8049 12.6835 17.8861 12.5573 17.9524C12.2501 18.1214 12.1262 18.2068 11.9244 18.4132C11.9962 18.4094 12.0021 18.4132 12.0021 18.4132C12.0021 18.4132 11.7476 18.4463 11.5652 18.5433C11.5268 18.5433 11.4602 18.5297 11.3438 18.5627C11.2525 18.5918 11.132 18.658 11.0079 18.6928C10.8311 18.7453 10.773 18.722 10.773 18.722L10.8021 18.7802C10.8021 18.7802 10.5717 18.7762 10.4949 18.7841C10.5084 18.7879 10.5046 18.7938 10.5046 18.7938C10.4911 18.796 10.4781 18.8006 10.4662 18.8073C10.4292 18.8313 10.3886 18.849 10.3459 18.8597C10.3226 18.8635 10.3031 18.8635 10.2739 18.8694C10.2837 18.8927 10.3594 19.023 10.3944 19.0998C10.3653 19.1193 9.92833 19.4494 9.92833 19.4494C9.94189 19.4707 9.95297 19.4935 9.96136 19.5174C9.97493 19.56 9.98081 19.6222 9.99438 19.6513C10.0273 19.7095 10.0467 19.7192 10.0467 19.7192C10.0467 19.7192 9.99438 19.7289 9.90299 19.7522C9.82542 19.7717 9.73019 19.8046 9.59579 19.8241C9.55455 19.8294 9.51307 19.8327 9.4715 19.8338C9.49096 19.8765 9.57633 20.0396 9.41902 20.2279C9.26171 20.4162 9.2132 20.4436 9.16469 20.5639C9.14027 20.5454 9.11427 20.5291 9.08699 20.5153C9.03464 20.492 8.9627 20.4571 8.93749 20.4104C8.92279 20.4727 8.90332 20.5337 8.87925 20.5929C8.83073 20.723 8.75893 20.8513 8.74536 20.9483C8.69288 20.89 8.59585 20.7755 8.46184 20.7988C8.32782 20.8221 8.22107 21.0046 8.19777 21.0571C8.19777 21.0241 8.17448 20.9988 8.16872 21.0376C8.16475 21.0804 8.09102 21.5268 7.67937 21.8881C7.67553 21.7968 7.67553 21.5948 7.66581 21.5289C7.62741 21.5673 7.58043 21.624 7.30075 21.7444C7.02696 21.8648 7.07035 21.9852 7.07035 21.9852C7.07035 21.9852 7.04705 21.7932 7.19464 21.591C7.34414 21.3891 7.43541 21.2939 7.43541 21.2784C7.43299 21.2626 7.42626 21.2478 7.41595 21.2356C7.39649 21.2162 7.35771 21.1929 7.35771 21.1774C7.38101 21.1678 7.61205 21.0571 7.59848 20.8278C7.58491 20.6221 7.49761 20.5153 7.43541 20.4396C7.42581 20.4299 7.5268 20.3581 7.5131 20.3348C7.50337 20.3212 7.37921 20.2298 7.3636 20.1812C7.36727 20.1521 7.37379 20.1235 7.38305 20.0958C7.39662 20.053 7.40635 20.0239 7.40251 19.9948C7.39278 19.9463 7.3403 19.8123 7.32481 19.7987C7.33838 19.8025 7.43541 19.7987 7.43541 19.7987C7.43541 19.7987 7.35784 19.6744 7.34414 19.6162C7.33045 19.5579 7.30139 19.4045 7.2859 19.3754C7.31893 19.3793 7.40046 19.385 7.40046 19.3754C7.40443 19.3462 7.32865 19.2977 7.36206 19.2602C7.38536 19.2641 7.43003 19.2835 7.47265 19.3379C7.44936 19.2757 7.41057 19.1554 7.32891 19.1069C7.36731 19.0933 7.49787 19.0582 7.61243 19.1262C7.72699 19.1942 7.76603 19.2893 7.76603 19.2893C7.76603 19.2893 7.834 19.3417 7.93896 19.4194C8.05928 19.5145 8.21262 19.6498 8.45736 19.7456C8.50984 19.7748 8.64373 19.7748 8.74088 19.7553C8.78318 19.7452 8.82374 19.7289 8.8612 19.7068C8.87473 19.6988 8.88906 19.6923 8.90395 19.6873C8.88308 19.6454 8.85907 19.6052 8.83214 19.5669C8.86517 19.5669 8.90395 19.5709 8.90395 19.5709C8.90395 19.5709 8.92725 19.5184 8.82241 19.4173C8.84571 19.394 8.87489 19.3789 8.87489 19.3396C8.84187 19.3357 8.78363 19.2872 8.77006 19.2678C8.78939 19.2542 8.81857 19.2095 8.8516 19.196C8.82241 19.1727 8.75061 19.0755 8.71758 19.0659C8.74913 19.0542 8.77966 19.0399 8.80885 19.0232C8.80885 19.0232 8.64577 18.9804 8.59329 18.9455C8.54081 18.9071 8.46325 18.8406 8.41665 18.8212C8.36801 18.8017 8.28264 18.7921 8.24769 18.7532C8.28059 18.7629 8.33307 18.7532 8.37198 18.7532C8.40104 18.7532 8.41473 18.757 8.42433 18.757C8.42049 18.7435 8.42049 18.7143 8.49627 18.7047C8.53272 18.6992 8.56809 18.6881 8.6011 18.6717C8.6011 18.6717 8.52917 18.6678 8.4475 18.5901C8.36584 18.5124 8.298 18.4504 8.25141 18.4406C8.20289 18.4309 8.11163 18.4737 8.05531 18.4697C7.97761 18.4601 7.94459 18.4212 7.94459 18.4212C7.94459 18.4212 7.68641 18.4445 7.11361 18.095C6.61838 17.7921 6.40283 17.5241 6.40283 17.5241C6.35648 17.5073 6.31169 17.4865 6.26894 17.4619C6.08257 17.3649 5.82427 17.1629 5.83208 16.8987L5.83105 16.9007Z" fill="#C2A44D"/>
<path fill-rule="evenodd" clip-rule="evenodd" d="M12.9743 5.24672C13.0192 5.26131 13.0591 5.28823 13.0895 5.32441C13.1807 5.42925 13.239 5.62726 13.0312 5.83897C13.1127 5.86803 13.1464 5.87737 13.2176 5.86803C13.1458 5.95353 12.9827 6.13606 12.973 6.29529C12.9632 6.42534 13.0448 6.46425 13.0448 6.46425C13.0448 6.46425 12.9205 6.60787 12.9147 6.84825C12.9734 6.78206 13.0377 6.721 13.1067 6.66573C13.2505 6.55117 13.4485 6.42112 13.5825 6.33958C13.5807 6.37376 13.5853 6.40797 13.5961 6.44045C13.5961 6.44045 13.8464 6.23462 14.0569 6.32601C14.152 6.36877 14.1092 6.50265 14.1092 6.50265C14.1092 6.50265 14.2394 6.45414 14.3307 6.54541C14.4219 6.63667 14.551 6.87206 14.6171 6.96333C14.6462 7.00608 14.722 7.08761 14.7995 7.21382C14.9055 7.39052 14.994 7.57713 15.0637 7.77101C15.0676 7.67001 15.0928 7.51283 15.3803 7.61177C15.6676 7.71277 15.9938 7.92448 16.2676 8.34137C16.5414 8.75827 16.6092 9.22893 16.7471 9.40813C16.8868 9.58093 17.0306 9.86829 17.0403 9.98873C17.05 10.1092 16.9975 10.4974 17.2849 11.5479C17.3664 11.2218 17.4907 10.4974 17.4907 10.4974L17.5587 9.85856L17.6364 7.88185L15.5723 6.16704L13.9587 4.99609L12.9082 5.09709L12.9741 5.24659L12.9743 5.24672Z" fill="#CAA13E"/>
<path fill-rule="evenodd" clip-rule="evenodd" d="M16.81 8.18817C16.81 8.18817 16.7809 7.99617 16.2955 7.66977C15.81 7.34747 15.4313 7.34747 15.0819 7.07368C14.8139 6.85813 14.5343 6.36289 14.3523 6.19982C14.1755 6.03867 14.1465 5.57262 14.1465 5.57262L14.7426 5.07342L15.6291 3.79201L16.3785 2.9668L16.7377 3.466L17.2369 4.05236L17.5145 5.22907L17.6155 6.95144L16.8091 8.1883L16.81 8.18817Z" fill="#B59544"/>
<path fill-rule="evenodd" clip-rule="evenodd" d="M17.4095 10.2525C17.4242 9.99126 17.392 9.72955 17.3143 9.47973C17.1863 9.08165 16.9066 8.37483 16.7767 8.11013C16.7242 7.81688 16.7631 7.79358 16.8195 7.76056C16.8758 7.72754 17.0875 7.60696 17.2035 7.18392C17.3194 6.76088 17.6792 6.74706 17.6792 6.74706L17.9005 6.58398L18.2365 7.42469L18.5297 8.18398L18.6209 8.76459L18.6889 9.2597L18.5297 10.3064L17.7434 11.017L17.4094 10.2525H17.4095Z" fill="#C89D3A"/>
<path fill-rule="evenodd" clip-rule="evenodd" d="M6.43652 21.9188V21.8972C6.45286 21.887 6.46729 21.874 6.47915 21.8588C6.49272 21.8394 6.50257 21.8161 6.51217 21.8103C6.53163 21.8006 6.62289 21.7719 6.6714 21.7812C6.71992 21.7904 6.84817 21.8432 6.91614 21.8394C7.05592 21.8356 7.21899 21.7287 7.47729 21.7773C7.86564 21.8491 7.95691 22.1132 8.18219 22.2627C8.33579 22.3676 8.49476 22.3209 8.51806 22.3209H8.57041C8.58014 22.3209 8.65195 22.2394 8.69086 22.2434C8.76856 22.2472 8.77624 22.3113 8.82475 22.3152C8.93931 22.3287 9.16075 22.2569 9.27147 22.2861C9.3381 22.307 9.39031 22.3591 9.41124 22.4258C9.43454 22.4976 9.41508 22.5888 9.35876 22.6413C9.23844 22.7519 9.12388 22.8569 9.10059 22.9485C9.13022 22.9711 9.15867 22.9952 9.18584 23.0207C8.22509 22.7759 7.30072 22.4058 6.43652 21.9199V21.9188Z" fill="#CEB052"/>
<path fill-rule="evenodd" clip-rule="evenodd" d="M16.7764 18.0394C16.7764 18.0394 17.0792 17.6355 17.1842 17.4354C17.289 17.2292 16.8521 14.618 16.8521 14.618L17.7298 11.7424L17.7064 10.8065C17.7064 10.8065 17.7492 9.94233 17.8502 9.56755C17.9706 9.7831 18.3454 10.0433 18.4269 10.1812C18.4653 9.91699 18.5958 9.3598 18.5764 8.76562C18.6482 8.87622 18.821 9.98892 18.821 9.98892L18.9938 10.7384L19.2191 11.5345L19.4696 12.3754L19.6191 12.956L19.7045 13.0957L19.7764 13.3403L19.8444 13.6045L20.0405 14.2239L20.1557 14.7326L20.247 15.655C20.2668 15.7256 20.2811 15.7977 20.2897 15.8705C20.2936 15.9715 20.2761 16.0298 20.2761 16.0473C20.2761 16.0648 20.3092 16.2686 20.2956 16.4221C20.2761 16.5757 20.2761 16.6959 20.1557 16.8061C20.0352 16.9163 19.9596 17.575 19.9596 17.575L19.744 17.4314C19.744 17.4314 19.7868 17.2351 19.6858 17.0566C19.5848 16.878 19.3887 16.841 19.278 16.8702C19.1674 16.8935 18.9461 16.9283 18.8742 16.9905C18.8062 17.0526 18.6393 17.2449 18.4858 17.3323C18.2938 17.4475 17.981 17.4566 17.8141 17.4954C17.6451 17.5338 17.4587 17.649 17.2625 17.7827C17.1087 17.8823 16.9462 17.968 16.7771 18.0387L16.7764 18.0394Z" fill="#CCA847"/>
<path fill-rule="evenodd" clip-rule="evenodd" d="M16.7764 22.2821C16.7764 22.2821 16.7892 22.2904 16.8139 22.3039C18.1934 21.6576 19.4295 20.7415 20.4491 19.6095C20.4379 19.2166 20.4235 18.8138 20.4076 18.6645C20.3747 18.348 20.398 18.0257 20.3883 17.8393C20.3785 17.6529 20.2737 16.8936 20.2252 16.6975C20.1727 16.5014 20.0716 16.4043 20.0562 16.4043C20.0427 16.4083 19.961 16.7733 19.961 16.8651C19.961 16.9569 19.9416 17.1778 19.9416 17.2341C19.928 17.2302 19.9222 17.1957 19.9222 17.1816C19.9028 17.2302 19.8795 17.3157 19.8697 17.3254C19.86 17.3351 19.8833 17.2438 19.8697 17.2244C19.8562 17.2049 19.8313 17.2147 19.8367 17.1662C19.839 17.1374 19.8436 17.1088 19.8503 17.0808C19.8503 17.0808 19.792 17.1662 19.7494 17.3836C19.7067 17.5992 19.7067 17.6051 19.6912 17.6244C19.6776 17.6478 19.5999 17.7254 19.596 17.7546C19.5921 17.8069 19.6679 17.8594 19.6736 17.8885C19.6775 17.9371 19.6057 18.1622 19.5824 18.2725C19.5591 18.3827 19.5688 18.5986 19.544 18.7093C19.5245 18.8103 19.5056 18.8686 19.4392 18.9112C19.4877 18.9209 19.5343 18.9345 19.5343 18.9345C19.5343 18.9345 19.6022 19.2218 19.4294 19.4666C19.3673 19.5519 19.3519 19.5909 19.2858 19.6686C19.1556 19.8122 19.0546 19.9758 19.0449 20.0821C19.0382 20.0507 19.0337 20.0189 19.0313 19.9869C19.0313 19.9869 18.8295 20.2219 18.744 20.3559C18.6334 20.5287 18.4799 20.519 18.4368 20.5617C18.3936 20.6045 18.3843 20.6821 18.3984 20.7443C18.36 20.7539 18.2878 20.7676 18.2392 20.9171C18.2159 20.9946 18.1576 21.0707 18.0664 21.1229C17.9751 21.1751 17.8644 21.1909 17.808 21.2044C17.8566 21.218 17.876 21.218 17.8993 21.2335C17.8703 21.282 17.7362 21.3578 17.5867 21.4549C17.4372 21.5462 17.3653 21.6801 17.3284 21.7675C17.29 21.849 17.2333 21.9015 17.1421 21.9112C17.1805 21.9345 17.2373 21.9888 17.2664 22.0063C17.2236 22.0161 17.1512 22.0161 17.0217 22.1268C16.8858 22.2394 16.8392 22.2725 16.777 22.2822L16.7764 22.2821Z" fill="#C39D3C"/>
<path fill-rule="evenodd" clip-rule="evenodd" d="M14.0749 23.1819C14.1492 23.1298 14.2297 23.0871 14.3146 23.0548C14.6175 22.9345 14.9378 22.9112 15.064 22.8724C15.1845 22.834 15.2796 22.781 15.4291 22.752C15.4251 22.786 15.4218 22.818 15.4182 22.8482C14.9775 22.9868 14.5286 23.0982 14.0742 23.1819H14.0749Z" fill="#D2BA6B"/>
<path fill-rule="evenodd" clip-rule="evenodd" d="M19.6607 15.2158C19.6607 15.2158 19.5986 15.5517 19.4879 15.7634C19.3771 15.9751 19.2575 16.2682 19.2575 16.2682C19.2582 16.2022 19.266 16.1364 19.2808 16.072C19.141 16.1535 18.8011 16.3498 18.7048 16.4371C18.6135 16.5186 18.46 16.6623 18.4212 16.7303C18.5125 16.4624 18.6076 16.2216 18.6232 16.1109C18.4834 16.2119 17.8309 16.7498 17.4912 17.1051L16.4329 17.9614C16.3108 18.0273 16.185 18.0862 16.0562 18.1378C15.8738 18.2154 15.6582 18.2814 15.499 18.3436C15.5418 18.2291 15.6096 18.1279 15.7048 18.0309C15.8058 17.9358 16.1087 17.6076 16.1553 17.4549C16.198 17.2957 16.2077 17.2006 16.1514 17.0666C16.0989 17.0801 15.9786 17.086 15.8971 17.1093C15.8155 17.1326 15.7281 17.2199 15.7281 17.2199C15.7281 17.2199 15.7902 16.8646 15.9242 16.5287C15.8232 16.5325 15.6504 16.5616 15.6504 16.5616C15.6504 16.5616 15.8912 16.1578 16.3032 15.8763C16.177 15.9031 16.0536 15.9414 15.9343 15.9907C15.6936 16.0917 15.4295 16.2412 15.2334 16.3227C15.344 16.1691 16.1207 15.0607 16.5829 14.0276C17.0437 12.9965 17.2159 12.7325 17.3169 12.1791C17.3692 11.9053 17.3553 11.5007 17.3692 11.1384C17.3828 10.7791 17.4274 10.4568 17.3984 10.2412C17.5187 10.3907 17.9693 10.8121 17.9848 11.7539C17.9983 12.6956 17.5538 13.9675 17.0818 14.6529C17.197 14.6859 17.4955 14.7248 17.8022 14.1921C18.1089 13.6593 18.1052 13.5106 18.2159 13.2891C18.2295 13.3999 18.2255 13.4387 18.2255 13.4387C18.2255 13.4387 18.6722 12.897 18.8838 12.2154C18.9266 12.5086 19.0528 12.7669 18.8546 13.3048C18.678 13.7901 18.447 13.9087 18.447 13.9087C18.447 13.9087 18.5615 13.8892 18.7304 13.7882C18.7595 13.86 18.7538 13.9418 18.8023 13.9707C18.8508 13.9997 18.9169 14.0484 18.9266 14.095C18.9789 14.0173 19.0605 13.9183 19.0858 13.8445C19.0664 13.9981 19.0528 14.6698 19.1242 15.0115C19.2738 14.9979 19.4272 14.9882 19.532 14.7183C19.4602 14.9825 19.4602 15.1416 19.5087 15.3668C19.5883 15.3126 19.6602 15.2154 19.6602 15.2154L19.6607 15.2158Z" fill="#C0993A"/>
<path fill-rule="evenodd" clip-rule="evenodd" d="M14.6157 4.51255C14.6157 4.51255 14.4662 4.57463 14.2118 4.57463C13.9905 4.57463 14.0526 4.48926 13.707 4.48926C13.175 4.48926 11.3167 4.79646 10.9904 4.79211C10.7787 4.78827 11.7049 4.88337 11.7049 4.88337L14.072 4.91639L14.5477 4.87799L14.7245 4.51831L14.6157 4.51255Z" fill="#A88F33"/>
<path fill-rule="evenodd" clip-rule="evenodd" d="M8.47794 9.13943C8.47794 9.13943 8.17497 9.37047 8.04684 9.54724C7.91871 9.72401 7.85074 9.84036 7.70508 9.98411C7.73927 9.98541 7.77343 9.98082 7.80607 9.97054C7.80607 9.97054 7.80607 10.0089 7.78277 10.0191C7.82355 10.0145 7.86419 10.0286 7.89337 10.0575C7.85061 10.0807 7.73413 10.1974 7.8254 10.3352C7.89337 10.44 8.03711 10.4496 8.03711 10.4496C8.03711 10.4496 8.00409 10.5449 8.14194 10.5351C8.43903 10.5216 8.77106 10.3914 8.92441 10.4244C9.07801 10.4628 9.1653 10.4769 9.27397 10.6653C9.38917 10.8517 9.48953 10.8809 9.48953 10.8809C9.48953 10.8809 9.55749 10.7079 9.54201 10.4498C9.59773 10.3106 9.62862 10.1627 9.63327 10.0129L9.53228 9.26923L9.09157 8.71191L8.52069 9.02846L8.47794 9.13905V9.13943Z" fill="#E3C571"/>
<path fill-rule="evenodd" clip-rule="evenodd" d="M9.01953 9.0288C9.01953 9.0288 9.06228 9.12979 9.24097 9.13939C9.22152 9.18214 9.22152 9.18803 9.2274 9.22093C9.23124 9.25395 9.237 9.30246 9.237 9.30246C9.25668 9.29294 9.27446 9.27993 9.28948 9.26406C9.29921 9.30682 9.27976 9.37466 9.28948 9.4233C9.29549 9.45288 9.30525 9.48157 9.31854 9.50867C9.32137 9.50203 9.32462 9.49558 9.32827 9.48934C9.33211 9.47962 9.36667 9.59418 9.46228 9.68134C9.4622 9.66794 9.4655 9.65473 9.47188 9.64294C9.47335 9.66729 9.4814 9.69078 9.49518 9.71091C9.48802 9.7075 9.48149 9.70292 9.47585 9.69734C9.47585 9.69734 9.48545 10.0045 9.53793 10.1634C9.5467 10.1531 9.5545 10.1421 9.56123 10.1304C9.56123 10.1208 9.55739 10.2159 9.54766 10.284C9.53409 10.3519 9.54382 10.447 9.54382 10.447C9.57883 10.4195 9.6173 10.3966 9.65825 10.3791C9.71649 10.3556 9.81185 10.2838 9.86996 10.1246C9.90368 10.0344 9.92967 9.94155 9.94766 9.84698C9.96643 9.88312 9.97939 9.922 9.98606 9.96218C9.99003 10.0107 10.0813 9.98547 10.0813 9.98547L10.1007 9.77376L10.2159 9.29414L10.3208 8.99706L10.8256 8.21075L11.7377 7.50829L12.5339 7.69082L13.2056 6.77818L12.0484 6.08301L10.9532 6.19757L9.95931 7.57421L9.16328 8.82285L9.01953 9.02867L9.01953 9.0288Z" fill="#D8B65B"/>
<path fill-rule="evenodd" clip-rule="evenodd" d="M14.7553 7.03689C14.7553 7.03689 14.6873 7.05046 14.4912 7.15209C14.2951 7.25372 14.1592 7.28598 14.0834 7.43548C14.0077 7.58498 14.0019 7.70351 14.0019 7.70351C14.0019 7.70351 14.1359 7.64527 14.2136 7.62582C14.2951 7.60649 14.3864 7.61225 14.3767 7.64527C14.3673 7.66792 14.3544 7.68888 14.3383 7.70735C14.3383 7.70735 14.4919 7.70351 14.4878 7.77929C14.4837 7.85506 14.4587 7.93852 14.4297 7.97538C14.4005 8.01378 14.2802 8.07062 14.2666 8.11529C14.2336 8.20655 14.2802 8.21039 14.2626 8.28412C14.2491 8.35606 14.1851 8.49583 13.9753 8.74044C13.7597 8.98518 13.6681 9.15798 13.6681 9.15798C13.6681 9.15798 13.5632 8.96188 13.5088 8.79292C13.4704 8.81225 13.2642 8.92681 13.2642 8.92681L12.7865 7.26281L12.7961 7.15209C12.7961 7.15209 12.8389 7.09974 12.8486 7.00258C12.7768 6.97929 12.7671 6.95983 12.6719 6.8687C12.5766 6.77756 12.4991 6.66671 12.3399 6.59094C12.3167 6.54818 12.2875 6.49007 12.171 6.46665C12.0545 6.44322 11.9846 6.42402 11.9846 6.42402C11.9846 6.42402 12.0467 6.4006 12.0759 6.35209C12.0039 6.36182 11.9458 6.38511 11.7885 6.38127C11.6293 6.3773 11.6118 6.37154 11.5245 6.38511C11.4372 6.39868 11.3325 6.43759 11.2934 6.30358C11.2507 6.27055 11.1594 6.29974 11.0817 6.41417C11.004 6.5286 10.9769 6.61999 10.8274 6.66466C10.8169 6.73057 10.7938 6.79383 10.7594 6.85103C10.7167 6.92297 10.6487 6.99478 10.5574 7.10153C10.4137 7.27049 10.437 7.54812 10.2079 7.75983C9.97681 7.97142 10.2463 7.17334 10.2463 7.17334L10.6151 6.29014L11.6656 5.26294L13.2967 5.15234L13.456 5.99714L14.2521 6.27094L14.7551 7.03791L14.7553 7.03689Z" fill="#D3AE4D"/>
<path fill-rule="evenodd" clip-rule="evenodd" d="M15.0139 7.22311L14.3284 6.23483L13.8488 5.8658C13.8488 5.8658 13.507 5.23681 13.4837 5.21735C13.4643 5.20379 13.142 5.16884 12.9362 5.15527L12.9746 5.25038C13.0195 5.26497 13.0594 5.29189 13.0898 5.32807C13.181 5.43291 13.2393 5.63092 13.0315 5.84263C13.1131 5.87169 13.1467 5.88103 13.2179 5.87169C13.1461 5.95719 12.983 6.13972 12.9733 6.29895C12.9636 6.429 13.0451 6.46779 13.0451 6.46779C13.0451 6.46779 12.9208 6.61153 12.915 6.85179C12.9737 6.7856 13.038 6.72453 13.107 6.66926C13.2508 6.55406 13.4488 6.42452 13.5828 6.34299C13.581 6.3772 13.5856 6.41146 13.5964 6.44398C13.5964 6.44398 13.8468 6.23815 14.0572 6.32942C14.1523 6.37217 14.1095 6.50619 14.1095 6.50619C14.1095 6.50619 14.2397 6.45767 14.331 6.54894C14.4222 6.6402 14.5523 6.87508 14.6183 6.96647C14.6474 7.00923 14.7232 7.09076 14.8007 7.21684C14.9067 7.39357 14.9952 7.58023 15.0649 7.77415C15.0688 7.69646 15.0844 7.58779 15.2185 7.58779L15.0146 7.22273L15.0139 7.22311Z" fill="#CAA13E"/>
<path fill-rule="evenodd" clip-rule="evenodd" d="M4.73836 10.0314C4.73836 10.0314 4.68985 9.91098 4.73836 9.6761C4.78687 9.44122 4.86265 9.3305 4.88786 8.9849C4.91308 8.6393 5.13836 8.2082 5.13836 8.2082L5.76159 7.9248L6.20242 8.04512L6.33247 8.63546L5.77516 8.94266C5.77516 8.94266 5.7461 9.07271 5.58879 9.17754C5.43148 9.28237 5.21401 9.36391 5.16165 9.47079C5.13036 9.53624 5.10752 9.6054 5.09369 9.67661C5.09369 9.67661 4.93445 9.64359 4.83935 9.74842C4.73836 9.8553 4.7422 9.9504 4.73836 10.0319V10.0314Z" fill="#F4EFC8"/>
<path fill-rule="evenodd" clip-rule="evenodd" d="M5.99612 9.87386C5.99612 9.87386 5.94364 9.90689 5.90485 9.98906C5.86645 9.92698 5.77468 9.55796 5.77084 9.22593C5.767 8.8939 5.74716 8.81159 5.82396 8.69716C5.90076 8.58273 6.20194 8.46215 6.15919 8.25607C6.11644 8.05998 5.93775 7.97844 5.71836 8.03476C5.56476 8.07316 5.45045 8.39982 5.29122 8.56289C5.17077 8.68718 5.02716 8.66772 4.98837 8.73569C4.93589 8.82695 4.98441 8.91822 4.96892 8.97646C4.96495 8.99591 4.91644 9.10074 4.82901 9.22695C4.65237 9.48129 4.35337 9.84058 4.31445 10.1629C4.32802 9.98036 4.31842 9.97652 4.36693 9.77454L4.33775 9.72602L4.52975 9.0969L4.65404 8.5785L4.9318 7.71041L5.42101 6.82311L5.89679 6.29102L6.39189 6.32404L6.45013 7.06772L6.73365 8.46394L7.32975 9.1979L6.37436 9.84084L5.99573 9.87386H5.99612Z" fill="#EBCC73"/>
<path fill-rule="evenodd" clip-rule="evenodd" d="M6.29363 10.1379C6.29363 10.1379 6.21209 10.1574 6.18291 10.1419C6.15372 10.1264 6.12479 10.1089 6.13439 10.0894C6.14399 10.07 6.19647 10.0371 6.19647 10.0215C6.19871 9.99211 6.17722 9.96631 6.14796 9.96321C6.10329 9.95745 6.08972 9.98651 6.08972 9.98651C6.08972 9.98651 6.04697 9.95361 6.01215 9.94811C6.03275 9.94558 6.05348 9.94426 6.07423 9.94414C6.02057 9.91983 5.96365 9.90349 5.90527 9.89563C5.95379 9.86657 6.04902 9.78107 6.1111 9.78107C6.17318 9.78107 6.21209 9.77147 6.20236 9.73844C6.19263 9.70542 6.14412 9.65691 6.09177 9.63745C6.1111 9.61415 6.12479 9.57921 6.0782 9.48385C6.02956 9.38875 6.04902 9.32462 6.06463 9.30145C6.0782 9.27227 6.12671 9.21991 6.15001 9.18689C6.17331 9.15387 6.19276 9.10919 6.23155 9.0859C6.251 9.07233 6.31308 9.0475 6.37529 9.02382C6.44326 9.00052 6.49958 8.97134 6.53836 9.00052C6.58111 9.02958 6.56166 9.06849 6.56166 9.06849C6.56166 9.06849 6.69567 9.01985 6.81599 9.08206C6.93644 9.14017 7.22969 9.17716 7.22969 9.17716L7.33478 9.38887L6.63961 9.98497L6.35225 10.1287L6.29401 10.1383L6.29363 10.1379Z" fill="#E5C66B"/>
<path fill-rule="evenodd" clip-rule="evenodd" d="M7.25806 9.1636C7.25806 9.1636 7.04251 9.30734 6.994 9.35969C7.02305 9.36366 7.07156 9.38312 7.05211 9.41217C7.02881 9.44123 6.88904 9.54222 6.81134 9.63745C6.7298 9.73256 6.65211 9.85301 6.62497 9.91125C6.59592 9.9636 6.37448 10.1171 6.29883 10.1364C6.45806 10.1364 6.77844 9.9403 6.89876 9.9403C6.89492 9.99854 6.93179 10.0646 6.99976 10.0704C7.06772 10.0761 7.26382 10.1131 7.52788 9.95003C7.79195 9.7908 7.70465 9.67227 7.81524 9.5947C8.02696 9.4548 8.11233 9.33051 8.22881 9.25294C8.34529 9.17537 8.40558 9.15771 8.40558 9.15771C8.40558 9.15771 8.40942 9.09947 8.44398 9.10536C8.46326 9.10757 8.47972 9.12029 8.48673 9.13838C8.48673 9.13838 8.68872 8.99464 8.94753 8.95586C8.94149 8.95316 8.93666 8.94832 8.93396 8.94229C8.93396 8.94229 8.95329 8.93256 8.95726 8.92283C8.95726 8.92283 8.97083 8.90338 8.98056 8.9131C8.99028 8.92283 9.00385 8.99464 9.02331 9.02382C9.06606 9.00437 9.1476 8.82184 9.1476 8.82184L9.34382 8.26069V7.74805L9.19022 7.77723L8.03822 8.26645L7.33908 8.9908L7.25755 9.1636H7.25806Z" fill="#E6BD62"/>
<path fill-rule="evenodd" clip-rule="evenodd" d="M10.5744 6.64861C10.6367 6.63349 10.6965 6.60925 10.7517 6.57668C10.7284 6.63888 10.7284 6.70685 10.6274 6.85444C10.5264 7.00202 10.5226 7.0234 10.441 7.17674C10.3595 7.33597 10.3498 7.56509 10.2721 7.66596C10.3069 7.64903 10.3443 7.63792 10.3827 7.63306C10.3827 7.63306 10.3051 7.70103 10.2721 7.77284C10.239 7.84464 10.1808 7.99415 10.0372 8.08554C9.89358 8.17693 9.71092 8.23504 9.51483 8.4506C9.3186 8.66218 9.11674 8.93021 9.01562 9.0266C9.06811 8.93533 9.13991 8.7528 9.15937 8.63248C9.17883 8.51216 9.1554 8.36829 9.18843 8.20919C9.22145 8.05008 9.22145 7.9354 9.38043 7.65764C9.5394 7.37988 9.81153 6.41488 9.81153 6.41488L10.3979 6.22852L10.5747 6.64797L10.5744 6.64861Z" fill="#B6933F"/>
<path fill-rule="evenodd" clip-rule="evenodd" d="M10.1511 6.2932C10.1511 6.2932 9.97445 6.54754 9.92594 6.77282C9.87743 6.9981 9.92197 6.97864 9.89292 7.08936C9.87554 7.15687 9.87554 7.22768 9.89292 7.29519C9.95409 7.19663 10.0379 7.11406 10.1373 7.05429C10.3043 6.95343 10.4402 6.88149 10.5213 6.79612C10.6028 6.70485 10.6708 6.55535 10.8474 6.44079C10.7756 6.43106 10.6746 6.39804 10.6554 6.40239C10.7273 6.32085 10.9428 6.19656 11.1602 6.04706C11.3758 5.89346 11.3622 5.83151 11.7118 5.67816C11.5972 5.69762 11.5428 5.66844 11.4476 5.67816C11.486 5.59663 11.6204 5.55772 11.7548 5.42383C11.8892 5.28994 11.6694 5.0918 11.6694 5.0918L10.6454 5.71119L10.1503 6.29372L10.1511 6.2932Z" fill="#C49937"/>
<path fill-rule="evenodd" clip-rule="evenodd" d="M7.37305 5.83076L7.39634 5.64439L7.68959 5.1745L7.99641 4.34928V3.22109L7.97311 2.56868L8.02162 2.14141L8.05849 2.00561L8.0974 1.95312L8.34777 2.08317L8.6935 2.55306L8.72652 3.45994L8.39052 4.89098L7.43129 5.93764L7.37305 5.83076Z" fill="#DFC068"/>
<path fill-rule="evenodd" clip-rule="evenodd" d="M8.13572 1.9013C8.13572 1.9013 7.98212 1.90527 7.94935 2.54411C7.91659 3.18296 7.90071 3.51883 7.87742 3.83538C7.85412 4.15192 7.79985 4.34405 7.77259 4.53055C7.74532 4.71704 7.72983 4.97125 7.64254 5.12664C7.60414 5.19845 7.52209 5.42373 7.32983 5.59269C7.11428 5.77906 6.79223 5.90923 6.74347 5.91896C6.65796 5.93829 6.22494 5.98104 6.0483 6.07819C5.98622 6.11122 5.87934 6.15 5.76094 6.26072C5.52593 6.47231 5.21336 6.85093 4.98808 7.30725C4.64248 7.98885 4.29688 9.91307 4.29688 9.91307L4.37457 9.78303C4.37457 9.78303 4.3843 9.61023 4.5571 9.30725C4.72606 9.0044 4.67755 8.66456 4.91243 8.08395C5.00369 7.86264 5.11825 7.57528 5.25803 7.33055C5.47947 6.93247 5.74737 6.59071 6.01732 6.40434C6.45803 6.10149 6.94353 6.03544 6.94353 6.03544L7.4659 5.68984C7.4659 5.68984 7.55716 5.5132 7.67761 5.31122C7.84644 5.02783 8.06161 4.71128 8.10859 4.25112C8.18052 3.56952 8.0076 3.12293 8.01732 2.71909C8.02705 2.31525 8.03089 2.01816 8.11256 1.94623C8.19422 1.87429 8.13585 1.90155 8.13585 1.90155L8.13572 1.9013Z" fill="#A88F33"/>
<path fill-rule="evenodd" clip-rule="evenodd" d="M8.136 4.94946C8.136 4.94946 8.3664 4.38242 8.47187 3.8795C8.49132 3.77851 8.53011 3.67765 8.53984 3.59611C8.58835 3.12034 8.60192 2.92424 8.53984 2.66402C8.49132 2.47202 8.30496 2.29896 8.2078 2.16482C8.1127 2.02491 8.06803 1.97282 8.08748 1.94338C8.10694 1.91394 8.18259 1.86581 8.25632 1.87157C8.4147 1.87618 8.56425 1.94558 8.67001 2.06357C8.81952 2.23637 8.93792 2.82286 8.93792 2.82286L9.06246 3.59675L9.379 4.57147L8.13625 4.95022L8.136 4.94946Z" fill="#C99E3D"/>
<path fill-rule="evenodd" clip-rule="evenodd" d="M10.3009 4.35911C10.3009 4.35911 10.2581 4.37844 10.1806 4.35911C10.1873 4.42374 10.1573 4.48671 10.1029 4.52218C10.0213 4.48916 9.25808 4.55521 9.25808 4.55521C9.25808 4.55521 8.90275 4.493 8.79203 4.02311C8.71446 3.71041 8.85027 3.27943 8.8056 2.99591C8.73763 2.57838 8.64253 2.49671 8.6328 2.36679C8.62307 2.23687 8.61334 2.20372 8.61334 2.12218C8.57059 2.11246 8.54537 2.09889 8.50275 2.09889C8.49302 2.06049 8.51235 2.02695 8.46973 1.95898C8.49302 1.96871 8.65225 1.98817 8.83862 2.16481C8.99222 2.30855 8.99222 2.3609 9.01539 2.39009C9.04445 2.41914 9.27945 2.62049 9.38045 2.82119C9.48144 3.0219 9.67753 3.6619 9.72221 3.76673C9.73577 3.80948 9.76496 3.85223 9.83741 3.94926C9.95005 4.08916 10.115 4.32046 10.3014 4.35886L10.3009 4.35911Z" fill="#B58634"/>
<path fill-rule="evenodd" clip-rule="evenodd" d="M9.04297 2.40039C9.1606 2.59041 9.26627 2.78757 9.35938 2.99073C9.47394 3.2489 9.54191 3.46061 9.68566 3.63341C9.60796 3.40826 9.4701 2.96551 9.38857 2.8082C9.2973 2.6418 9.11094 2.4626 9.04297 2.40052V2.40039Z" fill="#A88F33"/>
<path fill-rule="evenodd" clip-rule="evenodd" d="M7.72244 5.59192C7.72244 5.59192 7.52634 5.64044 7.16128 5.83269C7.04084 5.89477 6.9264 5.94712 6.81568 5.99576C6.52807 6.12581 6.21959 6.246 5.97485 6.31231C5.99431 6.3356 6.00391 6.3452 6.00391 6.3452C6.00391 6.3452 6.00391 6.44044 6.05639 6.49471C6.02733 6.52389 5.63885 6.78796 5.75354 7.67141C5.83111 7.64236 5.92237 7.60344 5.93594 7.60344C5.95936 7.60741 5.96512 7.67141 5.99418 7.67141C6.02324 7.67141 6.11847 7.63301 6.21946 7.50245C6.21562 7.55493 6.15738 8.08306 6.46996 8.43839C6.5282 8.37042 6.67578 8.14514 6.67578 8.14514L6.67962 8.07333C6.67962 8.07333 6.69319 7.82284 6.77485 7.59372C6.85652 7.3646 7.01562 7.19564 7.01562 7.19564L7.84647 6.0092L7.72218 5.5918L7.72244 5.59192Z" fill="#E6C367"/>
<path fill-rule="evenodd" clip-rule="evenodd" d="M6.94525 7.33473C6.90721 7.36161 6.8653 7.38255 6.82096 7.39681C6.8074 7.3483 6.78794 7.18126 6.9025 7.01819C7.03652 6.82197 7.32964 6.56763 7.41117 6.36539C7.46365 6.23521 7.44036 5.90907 7.9064 5.49153C8.37245 5.074 8.55485 4.93038 8.55485 4.93038L9.30826 4.55176L10.2345 4.91681L9.77431 6.72033L9.41706 7.56513L7.99626 7.29723L6.94512 7.33473H6.94525Z" fill="#DCBA5A"/>
<path fill-rule="evenodd" clip-rule="evenodd" d="M7.48828 6.84444L7.66505 6.62312V6.46581C7.66505 6.46581 7.86115 6.41333 8.07273 6.19778C8.28431 5.98223 8.57756 5.56866 8.83587 5.59388C9.09417 5.62306 9.11939 6.15503 9.12911 6.30466C9.13884 6.45429 9.17187 6.79388 9.22422 6.97653C9.28246 7.15906 8.5951 7.85026 8.5951 7.85026L8.12828 8.20559L7.48828 6.84444Z" fill="#E9CE77"/>
<path fill-rule="evenodd" clip-rule="evenodd" d="M8.03516 8.68692C8.03516 8.68692 8.1789 8.46164 8.07356 8.41313C8.13564 8.27335 8.2502 8.12577 8.2502 8.12577C8.2502 8.12577 8.33173 7.92391 8.5958 7.67534C8.85986 7.42676 9.02306 7.26164 9.06581 7.09473C9.09217 6.98595 9.1065 6.8746 9.10856 6.7627C9.13711 6.78602 9.16765 6.80679 9.19983 6.82478C9.24258 6.84423 9.44444 7.01114 9.41538 7.34714C9.38632 7.68314 9.26178 7.82292 9.26178 7.82292C9.26178 7.82292 9.14146 7.94324 9.05608 8.00545C8.96469 8.06753 8.9318 8.13934 8.77832 8.14522C8.7941 8.13268 8.81183 8.12282 8.8308 8.11604C8.8308 8.11604 8.67157 8.09671 8.58607 8.17428C8.50056 8.25185 8.3188 8.49082 8.22754 8.56276C8.13628 8.621 8.03554 8.68705 8.03554 8.68705L8.03516 8.68692Z" fill="#CDAE50"/>
<path fill-rule="evenodd" clip-rule="evenodd" d="M14.4914 4.91039C14.262 4.82679 14.0209 4.77962 13.7769 4.77062C13.3691 4.75705 12.773 4.78035 12.1886 4.78419C11.5594 4.78803 10.9886 4.56863 10.1964 4.52985C10.0663 4.45215 9.73557 4.11231 8.70312 4.8327C8.76521 4.82886 9.45269 4.67347 9.69141 4.9726C9.93218 5.26969 9.86421 5.77452 9.83132 5.89484C9.76911 6.16287 9.56713 6.55315 9.48572 6.82694C9.40431 7.10073 9.42351 7.2446 9.36527 7.4366C9.30703 7.6286 9.1789 7.72396 9.25455 7.94527C9.35554 7.88319 9.40815 7.88319 9.57685 7.50457C9.74556 7.12595 9.71087 6.85599 9.99055 6.53561C10.2643 6.21331 10.7201 5.77247 10.8935 5.66175C11.0668 5.55103 12.4429 4.83654 13.8838 5.51814C14.2313 5.48127 14.4915 4.91027 14.4915 4.91027L14.4914 4.91039Z" fill="#D2A83E"/>
<path fill-rule="evenodd" clip-rule="evenodd" d="M9.28394 4.64642C9.28251 4.63183 9.27929 4.61747 9.27434 4.60367C9.26086 4.57527 9.24317 4.54908 9.22186 4.52597C9.22186 4.52597 8.8801 4.46389 8.7073 4.48322C8.40432 4.51625 8.13053 4.89103 8.0024 5.08329C7.87428 5.27554 7.71504 5.5725 7.54224 5.72597C7.54414 5.71102 7.54069 5.69588 7.53252 5.68322C7.53252 5.68322 7.54224 5.69679 7.52292 5.71625C7.50359 5.7357 7.50346 5.7453 7.51319 5.75465L7.54237 5.7837C7.55197 5.7837 7.82 5.66325 8.18506 5.3229C8.57341 4.96757 8.8705 4.7853 9.02589 4.72284C9.10876 4.68762 9.19538 4.66198 9.28407 4.64642H9.28394Z" fill="#C29637"/>
<path fill-rule="evenodd" clip-rule="evenodd" d="M15.9125 3.18652C15.9125 3.18652 15.8503 3.26409 15.7726 3.3496C15.5998 3.53212 15.3746 3.73782 15.1823 3.94953C14.9999 4.15152 14.7941 4.30883 14.5629 4.57289C14.3317 4.83696 14.0637 5.13008 13.9959 5.21558C13.9338 5.30108 13.8853 5.44086 13.8853 5.51267C13.8523 5.48937 13.8135 5.46416 13.8135 5.46416C13.8298 5.49464 13.8493 5.5233 13.8717 5.54966C13.9202 5.61763 13.9959 5.70326 14.0348 5.75548C14.0825 5.82197 14.1168 5.89715 14.1357 5.9768C14.1589 5.98064 14.3085 6.00982 14.4949 5.703C14.6814 5.39619 14.9259 5.06032 14.9259 5.06032L15.3143 4.48355L15.559 3.99433L15.8662 3.44675L15.9129 3.18652H15.9125Z" fill="#AC8132"/>
<path fill-rule="evenodd" clip-rule="evenodd" d="M16.3112 2.79395C16.3112 2.79395 16.0762 2.98595 15.9849 3.10115C15.8937 3.21635 15.6777 3.51868 15.6777 3.51868L15.7554 3.50895L16.1497 3.15951L16.3033 2.88572L16.3111 2.79446L16.3112 2.79395Z" fill="#A88F33"/>
<path fill-rule="evenodd" clip-rule="evenodd" d="M16.2393 18.2256C16.2393 18.2256 16.2355 18.0664 16.3248 17.9713C16.4161 17.8761 16.6471 17.7363 16.8724 17.212C17.0977 16.6877 17.1228 16.5693 17.1228 16.5693C17.1228 16.5693 16.7189 16.9149 16.47 16.9964C16.5282 16.876 16.5612 16.7906 16.5904 16.7284C16.5574 16.6994 16.4176 16.6663 16.404 16.6508C16.4816 16.5731 16.5244 16.3828 16.6817 16.2566C16.8837 16.103 17.2526 15.8391 17.5393 15.6038C17.826 15.3685 18.3897 14.8213 18.4616 14.6621C18.5044 14.7242 18.514 14.763 18.514 14.763C18.514 14.763 18.2306 15.132 18.083 15.3669C17.9528 15.5689 17.9626 15.6834 17.9626 15.6834L18.2306 15.5682C18.2306 15.5682 18.3082 15.8556 17.9568 16.2926C18.1104 16.2343 18.1724 16.2693 18.2597 16.2206C18.1159 16.312 17.9179 16.4363 17.7315 16.7779C17.549 17.1197 17.3004 17.5178 16.8811 17.7662C16.4733 18.0284 16.2383 18.2245 16.2383 18.2245L16.2393 18.2256Z" fill="#A67A2E"/>
<path fill-rule="evenodd" clip-rule="evenodd" d="M15.1862 5.11315C15.1862 5.11315 15.027 5.44505 15.0037 5.70336C14.9998 5.76556 14.9842 5.81408 14.9842 5.88588C14.9804 6.11692 14.9978 6.37523 14.9458 6.49555C14.9263 6.44704 14.9166 6.41401 14.8972 6.39468C14.8681 6.47622 14.8156 6.73056 14.7729 6.82566C14.7535 6.76358 14.7108 6.54803 14.7148 6.29369C14.7187 6.03936 14.7244 5.99072 14.7244 5.93836C14.7148 6.01593 14.6623 6.12089 14.6428 6.18297C14.6138 6.13062 14.5807 6.06265 14.5418 6.00633C14.5185 6.04473 14.4895 6.10144 14.4643 6.13062C14.4603 6.10732 14.4507 6.04512 14.4448 5.95782C14.441 5.85683 14.4351 5.72678 14.441 5.69952C14.4506 5.64716 14.5322 5.44134 14.705 5.25292C14.9109 5.02764 15.1226 4.59475 15.1847 4.46073C15.2467 4.32672 15.5108 3.76953 15.5108 3.76953H15.7128L15.4195 4.43744C15.4195 4.43744 15.2429 4.80249 15.1516 4.93664C15.0604 5.07078 14.8681 5.45516 14.7826 5.60467C14.8447 5.52313 14.8972 5.48038 14.9594 5.40268C15.0195 5.34828 15.1864 5.1134 15.1864 5.1134L15.1862 5.11315Z" fill="#8C6228"/>
<path fill-rule="evenodd" clip-rule="evenodd" d="M16.3146 2.76855C16.2816 2.8701 16.2295 2.96439 16.161 3.04631C16.0406 3.19006 15.7822 3.38219 15.6562 3.53553C15.541 3.68503 15.3106 4.09284 15.4153 4.5763C15.4537 4.47147 15.526 4.26372 15.7182 4.02871C15.9105 3.79371 16.1163 3.52388 16.2174 3.31422C16.3183 3.10251 16.3319 2.93559 16.3319 2.93559L16.3703 2.88708L16.347 2.77636L16.314 2.76855L16.3146 2.76855Z" fill="#CBA94C"/>
<path fill-rule="evenodd" clip-rule="evenodd" d="M20.247 15.6481C20.247 15.6481 20.1693 15.4365 20.146 15.2443C20.1227 15.052 20.1844 15.0139 20.113 14.7938C20.0702 14.6598 19.9927 14.6786 19.9732 14.6598C19.9537 14.641 19.9402 14.4385 19.944 14.3278C19.9479 14.2171 19.9402 14.0735 19.9207 14.0112C19.8917 13.988 19.8722 13.9685 19.8295 13.8249C19.7809 13.6811 19.7576 13.6093 19.7343 13.5667C19.7111 13.5241 19.643 13.4852 19.643 13.4424C19.643 13.3569 19.7207 13.3124 19.7207 13.2888C19.7168 13.2403 19.6586 13.2792 19.643 13.2655C19.6236 13.2422 19.6916 13.1024 19.6664 13.083C19.6567 13.0734 19.5887 13.1549 19.5711 13.1316C19.5517 13.1082 19.5284 12.8772 19.4935 12.7238C19.4606 12.5743 19.4255 12.4656 19.4216 12.421C19.4178 12.3782 19.1536 11.6248 19.0896 11.4423C19.038 11.2881 18.9946 11.1312 18.9596 10.9724C18.9401 10.8811 18.9265 10.6946 18.9168 10.7141C18.9071 10.7336 18.913 10.8287 18.8974 10.8248C18.8838 10.8208 18.8353 10.4889 18.8198 10.4365C18.8062 10.384 18.7246 10.2061 18.7046 10.0773C18.6851 9.94712 18.6425 9.60728 18.6133 9.37624C18.5841 9.1452 18.5706 9.0501 18.5706 8.99224C18.5753 8.85073 18.5676 8.70908 18.5473 8.56895C18.5089 8.32421 18.4321 8.02712 18.3647 7.85445C18.2347 7.52818 17.889 6.69323 17.8271 6.48549C17.8271 6.43301 17.8951 6.46219 17.8951 6.46219C17.8951 6.46219 18.0639 6.88549 18.1882 7.21163C18.3087 7.53791 18.4232 7.82527 18.4524 7.85445C18.4757 7.88351 18.6583 8.20389 18.7398 8.72818C18.8213 9.25247 18.8504 9.73592 18.899 10.0582C18.9223 10.2118 18.9418 10.3748 18.9903 10.5378C19.0426 10.7146 19.1242 10.8971 19.2311 11.1767C19.3223 11.4117 19.3903 11.6078 19.4271 11.7768C19.4699 11.9923 19.4699 12.1554 19.4951 12.2623C19.5185 12.3535 19.5534 12.5359 19.635 12.7999C19.7167 13.0638 19.8369 13.4038 19.9184 13.6153C20.0778 14.0386 20.1488 14.392 20.1729 14.5805C20.1941 14.7746 20.2661 15.4465 20.2466 15.6484L20.247 15.6481Z" fill="#A88F33"/>
<path fill-rule="evenodd" clip-rule="evenodd" d="M16.3248 2.74576L16.3151 2.76906C16.3151 2.76906 16.3442 2.77879 16.3384 2.8177C16.3388 2.87094 16.3356 2.92414 16.3287 2.97693C16.3191 3.0449 16.2996 3.09725 16.2958 3.14C16.2958 3.23127 16.3093 3.3361 16.1806 3.59632C16.1422 3.66813 16.1185 3.73021 16.099 3.77296C16.0505 3.87779 16.0408 3.89341 15.998 3.94192C16.066 3.90352 16.3108 3.74992 16.4349 3.77296C16.3495 3.82147 16.2194 3.91671 16.1378 4.04099C16.1573 4.04483 16.2388 4.06045 16.3682 4.04099C16.5838 4.00797 16.8245 3.93027 17.0361 3.94576C17.2673 3.95933 17.176 3.66813 17.176 3.66813L16.9093 3.08176L16.4044 2.72656L16.3248 2.74589V2.74576Z" fill="#BE9C44"/>
<path fill-rule="evenodd" clip-rule="evenodd" d="M17.6407 7.13823C17.6407 7.13823 17.4155 6.91295 17.3242 6.13983C17.2329 5.36313 17.2524 4.21983 17.2524 4.21983L17.0699 3.77324C17.0699 3.77324 17.0315 3.47615 16.9358 3.36556C16.8402 3.25497 16.6524 3.06847 16.5669 2.97721C16.4814 2.88594 16.3844 2.76166 16.3262 2.7422C16.3552 2.69369 16.4854 2.4199 16.9843 2.41606C17.4833 2.41222 17.6371 2.68985 17.6892 2.79084C17.7413 2.89183 17.9766 3.32844 18.0639 4.16044C18.1454 4.99142 18.1494 5.05362 18.1358 5.34098C18.1261 5.50022 18.0736 5.86911 17.9822 6.26322C17.8988 6.5973 17.8075 6.97017 17.6405 7.139L17.6407 7.13823Z" fill="#A17C34"/>
<path fill-rule="evenodd" clip-rule="evenodd" d="M16.9344 7.80016C17.0095 7.80558 17.0845 7.78865 17.15 7.75152C17.2218 7.74768 17.482 7.7807 17.6819 7.52637C17.6955 7.58448 17.7306 7.74192 17.6392 7.8817C17.6878 7.83306 17.7596 7.81373 17.7694 7.80016C17.7732 7.87197 17.8412 8.09328 17.5538 8.63114C17.6314 8.54576 17.7226 8.5496 17.8042 8.53987C17.8081 8.64086 17.8624 8.98058 17.7188 9.16323C17.6237 9.28752 17.4683 9.24861 17.4683 9.24861C17.4706 9.22148 17.4706 9.1942 17.4683 9.16707C17.4645 9.11459 17.445 9.06224 17.4587 9.0273C17.3836 8.993 17.3152 8.94563 17.2567 8.88739C17.0878 8.72816 16.8684 8.45642 16.8529 8.25443C16.8334 8.02915 17.0354 7.98064 17.0354 7.98064C17.0185 7.9655 17.0041 7.94779 16.9927 7.92816C16.9829 7.89526 16.9732 7.84278 16.9344 7.80016Z" fill="#8C6228"/>
<path fill-rule="evenodd" clip-rule="evenodd" d="M15.4371 5.35732C15.4371 5.35732 15.4274 5.34376 15.375 5.40584C15.3847 5.34376 15.3945 5.28539 15.3983 5.22907C15.4231 5.17693 15.4551 5.12857 15.4935 5.08545C15.4643 5.14356 15.4449 5.19604 15.4449 5.19604C15.4449 5.19604 15.5168 5.06203 15.6217 4.98049C15.6935 4.92225 15.7847 4.89512 15.8235 4.84072C15.8663 4.78248 15.8565 4.77275 15.8663 4.76302C15.8663 4.76302 15.9615 4.70094 16.1072 4.51828C16.1265 4.49499 16.1557 4.46977 16.1751 4.44648C16.208 4.43291 16.2857 4.39796 16.377 4.35124C16.4722 4.29889 16.579 4.22708 16.645 4.19764C16.7751 4.1394 16.913 4.14529 16.977 4.0539C17.0256 4.04033 17.0779 3.89467 17.0683 3.77051C17.1401 3.79956 17.509 4.02868 17.6354 4.52968C17.7266 4.885 17.5634 5.43259 17.4954 5.69678C17.4275 5.96097 17.4179 6.15694 17.3226 6.27726C17.2022 6.43662 16.814 6.66126 16.7187 6.77249C16.6372 6.86376 16.3926 7.0948 16.4022 7.26171C16.4119 7.386 16.5653 7.45371 16.5984 7.47726C16.6316 7.50081 16.6313 7.52974 16.6935 7.51566C16.7557 7.50158 16.7789 7.47291 16.8042 7.47291C16.8333 7.47675 16.8333 7.48264 16.8469 7.48264C16.8567 7.48234 16.8665 7.48101 16.8761 7.47867C16.8761 7.47867 16.8663 7.65544 16.4528 7.70907C16.4236 7.71304 16.3945 7.72264 16.3575 7.72852C16.4062 7.70523 16.4352 7.70523 16.4877 7.63342C16.4295 7.62369 16.2624 7.61396 16.2197 7.6004C16.2332 7.5771 16.2779 7.51489 16.3148 7.48584C16.3478 7.45678 16.3109 7.44744 16.2819 7.46254C16.2319 7.49657 16.1839 7.5335 16.1381 7.57313C16.0896 7.61588 16.0469 7.67412 15.9692 7.72673C15.9459 7.64904 15.9497 7.50145 16.0411 7.3947C16.0177 7.39854 15.973 7.46651 15.9304 7.45294C15.9227 7.38211 15.9273 7.31049 15.944 7.24123C15.9673 7.1538 16.0935 7.00046 16.0935 7.00046L16.7031 5.91105L16.8332 5.08584L15.4371 5.35707V5.35732Z" fill="#92723A"/>
<path fill-rule="evenodd" clip-rule="evenodd" d="M15.4043 5.40372C15.4043 5.40372 15.3713 5.42702 15.4373 5.47169C15.4276 5.48526 15.4043 5.53377 15.3751 5.5668C15.3422 5.6052 15.3072 5.629 15.2936 5.66203C15.2645 5.73 15.2412 5.77659 15.2412 5.80577C15.2412 5.83496 15.2315 6.02132 15.15 6.14164C15.1208 6.1844 15.0878 6.2562 15.0645 6.30472C15.016 6.39009 14.9732 6.45832 14.9635 6.49672C14.9442 6.56468 14.9306 6.75105 14.9306 6.75105C14.9306 6.75105 14.9733 6.69857 14.9888 6.67924C14.9654 6.72776 14.9402 6.78011 14.9033 6.81902C14.9266 6.79956 14.9946 6.75105 15.1091 6.65006C15.2684 6.51617 15.517 6.29089 15.8199 6.11246C15.7285 6.14548 15.651 6.14548 15.5889 6.15521C15.6374 6.1067 16.0743 5.59406 16.3034 5.54555C16.3173 5.52791 16.3242 5.50576 16.3228 5.48334L16.1266 5.46401L15.7285 5.54939L15.6704 5.24219L15.4043 5.40334V5.40372Z" fill="#B18E3E"/>
<path fill-rule="evenodd" clip-rule="evenodd" d="M16.0373 7.15106C16.0373 7.15106 15.9848 7.20341 15.9363 7.33358C15.899 7.29459 15.8669 7.25081 15.8411 7.20341C15.7693 7.08309 15.6587 6.92962 15.4004 7.01704C15.3965 6.9355 15.3907 6.89275 15.4004 6.83451C15.4431 6.82491 15.5732 6.72008 15.7032 6.56661C15.7946 6.46178 15.88 6.34133 15.9382 6.18798C15.9766 6.1588 16.0431 6.11029 16.1302 6.05397C16.2545 5.96859 16.404 5.85198 16.4273 5.72194C16.3691 5.74523 16.2448 5.80347 16.0583 5.79387C16.1302 5.76085 16.2408 5.7259 16.2273 5.58216C16.2564 5.5627 16.2797 5.54914 16.2797 5.54914C16.2579 5.54184 16.2348 5.53854 16.2118 5.53941C16.2078 5.52584 16.202 5.50651 16.169 5.51611C16.136 5.52571 16.1306 5.52584 16.1263 5.53941C16.1127 5.54338 16.068 5.53941 16.035 5.56283C16.002 5.58626 15.9107 5.6637 15.8758 5.67726C15.8893 5.65397 15.9087 5.61915 15.9087 5.61915C15.9087 5.61915 15.8136 5.62875 15.7456 5.65755C15.6213 5.7003 15.4777 5.778 15.332 5.85365C15.3456 5.83035 15.3515 5.81525 15.3611 5.8109C15.3707 5.80654 15.3941 5.8013 15.3941 5.79733C15.3941 5.79336 15.3845 5.75893 15.3903 5.74498C15.4338 5.65272 15.4852 5.56437 15.5439 5.48091C15.6118 5.38952 15.6254 5.25947 15.6254 5.25947L15.9225 5.10997L16.7574 4.91797L17.2993 4.95099L17.2313 5.32578L16.9113 5.98011L16.6375 6.57621L16.3248 6.94139L16.0374 7.15106H16.0373Z" fill="#543E26"/>
<path fill-rule="evenodd" clip-rule="evenodd" d="M17.3906 5.5299C17.3906 5.5299 17.0643 5.93374 16.973 5.99594C17.0313 5.87166 17.3906 5.13182 17.5206 4.92599C17.4916 4.9027 17.4526 4.9027 17.5439 4.54199C17.4663 4.72439 17.4391 4.81962 17.3751 4.86814C17.3111 4.91665 17.3031 4.90116 17.2599 4.90116C17.268 4.88638 17.2714 4.86942 17.2695 4.85265C17.2695 4.85265 16.9957 4.81962 16.8087 4.81962C16.6217 4.81962 16.2515 4.92062 16.0455 5.00215C15.8825 5.07012 15.7912 5.07012 15.733 5.11274C15.6747 5.16126 15.6417 5.21374 15.6125 5.2273C15.5892 5.24087 15.4786 5.27582 15.4533 5.31268C15.43 5.35108 15.3912 5.39422 15.3912 5.40394C15.3912 5.41367 15.3815 5.42737 15.4107 5.41751C15.4203 5.41367 15.4922 5.37476 15.5737 5.32625C15.6843 5.26417 15.8183 5.19236 15.9155 5.14961C16.1931 5.03889 16.2805 5.05834 16.4047 5.03505C16.5348 5.01175 16.7213 4.95735 16.8454 4.95735C16.9697 4.95351 17.2047 4.95735 17.2591 4.96708C17.2358 4.98654 17.2164 5.00983 17.2261 5.09137C17.2261 5.11466 17.2066 5.13988 17.1877 5.1962C17.1296 5.35543 17.0189 5.6195 16.9573 5.75351C16.8719 5.93591 16.7749 6.08938 16.7269 6.18449C16.6789 6.27959 16.5733 6.53009 16.4687 6.6641C16.3641 6.79812 16.3095 6.87966 16.2767 6.90884C16.2439 6.93802 16.0087 7.1107 16.0262 7.1729C16.069 7.15934 16.3389 7.0577 16.5349 6.83703C16.7309 6.61636 16.7699 6.4817 16.9232 6.36126C17.0766 6.24081 17.197 6.03895 17.2688 5.87204C17.329 5.71665 17.3154 5.66814 17.3911 5.53028L17.3906 5.5299Z" fill="#806031"/>
<path fill-rule="evenodd" clip-rule="evenodd" d="M10.3588 8.54386C10.3588 8.54386 10.3161 8.7205 10.2189 8.80793C10.1238 8.89343 9.95488 8.96716 9.93555 9.1109C9.91226 9.25452 10.1045 9.32645 10.1045 9.32645C10.1045 9.32645 9.99955 9.49925 9.99955 9.6293C9.99955 9.76332 9.99571 9.78853 10.0093 9.91666C9.99388 9.92657 9.98079 9.93966 9.97088 9.95506C9.97088 9.95506 9.98048 10.0793 10.0757 10.1569C10.1709 10.2345 10.2524 10.2812 10.3009 10.2617C10.3083 10.2776 10.3148 10.2938 10.3203 10.3104C10.3203 10.3104 10.3923 10.1279 10.4408 9.96863C10.4893 9.80556 10.532 9.82873 10.5514 9.60933C10.5707 9.38994 10.7818 9.01324 10.7818 9.01324L10.9258 8.69132L10.6909 8.50879L10.3588 8.54373V8.54386Z" fill="#B6903C"/>
<path fill-rule="evenodd" clip-rule="evenodd" d="M10.7962 8.86035C10.7477 8.91007 10.703 8.96329 10.6624 9.01958C10.6003 9.10509 10.5518 9.18266 10.4605 9.21581C10.3693 9.24896 10.311 9.2487 10.3168 9.3401C10.3226 9.43149 10.4081 9.47014 10.4566 9.51674C10.5091 9.56525 10.5518 9.64678 10.5285 9.73818C10.5576 9.72461 10.61 9.70899 10.6586 9.60416C10.7071 9.49933 11.0464 8.86048 11.0464 8.86048H10.7962V8.86035Z" fill="#685026"/>
<path fill-rule="evenodd" clip-rule="evenodd" d="M12.1343 7.38651C12.1343 7.38651 12.1633 7.30894 12.1343 7.25262C12.1051 7.19438 11.9284 7.17492 11.841 7.10888C11.7497 7.04091 11.639 6.99368 11.5478 7.0235C11.5613 6.99048 11.6157 6.91854 11.5711 6.90305C11.5283 6.88948 11.3692 6.96129 11.3264 6.99432C11.2837 7.02734 11.1865 7.06612 11.1672 7.08955C11.1479 7.11297 11.1147 7.15752 11.0953 7.13806C11.0758 7.12449 11.0662 7.08955 11.0332 7.10888C11.0002 7.1282 10.8412 7.25838 10.8119 7.33416C10.7826 7.40993 10.7167 7.57889 10.5186 7.77102C10.3206 7.96315 10.2351 8.08756 10.2934 8.15937C10.3516 8.23118 10.3789 8.17883 10.3886 8.24091C10.3961 8.30185 10.3928 8.36363 10.3789 8.42344C10.3556 8.52443 10.3168 8.61953 10.3691 8.63899C10.5031 8.68174 10.6333 8.60059 10.6624 8.62542C10.7206 8.67777 10.6294 8.86619 10.7672 8.90305C10.9071 8.94145 11.045 8.87003 11.045 8.87003L11.5536 8.59624L12.043 8.33806L12.2934 7.84283L12.1591 7.42926L12.1335 7.38651H12.1343Z" fill="#D4B968"/>
<path fill-rule="evenodd" clip-rule="evenodd" d="M11.6539 8.56879C11.6539 8.56879 11.5684 8.43874 11.6734 8.32405C11.7783 8.20936 11.9277 8.16098 11.986 8.08917C11.9749 8.07549 11.96 8.06539 11.9432 8.06011C11.9819 7.99093 12.0408 7.9353 12.1122 7.90075C12.0831 7.8717 12.0442 7.8484 12.0016 7.8484C11.9063 7.8484 11.848 7.90664 11.7607 7.90664C11.6753 7.90664 11.6656 7.86389 11.6656 7.86389C11.6656 7.86389 11.8093 7.85032 11.7956 7.78619C11.7821 7.71823 11.7572 7.71823 11.7572 7.71823C11.7572 7.71823 12.0349 7.60303 12.0834 7.54159C12.1319 7.48015 12.1261 7.40757 12.1358 7.37851C12.1687 7.37851 12.361 7.27752 12.4387 7.32027C12.5164 7.36303 12.462 7.47951 12.462 7.47951C12.462 7.47951 12.6971 7.30274 12.8169 7.12943C12.9218 7.13915 12.9705 7.05762 13.0473 7.05762C13.1426 7.05762 13.2921 7.18767 13.3211 7.4653C13.3406 7.62453 13.3696 7.71579 13.3406 7.99739C13.327 8.15663 13.3309 8.49659 13.379 8.6653C13.4119 8.79931 13.4896 8.78575 13.4896 8.78575C13.4777 8.82658 13.454 8.86303 13.4216 8.89058C13.3691 8.93909 13.3634 9.06735 13.3691 9.11586C13.3769 9.15132 13.3866 9.18633 13.3983 9.22069C13.3983 9.22069 13.3362 9.2925 13.3206 9.34114C13.307 9.38965 13.243 9.42267 13.1963 9.42267C13.1496 9.42267 13.173 9.41871 13.111 9.42267C13.0489 9.42664 13.0294 9.43624 12.9905 9.42267C12.9516 9.40911 12.9225 9.39349 12.9382 9.26907C12.9517 9.14479 12.4585 8.85551 12.4585 8.85551L11.6521 8.56815L11.6539 8.56879Z" fill="#CCA849"/>
<path fill-rule="evenodd" clip-rule="evenodd" d="M10.7282 9.79624C10.7282 9.79624 10.9048 10.0313 11.6311 10.0313C11.9767 10.0313 12.0971 9.99823 12.1687 9.97877C12.2464 9.95932 12.5376 9.84488 12.8308 9.49916C13.0949 9.18658 13.0367 9.05845 13.0367 9.05845L12.8831 9.03516L12.3839 9.10312L10.9067 9.73224L10.7275 9.79624H10.7282Z" fill="#585136"/>
<path fill-rule="evenodd" clip-rule="evenodd" d="M11.2697 9.85396C11.2697 9.85396 10.6406 9.99387 10.6406 9.59579C10.6406 9.20743 11.029 8.79963 11.1261 8.72782C11.2271 8.65588 11.4679 8.57422 11.4679 8.57422H12.0485L12.1591 8.86747L12.1106 9.50043L11.2697 9.85383V9.85396Z" fill="#252211"/>
<path fill-rule="evenodd" clip-rule="evenodd" d="M11.8508 8.69286C11.8508 8.69286 11.7305 8.58214 11.4567 8.73126C11.1829 8.88038 10.9614 9.19206 10.9479 9.47507C10.9343 9.72543 11.1537 9.91193 11.4954 9.92166C11.7498 9.93126 11.9033 9.9022 11.9809 9.88326C11.9615 9.85996 11.8605 9.73375 11.8605 9.73375L11.8509 8.69299L11.8508 8.69286Z" fill="#C3B378"/>
<path fill-rule="evenodd" clip-rule="evenodd" d="M11.7321 8.75485C11.7321 8.75485 11.7031 8.73155 11.6169 8.77814C11.5451 8.81654 11.4403 8.91805 11.3588 8.98986C11.3063 9.03261 11.2733 9.05194 11.2436 9.08496C11.1231 9.2287 11.0221 9.46371 11.0805 9.58019C11.1389 9.69667 11.331 9.83069 11.8203 9.73942L11.7307 8.75498L11.7321 8.75485Z" fill="#E6D89C"/>
<path fill-rule="evenodd" clip-rule="evenodd" d="M11.5726 8.99562C11.5726 8.99562 11.4949 9.11607 11.4949 9.30833C11.4949 9.50442 11.6056 9.817 12.0134 9.8403C12.326 9.85975 12.5357 9.38986 12.7629 9.20734C12.9357 9.06756 13.0405 9.06359 13.0405 9.06359C13.0405 9.06359 12.8639 8.87159 12.3921 8.62289C11.926 8.37239 11.4036 8.33937 11.1201 8.72388C11.2541 8.71415 11.6872 8.60343 11.6872 8.60343L11.8989 8.6714L11.5726 8.99575V8.99562Z" fill="#252211"/>
<path fill-rule="evenodd" clip-rule="evenodd" d="M12.1827 9.24975C12.1692 9.2207 12.1594 9.18179 12.2158 9.17219C12.2721 9.16259 12.2973 9.16822 12.3167 9.21059C12.3362 9.25295 12.3551 9.28828 12.3263 9.30582C12.2973 9.32131 12.2215 9.30582 12.1826 9.2495L12.1827 9.24975ZM12.0916 8.97599C12.0916 8.97599 12.0721 8.98956 12.0818 8.96243C12.0857 8.92953 12.111 8.87116 12.1731 8.88486C12.2352 8.89855 12.2217 8.96639 12.2115 8.98585C12.2012 9.00531 12.1494 9.0382 12.1105 9.02425C12.1005 9.02169 12.0923 9.01451 12.0885 9.00493C12.0846 8.99534 12.0856 8.9845 12.091 8.97574L12.0916 8.97599Z" fill="#6F674D"/>
<path fill-rule="evenodd" clip-rule="evenodd" d="M6.83496 9.10083C6.83496 9.10083 6.98856 9.21603 7.16699 9.21155C7.34363 9.20758 7.57083 9.02518 7.67566 8.90858C7.73774 8.84061 7.79087 8.7688 7.84846 8.71248C7.8971 8.66397 7.93 8.64067 7.9533 8.60765C7.98632 8.56925 8.02126 8.49706 8.0388 8.47363C7.99605 8.50666 7.93397 8.56502 7.86984 8.60381C7.80776 8.64221 7.67374 8.7144 7.61934 8.73386C7.56699 8.75331 7.02325 9.04106 7.02325 9.04106L6.83496 9.10083Z" fill="#AC924C"/>
<path fill-rule="evenodd" clip-rule="evenodd" d="M7.07031 7.66613C7.07031 7.66613 7.15569 7.60789 7.32081 7.5709C7.48004 7.5325 7.80042 7.50293 7.80042 7.50293L8.06449 7.61813L8.16932 8.01621L7.97732 8.42991L7.73271 8.58351L7.45495 8.13691L7.07095 7.6669L7.07031 7.66613Z" fill="#9F8E57"/>
<path fill-rule="evenodd" clip-rule="evenodd" d="M6.7242 8.02175L6.63281 8.08997C6.63281 8.08997 6.65624 8.04722 6.67556 7.91717C6.69489 7.78712 6.79601 7.47058 6.9436 7.28805C7.09118 7.10552 7.08734 7.11525 7.08734 7.11525C7.05987 7.11023 7.03156 7.11727 7.00964 7.13458C7.0291 7.09157 7.15339 6.93797 7.27768 6.86117C7.40196 6.78437 7.45048 6.76018 7.58052 6.82277C7.71057 6.88536 7.7436 6.91787 7.83883 6.91403C7.93406 6.91019 8.01547 6.8092 8.01547 6.8092C8.01547 6.8092 8.03492 6.87128 7.96312 7.01503C7.89131 7.15877 7.60779 7.45189 7.60779 7.45189L7.01745 7.85573L6.7242 8.02213V8.02175Z" fill="#EAC970"/>
<path fill-rule="evenodd" clip-rule="evenodd" d="M7.16067 7.61724C7.16067 7.61724 7.58793 7.67548 7.71798 7.55516C7.72182 7.56873 7.73744 7.56873 7.73744 7.57846C7.73639 7.58579 7.73297 7.59258 7.72771 7.59779C7.74185 7.59553 7.75614 7.59425 7.77046 7.59395C7.78756 7.59904 7.80515 7.6023 7.82294 7.60368C7.83727 7.60337 7.85155 7.60204 7.86569 7.59971C7.86297 7.61921 7.85243 7.63676 7.83651 7.64835C7.85596 7.64835 7.87491 7.65219 7.87491 7.66768C7.87491 7.68316 7.87875 7.72988 7.85545 7.73961C7.83615 7.74495 7.81561 7.74355 7.79721 7.73564C7.79875 7.77241 7.80874 7.80832 7.8264 7.8406C7.8648 7.91241 7.94672 7.9942 8.0568 7.97065C8.0568 7.97065 8.11491 8.11043 7.8703 8.42108C7.8374 8.46384 7.80233 8.52208 7.75971 8.57059C7.74287 8.6073 7.72999 8.6457 7.72131 8.68515C7.72131 8.68515 8.135 8.52592 8.2534 8.16278C8.37385 7.79772 8.39715 7.43856 8.37385 7.10268C8.36988 7.00745 8.3544 6.93961 8.3311 6.89097C8.27286 6.77052 8.10966 6.78998 8.04374 6.85795C7.94851 6.95318 7.78928 7.18998 7.56796 7.35305C7.34268 7.51612 7.33308 7.54505 7.16016 7.61724H7.16067Z" fill="#D7BC6B"/>
<path fill-rule="evenodd" clip-rule="evenodd" d="M6.64903 8.14155C6.64903 8.14155 6.5675 8.19007 6.52474 8.37195C6.48199 8.55832 6.56314 8.78552 6.61012 8.85733C6.6571 8.92914 6.76372 9.12536 6.9849 9.13509C7.03965 9.1348 7.09379 9.12357 7.14414 9.10207C7.22135 9.06666 7.29378 9.02163 7.35969 8.96805C7.45492 8.89624 7.53249 8.83416 7.52276 8.82827C7.49946 8.81855 6.93639 8.3525 6.93639 8.3525L6.72468 8.11621L6.6489 8.14181L6.64903 8.14155Z" fill="#585136"/>
<path fill-rule="evenodd" clip-rule="evenodd" d="M7.1804 8.91461C7.1804 8.91461 7.29496 8.90501 7.36292 8.86225C7.43089 8.8195 6.96484 8.35742 6.96484 8.35742L6.99787 8.85662L7.1804 8.91461Z" fill="#453A25"/>
<path fill-rule="evenodd" clip-rule="evenodd" d="M6.68516 8.10703C6.68516 8.10703 6.62692 8.21775 6.62692 8.24694C6.61719 8.34204 6.64638 8.64105 6.66967 8.73615C6.69297 8.83714 6.81918 8.99049 6.98238 8.99049C7.08324 8.99049 7.22315 8.92841 7.22315 8.91292C7.22315 8.89346 7.0794 8.87452 7.04062 8.8022C7.01732 8.7638 7.00759 8.66831 7.00222 8.5718C6.99838 8.50972 6.99838 8.44175 7.02167 8.4182C7.07415 8.35996 7.08375 8.19292 7.08375 8.19292L7.27012 7.84668H7.025L6.73175 8.02921L6.68516 8.10703Z" fill="#84754B"/>
<path fill-rule="evenodd" clip-rule="evenodd" d="M6.61328 8.21374C6.61328 8.21374 6.80528 7.9594 6.97834 7.90103C7.15139 7.84267 7.22883 7.87774 7.22883 7.87774L7.12784 8.13604L6.9841 8.29527L6.99383 8.37681C6.99383 8.37681 6.9704 8.59236 7.11415 8.74187C7.25789 8.89137 7.36464 8.88561 7.42685 8.88561C7.48906 8.88561 7.66762 8.83313 7.75888 8.61758C7.84042 8.41572 7.90839 8.15678 7.74531 7.89719C7.58595 7.63889 7.30448 7.62891 7.25008 7.62891C7.19568 7.62891 6.76855 7.65028 6.61328 8.21335V8.21374Z" fill="#252211"/>
<path fill-rule="evenodd" clip-rule="evenodd" d="M11.5433 9.07783C11.4714 9.0448 11.5394 8.84295 11.6112 8.78074C11.683 8.71853 11.7743 8.64685 11.9337 8.63699C11.9918 8.63315 12.0481 8.67002 12.0385 8.70893C12.0249 8.78074 11.9239 8.88173 11.8327 8.95354C11.7065 9.05261 11.6248 9.11469 11.5433 9.07783Z" fill="#F7F7E7"/>
<path fill-rule="evenodd" clip-rule="evenodd" d="M7.66042 7.9768C7.7129 7.97296 7.78087 8.0152 7.79444 8.07204C7.808 8.13412 7.76141 8.2584 7.66042 8.2584C7.57888 8.2584 7.53613 8.15741 7.53613 8.12836C7.53705 8.10446 7.54373 8.08115 7.55559 8.06039C7.55943 8.0545 7.56916 7.98653 7.66042 7.9768Z" fill="#F8F6DE"/>
<path fill-rule="evenodd" clip-rule="evenodd" d="M6.90329 8.02148C6.90329 8.02148 6.76927 8.08356 6.70719 8.21348C6.66283 8.30942 6.64941 8.41678 6.66879 8.52068C6.67852 8.5692 6.72703 8.68952 6.76006 8.73227C6.79308 8.77502 6.83775 8.8042 6.87078 8.80024C6.9038 8.79627 6.97164 8.70897 6.97164 8.65662C6.97164 8.60427 6.97561 8.38283 7.03961 8.26238C7.09593 8.14206 6.90367 8.02161 6.90367 8.02161L6.90329 8.02148Z" fill="#D4C38B"/>
<path fill-rule="evenodd" clip-rule="evenodd" d="M6.92214 8.01193C6.89885 8.0255 6.86006 8.04496 6.86966 8.07017C6.87939 8.09347 6.96093 8.10857 6.99011 8.16541C7.02313 8.22365 7.02313 8.28573 7.01341 8.31491C7.03877 8.30286 7.06178 8.28639 7.08137 8.26627C7.12413 8.21776 7.17648 8.15184 7.22115 8.15184C7.25033 8.15184 7.27939 8.16541 7.30665 8.16541C7.34941 8.16541 7.39203 8.15184 7.39792 8.10717C7.40752 8.04893 7.31638 7.99645 7.2639 8.00617C7.27363 7.96777 7.2872 7.91107 7.24445 7.87216C7.20169 7.83325 7.06781 7.90134 7.03862 7.9208C7.00944 7.94025 6.92214 8.01206 6.92214 8.01206V8.01193Z" fill="#E2D59D"/>
<path fill-rule="evenodd" clip-rule="evenodd" d="M10.0082 12.0917L10.2955 12.0068L10.3771 12.0651C10.3771 12.0651 10.4352 12.1894 10.5266 12.2049C10.4974 12.2669 10.4216 12.3201 10.4256 12.3641C10.4295 12.4081 10.4683 12.4418 10.4683 12.4418C10.4683 12.4418 10.21 12.8689 10.7188 13.2994C10.5984 13.3479 10.445 13.4146 10.3635 13.453C10.4216 13.4665 10.5459 13.4914 10.5984 13.5385C10.6509 13.5856 10.6509 13.6006 10.6994 13.6297C10.7479 13.6589 10.7769 13.6977 10.7673 13.7151C10.7343 13.6957 10.6236 13.6376 10.6043 13.6918C10.5849 13.7461 10.1246 13.7249 10.1246 13.7249L9.34795 13.8744C9.34795 13.8744 9.377 13.7967 9.29547 13.7249C9.20036 13.6395 9.08388 13.7287 8.95959 13.6336C8.79652 13.5093 8.79063 13.3656 8.73828 13.3113C8.79063 13.2783 8.89751 13.2297 9.15185 13.1961C9.14212 13.1766 9.1091 13.1184 9.12855 13.066C9.15185 12.9981 9.24887 12.9553 9.21982 12.874C9.26257 12.8643 9.2819 12.8643 9.38878 12.7303C9.48977 12.5963 9.55185 12.5672 9.62955 12.5575C9.70724 12.5478 9.75383 12.5575 9.89758 12.4235C9.99844 12.3284 9.96555 12.2468 9.96555 12.2468C9.96555 12.2468 10.0315 12.2255 10.0083 12.0914L10.0082 12.0917Z" fill="#CBAC5A"/>
<path fill-rule="evenodd" clip-rule="evenodd" d="M9.15963 12.1347C9.16347 12.1152 9.17908 12.1055 9.28392 12.1152C9.38875 12.1249 10.0528 12.0531 10.2334 12.0434C10.4159 12.0298 11.0586 12.0394 11.3713 12.1055C11.684 12.1715 12.0005 12.2492 12.1538 12.288C12.3074 12.3308 12.3558 12.3461 12.3499 12.3656C12.3461 12.385 12.3115 12.404 12.2917 12.3986C12.2723 12.3948 11.7635 12.2394 11.6063 12.2066C11.4492 12.1738 10.9053 12.0862 10.6079 12.0914C10.3303 12.0954 10.2196 12.0876 9.98472 12.1147C9.74971 12.1439 9.36136 12.1827 9.24488 12.1672C9.12968 12.1536 9.15348 12.1536 9.15937 12.1342L9.15963 12.1347Z" fill="#D6BC6F"/>
<path fill-rule="evenodd" clip-rule="evenodd" d="M10.7226 13.6559C10.7226 13.6559 11.1206 13.8715 11.2644 14.1356C11.3692 14.3317 11.2023 14.4288 11.2023 14.4288C11.2023 14.4288 11.4276 14.4288 11.3984 14.5531C11.3848 14.6307 11.0101 14.8403 10.7596 14.951C10.5052 15.0618 10.515 15.056 10.3907 15.0753C10.2702 15.0948 9.9401 15.0369 9.87214 15.1336C9.80417 15.2302 9.83374 15.3298 9.85268 15.3453C9.87214 15.3589 10.0294 15.3783 10.0294 15.3783C10.0294 15.3783 9.99642 15.4696 9.67028 15.4793C9.34414 15.489 9.26247 15.5122 9.24302 15.5473C9.22356 15.5802 9.3051 15.5608 9.45473 15.5857C9.60423 15.609 9.8139 15.6241 9.8139 15.6241C9.8139 15.6241 9.74593 15.6823 9.56929 15.7289C9.3673 15.7813 9.05076 15.8299 8.95566 15.8881C9.00417 15.9212 9.0761 15.9697 9.10926 15.9735C9.02772 15.993 8.91303 16.0357 8.8937 16.0512C8.92276 16.0707 8.96167 16.094 8.96167 16.094C8.96167 16.094 8.79847 16.2901 8.70337 16.3387C8.60826 16.3873 8.06068 16.6415 7.87226 16.593C7.40238 16.4687 7.34414 15.9542 7.22958 15.9154C7.05678 15.8572 6.97524 15.9735 6.82177 15.892C6.88974 15.8435 6.92673 15.8144 6.99854 15.7814C6.92084 15.743 6.51892 15.4881 6.51892 15.4881C6.47689 15.3965 6.43024 15.3071 6.37914 15.2202C6.30145 15.0862 6.18714 14.9075 6.10138 14.7502C5.91502 14.4046 5.90529 14.2454 5.73633 14.0493C5.76551 14.0109 5.86638 14.0163 5.86638 14.0163L7.28206 14.4823L9.79226 14.555L10.4451 13.623L10.7227 13.6561L10.7226 13.6559Z" fill="#DFC677"/>
<path fill-rule="evenodd" clip-rule="evenodd" d="M7.00391 15.0776C7.01905 15.0945 7.03671 15.1089 7.05626 15.1204C7.1049 15.1534 7.17671 15.1923 7.22522 15.2504C7.24467 15.2213 7.29319 15.1689 7.37882 15.2504C7.46445 15.3319 7.57082 15.2738 7.63699 15.2932C7.70496 15.3166 7.7088 15.3262 7.7088 15.3262C7.7088 15.3262 7.7472 15.2932 7.83309 15.2582C7.88557 15.2388 7.94765 15.2252 8.01562 15.2059C8.0777 15.1923 8.14567 15.1728 8.19239 15.1728C8.23514 15.2019 8.38848 15.3648 9.00403 15.1243C9.58464 14.899 9.71853 14.8738 9.81568 14.9086C9.82541 14.8853 9.83514 14.8407 9.98464 14.8466C9.98464 14.7845 9.86035 14.5728 9.86035 14.5728L9.17491 14.3379H8.8L7.67578 14.5437L7.0528 14.8992L7.00429 15.0784L7.00391 15.0776Z" fill="#C4A859"/>
<path fill-rule="evenodd" clip-rule="evenodd" d="M6.62891 14.6839C6.62891 14.6839 6.64247 14.7888 6.79787 14.8995C6.95147 15.0101 6.99972 15.0761 6.99972 15.0761C6.99972 15.0761 7.02891 15.0377 7.0522 14.9986C7.0755 14.9558 7.09495 14.9073 7.13374 14.8937C7.21143 14.8607 7.38807 14.9228 7.42699 14.9131C7.46001 14.9035 7.45028 14.8355 7.48523 14.8355C7.56676 14.8315 7.61911 14.8878 7.6483 14.8878C7.67748 14.8878 7.74916 14.884 7.75889 14.8685C7.76862 14.853 7.77246 14.6917 7.88318 14.614C8.00363 14.5287 8.15121 14.5655 8.19038 14.585C8.19038 14.614 8.19422 14.686 8.27191 14.6898C8.34961 14.6937 8.35729 14.6801 8.42551 14.7034C8.49374 14.7267 8.57502 14.6996 8.61188 14.814C8.64491 14.8044 8.7226 14.7947 8.70315 14.6839C8.74155 14.6549 8.77508 14.6354 8.85675 14.5209C8.8762 14.4918 8.9091 14.4588 8.93444 14.416C9.00241 14.416 9.08395 14.4025 9.19262 14.4976C9.15959 14.5209 9.14014 14.536 9.13054 14.5596C9.15896 14.5878 9.18491 14.6183 9.20811 14.6509C9.23729 14.6893 9.25675 14.7364 9.29361 14.7461C9.37515 14.7694 9.50916 14.7364 9.65867 14.7461C9.80241 14.7559 9.92273 14.8082 9.97521 14.8412C9.99467 14.8316 9.99467 14.8277 10.0432 14.8374C10.0917 14.8471 10.1286 14.851 10.0762 14.7889C10.1053 14.8025 10.1383 14.8316 10.1675 14.8025C10.1967 14.7733 10.2198 14.7307 10.3014 14.7209C10.3829 14.7112 10.4121 14.7248 10.4451 14.6394C10.4879 14.5346 10.3403 14.5346 10.3403 14.5346C10.3403 14.5346 10.4082 14.4724 10.484 14.3908C10.5753 14.3054 10.6801 14.1947 10.7053 14.0588C10.7481 13.8083 10.5035 13.7754 10.5035 13.7754L9.31703 14.1404L7.86654 14.0685L6.62967 14.6841L6.62891 14.6839Z" fill="#927D49"/>
<path fill-rule="evenodd" clip-rule="evenodd" d="M5.56326 11.2568C5.56326 11.2568 5.52486 11.3053 5.50118 11.4198C5.4775 11.5344 5.48761 11.5208 5.46815 11.6024C5.4487 11.6839 5.20972 12.4956 5.29932 12.7693C5.38892 13.0431 5.54406 13.1441 5.64108 13.3654C5.66054 13.414 5.67948 13.4431 5.68959 13.4859C5.72262 13.6295 5.69356 13.7402 5.73235 13.884C5.74591 13.9325 5.78099 13.9888 5.83334 14.047C5.94854 14.1674 6.13631 14.2819 6.21734 14.3635C6.33177 14.4839 6.49497 14.7286 6.70271 14.7518C6.81343 14.7654 6.97075 14.7188 7.10079 14.6412C7.21599 14.5693 7.28716 14.4684 7.40799 14.4108C7.49337 14.3681 7.58463 14.3526 7.66617 14.3331C7.83513 14.3001 7.9886 14.2947 8.07987 14.3137C8.21964 14.3428 8.54975 14.4438 8.73267 14.4438C8.87559 14.4415 9.01772 14.422 9.15596 14.3856C9.43359 14.3041 9.76947 14.1642 9.99091 14.1021C10.121 14.0637 10.2258 14.0536 10.3327 14.0303C10.5152 13.9875 10.6685 13.9293 10.756 13.8186C10.6977 13.7506 10.6259 13.6458 10.2374 13.6496C9.79673 13.6593 9.28793 13.9039 9.03743 13.9428C8.78694 13.9818 8.67827 14.0147 8.39859 13.9137C8.12441 13.8116 8.11532 13.7442 8.11532 13.7442C8.11532 13.7442 7.82745 13.5428 7.707 13.0296C7.58655 12.5163 7.707 12.1423 8.01971 11.7868C8.10124 11.6956 8.08179 11.614 8.08179 11.614C8.08179 11.614 8.28761 11.3364 8.23129 11.0764C8.16921 10.8181 7.77113 10.8706 7.77113 10.8706L5.56339 11.2568H5.56326Z" fill="#6E6342"/>
<path fill-rule="evenodd" clip-rule="evenodd" d="M5.89563 12.1201C5.87851 12.1523 5.87046 12.1885 5.87234 12.2249C5.87618 12.2773 5.89179 12.3453 6.04898 12.4987C6.18299 12.6326 6.15381 12.7821 6.15381 12.7821C6.15381 12.7821 6.22126 12.7957 6.4043 12.7101C6.54805 12.6421 6.5963 12.7625 6.5963 12.7625C6.63815 12.7406 6.6835 12.7261 6.73032 12.7198C6.77274 12.7159 6.8138 12.7028 6.85064 12.6814C6.85064 12.6814 7.0196 12.8542 7.16718 12.9357C7.3012 13.0077 7.3789 13.0562 7.44494 13.0077C7.50702 12.9649 7.50702 12.8775 7.50306 12.8387C7.48765 12.8029 7.46815 12.769 7.44494 12.7377C7.40219 12.6756 7.33422 12.6037 7.32974 12.5457C7.32002 12.4118 7.43074 12.2525 7.40731 12.2137C7.38389 12.1749 7.29672 12.1652 7.08117 12.2429C6.85794 12.3166 5.89474 12.1205 5.89474 12.1205L5.89563 12.1201Z" fill="#39331F"/>
<path fill-rule="evenodd" clip-rule="evenodd" d="M6.40427 12.9887C6.40427 12.9887 6.29368 12.8839 6.33247 12.3751C6.37942 12.3744 6.4263 12.3789 6.47224 12.3886C6.47224 12.3886 6.53253 12.7829 6.40427 12.9887Z" fill="#292311"/>
<path fill-rule="evenodd" clip-rule="evenodd" d="M5.61577 10.8677C5.6312 10.8562 5.64552 10.8434 5.65852 10.8293C5.62012 10.9011 5.44284 11.1884 5.58659 11.6409C5.73033 12.0913 6.09142 12.4272 6.53609 12.4428C6.98076 12.4584 7.21449 12.2408 7.48175 11.9147C7.58659 11.7846 7.70703 11.6214 7.81379 11.5109C7.97302 11.3379 8.09731 11.2894 8.09731 11.1225C8.09731 10.7807 7.74774 10.6273 7.23318 10.4739C6.71862 10.3206 6.25449 10.3395 6.01372 10.4445C5.77884 10.5589 5.67785 10.6794 5.61564 10.8678L5.61577 10.8677Z" fill="#252211"/>
<path fill-rule="evenodd" clip-rule="evenodd" d="M7.26796 13.1417L7.30636 13.1222C7.30636 13.1222 7.31596 12.9686 7.37817 12.9727C7.44025 12.9825 7.46943 13.0641 7.46355 13.0932C7.45971 13.1222 7.44422 13.1709 7.38201 13.165C7.30047 13.1669 7.26758 13.1417 7.26758 13.1417H7.26796Z" fill="#3F3824"/>
<path fill-rule="evenodd" clip-rule="evenodd" d="M7.09473 12.4891C7.09473 12.4891 7.13313 12.4756 7.1801 12.5222C7.2185 12.5222 7.38593 12.5027 7.43841 12.5357C7.49089 12.5688 7.50637 12.5978 7.50637 12.5978C7.50637 12.5978 7.31028 12.6406 7.2034 12.5978C7.09473 12.561 7.09473 12.4891 7.09473 12.4891H7.09473Z" fill="#2D2815"/>
<path fill-rule="evenodd" clip-rule="evenodd" d="M7.95976 12.5189C7.95976 12.5092 7.85493 12.4373 7.74421 12.4139C7.72475 12.4101 7.72079 12.4236 7.70581 12.4236C7.69608 12.4198 7.69224 12.3906 7.69224 12.3906L7.62927 12.4238C7.62927 12.4238 7.61954 12.4373 7.65256 12.4622C7.68162 12.4855 7.73026 12.5049 7.74383 12.5437C7.75739 12.5825 7.75739 12.5961 7.76328 12.602C7.76712 12.6058 7.83509 12.602 7.86811 12.5825C7.90114 12.563 7.96335 12.5313 7.95938 12.5185L7.95976 12.5189Z" fill="#82764F"/>
<path fill-rule="evenodd" clip-rule="evenodd" d="M6.97852 12.9128C6.97852 12.9128 6.99784 12.7789 7.12802 12.773C7.26191 12.7633 7.28725 12.8933 7.28725 12.8933L7.20956 12.971C7.20956 12.9691 7.15132 12.8875 6.97916 12.9128H6.97852Z" fill="#2D2816"/>
<path fill-rule="evenodd" clip-rule="evenodd" d="M7.82374 12.3358C7.82374 12.3358 7.75181 12.4135 7.5927 12.4368C7.57913 12.4173 7.54995 12.3785 7.5927 12.3164C7.63545 12.2544 7.68397 12.2349 7.73248 12.2542C7.77618 12.2613 7.8118 12.2931 7.82374 12.3358Z" fill="#574F35"/>
<path fill-rule="evenodd" clip-rule="evenodd" d="M8.1159 12.4313C8.11987 12.4118 8.1063 12.408 8.1159 12.3982C8.1255 12.3885 8.17811 12.3692 8.18784 12.3788C8.19168 12.3827 8.18784 12.3982 8.18784 12.4172C8.18784 12.4361 8.18784 12.4556 8.17811 12.4695C8.16454 12.489 8.12576 12.4987 8.1063 12.493C8.08685 12.4872 8.08301 12.4599 8.08301 12.4546C8.09261 12.4507 8.1159 12.441 8.1159 12.4313ZM8.44746 12.2216C8.44746 12.2118 8.48048 12.1924 8.49994 12.1924C8.529 12.1924 8.529 12.2157 8.53296 12.2216C8.54256 12.2254 8.54256 12.2176 8.55229 12.2351C8.56202 12.2527 8.57572 12.2836 8.56586 12.3031C8.556 12.3226 8.51735 12.336 8.50775 12.3322C8.49418 12.3224 8.45143 12.2351 8.44746 12.2216Z" fill="#82764F"/>
<path fill-rule="evenodd" clip-rule="evenodd" d="M7.78027 12.4757C7.78027 12.4757 7.82303 12.4853 7.88127 12.534C7.86181 12.5475 7.83263 12.563 7.83263 12.563C7.83263 12.563 7.82879 12.5183 7.78027 12.4756V12.4757Z" fill="#6E6342"/>
<path fill-rule="evenodd" clip-rule="evenodd" d="M7.68611 12.0479C7.67638 12.0383 7.71516 12.015 7.73846 12.0188C7.76175 12.0227 7.77148 12.0383 7.7967 12.0421C7.82191 12.046 7.82588 12.0324 7.8351 12.0227C7.84431 12.0129 7.87785 12.0188 7.88361 12.0227C7.8872 12.0269 7.89045 12.0315 7.89334 12.0362C7.89416 12.0213 7.90116 12.0074 7.91267 11.9978C7.92776 11.9868 7.94708 11.9832 7.96515 11.9881C7.96899 12.0017 7.98844 12.0502 7.9846 12.0599C7.98076 12.0696 7.92252 12.0833 7.91267 12.0735C7.92239 12.0969 7.96515 12.1454 7.97091 12.155C7.97667 12.1646 7.92815 12.188 7.90883 12.1842C7.88169 12.1823 7.71465 12.0851 7.68559 12.0483L7.68611 12.0479ZM7.94039 11.7256C7.9368 11.7158 7.92992 11.7076 7.92094 11.7023C7.90737 11.6985 7.8627 11.7023 7.8627 11.7256C7.8627 11.7489 7.9011 11.8792 7.94423 11.947C7.99287 12.015 8.02577 12.0712 8.05879 12.0868C8.0803 12.0966 8.10573 12.0881 8.11703 12.0674C8.12087 12.0576 8.1306 11.9858 8.12676 11.8169C8.12292 11.6479 8.11703 11.4848 8.1073 11.4751C8.09758 11.4654 8.05879 11.4655 8.04522 11.4848C8.03166 11.5042 7.94423 11.6965 7.94026 11.7256H7.94039Z" fill="#585136"/>
<path fill-rule="evenodd" clip-rule="evenodd" d="M7.7675 12.7201C7.7675 12.7201 7.69953 12.6773 7.63348 12.7065C7.5714 12.7357 7.57524 12.8502 7.57524 12.8502C7.6036 12.8613 7.63561 12.8577 7.66075 12.8405C7.7035 12.8114 7.75777 12.7629 7.7675 12.7202V12.7201Z" fill="#574F35"/>
<path fill-rule="evenodd" clip-rule="evenodd" d="M7.89582 12.8741C7.89198 12.8357 7.85742 12.8357 7.85742 12.8158C7.86232 12.7963 7.87992 12.7827 7.90005 12.7828C7.9195 12.7828 7.93845 12.8061 7.96225 12.8212C7.98555 12.8348 8.02049 12.8596 8.02433 12.8892C8.02817 12.9187 7.98593 12.9998 7.93896 12.9998C7.89198 12.9998 7.90593 12.9123 7.89621 12.8736L7.89582 12.8741ZM8.27068 12.8216C8.27068 12.8216 8.19298 12.8449 8.19874 12.8216C8.2045 12.7983 8.22217 12.7925 8.24738 12.7925C8.26019 12.7791 8.27743 12.7708 8.29589 12.7691C8.30646 12.7686 8.31683 12.772 8.32495 12.7788C8.32495 12.7788 8.37743 12.7555 8.39292 12.7691C8.40841 12.7827 8.39689 12.7827 8.40649 12.7983C8.41871 12.8156 8.42673 12.8355 8.42991 12.8565C8.42991 12.872 8.37167 12.905 8.32495 12.8993C8.27068 12.8876 8.28028 12.8313 8.27068 12.8216ZM8.7229 12.7341C8.7229 12.7341 8.74619 12.7477 8.72686 12.7633C8.7133 12.7769 8.64533 12.8017 8.58696 12.8061C8.52872 12.8061 8.47637 12.8157 8.47637 12.7963C8.47637 12.777 8.52488 12.7381 8.55394 12.7284C8.56574 12.7136 8.58366 12.705 8.60258 12.7051C8.62587 12.7051 8.71701 12.6954 8.74235 12.6915C8.76565 12.6875 8.7851 12.7011 8.77141 12.7206C8.76565 12.7341 8.7229 12.7341 8.7229 12.7341ZM8.85688 12.1346C8.85688 12.1346 8.8277 12.1967 8.7948 12.1967C8.76178 12.1929 8.76178 12.1831 8.76178 12.1734C8.76178 12.1598 8.7948 12.1249 8.79083 12.1152C8.78123 12.1152 8.75781 12.1152 8.76178 12.0919C8.76178 12.0724 8.7948 12.0491 8.82386 12.0535C8.84581 12.0354 8.87315 12.0252 8.90155 12.0244C8.93458 12.0244 8.96363 12.034 8.96363 12.0535C8.96363 12.0729 8.92523 12.1156 8.91115 12.1254C8.89566 12.1409 8.87621 12.151 8.85688 12.135V12.1346ZM8.41418 13.2821C8.41418 13.2821 8.37578 13.286 8.37578 13.3054C8.37578 13.3151 8.38538 13.3151 8.39908 13.3093C8.40697 13.3089 8.41478 13.3076 8.42237 13.3054C8.42621 13.3093 8.42621 13.3287 8.4554 13.3287C8.47936 13.3254 8.50246 13.3175 8.52337 13.3054C8.54666 13.2958 8.56612 13.2859 8.56612 13.267C8.55639 13.2339 8.53693 13.2183 8.50788 13.2183C8.49299 13.2174 8.47814 13.2208 8.46513 13.228C8.46513 13.228 8.4554 13.2086 8.42237 13.228C8.38935 13.2475 8.39319 13.2475 8.40292 13.2572C8.42033 13.2727 8.41457 13.2828 8.41457 13.2828L8.41418 13.2821ZM8.19476 13.4842C8.19476 13.4744 8.24327 13.455 8.25684 13.4609C8.2704 13.4647 8.30919 13.5384 8.30919 13.5462C8.30919 13.556 8.26068 13.5793 8.24122 13.5793C8.22176 13.5793 8.18887 13.5462 8.18887 13.5409C8.18887 13.537 8.21216 13.5313 8.21216 13.5273C8.21792 13.5177 8.19476 13.4943 8.19476 13.4845V13.4842ZM8.04114 13.2007C8.05087 13.1968 8.05087 13.1871 8.06444 13.1774C8.07305 13.1716 8.08382 13.1702 8.09362 13.1735C8.10055 13.1612 8.11268 13.1526 8.12664 13.1501C8.14994 13.1463 8.1694 13.1501 8.16504 13.1598C8.16504 13.189 8.1845 13.2083 8.1845 13.2316C8.1845 13.2549 8.17093 13.2841 8.12242 13.3036C8.07391 13.3171 8.00786 13.3171 7.99813 13.3133C7.9884 13.3095 7.97868 13.2706 7.9884 13.2511C7.99813 13.2316 8.02527 13.2104 8.04088 13.2007H8.04114Z" fill="#82764F"/>
<path fill-rule="evenodd" clip-rule="evenodd" d="M8.10236 13.2139C8.10236 13.2139 8.06934 13.2333 8.06934 13.2431C8.06641 13.2524 8.06511 13.2623 8.0655 13.2721C8.0655 13.2779 8.10825 13.2683 8.11401 13.2624C8.11593 13.2585 8.10236 13.224 8.10236 13.2139Z" fill="#6E6342"/>
<path fill-rule="evenodd" clip-rule="evenodd" d="M7.81325 13.1225C7.83257 13.1264 7.8656 13.1225 7.89081 13.1322C7.91027 13.1419 7.92384 13.1614 7.90438 13.1847C7.88493 13.208 7.86598 13.2429 7.82285 13.237C7.77433 13.2332 7.72774 13.208 7.72774 13.1885C7.7261 13.1636 7.73449 13.1392 7.75104 13.1205C7.77049 13.105 7.78009 13.1148 7.81312 13.1225H7.81325Z" fill="#585136"/>
<path fill-rule="evenodd" clip-rule="evenodd" d="M7.7899 13.1416C7.7899 13.1416 7.72782 13.1901 7.71221 13.2135C7.69275 13.2368 7.59765 13.3572 7.56859 13.3824C7.57824 13.3653 7.58924 13.3491 7.60149 13.3339C7.56309 13.3584 7.5343 13.3954 7.51995 13.4387C7.49665 13.5106 7.65013 13.5494 7.75099 13.5786C7.85185 13.6078 7.89089 13.617 7.89089 13.617C7.85376 13.5612 7.82188 13.5021 7.79566 13.4404C7.75726 13.3491 7.73742 13.3394 7.76264 13.2966C7.78209 13.2539 7.81128 13.2248 7.81128 13.1918C7.79963 13.1611 7.7899 13.1416 7.7899 13.1416Z" fill="#574F35"/>
<path fill-rule="evenodd" clip-rule="evenodd" d="M5.57643 13.2949C5.59056 13.2975 5.60505 13.2975 5.61918 13.2949C5.64824 13.2909 5.95121 13.1797 6.26776 13.1997C6.50472 13.214 6.7396 13.2526 6.96868 13.3149C7.36676 13.4197 7.86187 13.6274 8.18225 13.746C8.26763 13.7789 8.35121 13.8372 8.41265 13.8604C8.65739 13.9556 8.66699 13.9556 8.81073 13.9808C8.97969 14.0041 9.15249 13.9478 9.3331 13.909C9.55441 13.8604 9.93304 13.8371 10.2651 13.7886C10.3724 13.7737 10.4783 13.7497 10.5816 13.7168C10.5816 13.7168 10.3175 13.9808 9.68446 14.076C9.42856 14.1148 9.16852 14.1181 8.91172 14.0857C8.70974 14.0662 8.57585 14.037 8.47486 14.008C8.3603 13.975 8.12529 13.8875 7.83601 13.816C7.63403 13.7635 7.40875 13.7247 7.15057 13.6762C6.51364 13.5596 5.82244 13.4257 5.57617 13.2957L5.57643 13.2949Z" fill="#252211"/>
<path fill-rule="evenodd" clip-rule="evenodd" d="M4.86184 12.0947C4.70824 12.2248 4.5453 12.3491 4.3862 12.4694L3.90658 12.8379C3.74351 12.9582 3.58428 13.0825 3.42108 13.203C3.25788 13.3234 3.09493 13.4378 2.92188 13.5486C3.07548 13.4185 3.23842 13.2981 3.40149 13.1797C3.56456 13.0613 3.73365 12.9452 3.89096 12.8251L4.37058 12.4561C4.53557 12.3358 4.6948 12.2115 4.86184 12.095V12.0947ZM4.01341 13.4539C4.01341 13.4539 4.18621 13.3101 4.40176 13.1083C4.66967 12.8579 4.99786 12.5374 5.10269 12.4793L4.01328 13.454L4.01341 13.4539Z" fill="#CFB66C"/>
<path fill-rule="evenodd" clip-rule="evenodd" d="M4.01367 13.4543C4.09918 13.3689 4.19044 13.2854 4.2817 13.2038L4.42148 13.0835C4.46423 13.0451 4.51287 13.0019 4.5555 12.9592C4.64087 12.8738 4.72446 12.7824 4.80983 12.6951C4.85215 12.6512 4.89689 12.6097 4.94385 12.5708C4.96732 12.55 4.9934 12.5324 5.02142 12.5183C5.04484 12.5048 5.07006 12.4799 5.10295 12.4756C5.08362 12.5048 5.06033 12.5183 5.04087 12.5436C5.01758 12.563 4.99812 12.5863 4.97879 12.6056C4.93604 12.6484 4.88753 12.6872 4.84478 12.7261C4.75351 12.8038 4.65841 12.8797 4.56714 12.961C4.47588 13.0422 4.3905 13.1299 4.29911 13.2115C4.20017 13.295 4.1089 13.3766 4.01367 13.4547V13.4543ZM5.17485 12.6775C5.17485 12.6775 4.54189 13.2971 4.41172 13.3979L5.17485 12.6775Z" fill="#CFB66C"/>
<path fill-rule="evenodd" clip-rule="evenodd" d="M5.17427 12.6777C5.11733 12.7436 5.05628 12.8059 4.99148 12.8641L4.79948 13.0466C4.7374 13.1087 4.67904 13.1709 4.61312 13.233C4.54515 13.2912 4.48307 13.3482 4.41113 13.402L4.5975 13.2194C4.65971 13.1574 4.72768 13.105 4.79372 13.0428L4.98009 12.8603C5.04409 12.7963 5.1063 12.7341 5.17427 12.6777ZM5.20339 13.0137C5.14505 13.1765 5.0763 13.3354 4.99757 13.4894C4.8345 13.8157 4.58989 14.2234 4.48301 14.4313L5.20339 13.0137Z" fill="#CFB66C"/>
<path fill-rule="evenodd" clip-rule="evenodd" d="M5.20382 13.0137C5.20382 13.0855 5.18436 13.1477 5.16106 13.2098C5.13836 13.2719 5.11247 13.3328 5.0835 13.3923C5.05431 13.4505 5.02129 13.5127 4.98826 13.5691C4.95524 13.6254 4.91646 13.6835 4.88727 13.7419L4.69118 14.0875C4.62321 14.2027 4.55716 14.3185 4.48535 14.4292C4.53386 14.3049 4.59991 14.1885 4.66212 14.0739C4.73009 13.9587 4.79217 13.8435 4.85412 13.7243C4.88437 13.6649 4.91158 13.6041 4.93566 13.5419C4.96471 13.4797 4.99377 13.4215 5.01719 13.3652C5.04625 13.3031 5.06954 13.2447 5.09873 13.1885C5.13162 13.1282 5.15889 13.07 5.20356 13.0137L5.20382 13.0137Z" fill="#CFB66C"/>
<path fill-rule="evenodd" clip-rule="evenodd" d="M5.89583 14.6064C5.89583 14.6064 5.70383 14.8608 5.72303 15.1831C5.77538 15.0143 5.84143 14.7559 5.89583 14.6064ZM6.07839 14.8613C6.07839 14.8613 6.01042 15.5525 5.9541 15.8924C6.03372 15.4995 6.04921 15.5326 6.07839 14.8613ZM7.35008 15.9333C7.35008 15.9333 7.06272 16.7781 7.05684 17.0128C7.11904 16.7714 7.23936 16.2782 7.35008 15.9326V15.9333Z" fill="#DEC270"/>
<path fill-rule="evenodd" clip-rule="evenodd" d="M8.02148 14.5537C8.02148 14.5537 8.48753 15.3226 8.8371 15.9789C8.74251 15.6486 8.52491 15.0429 8.02148 14.5537Z" fill="#CBAF59"/>
<path fill-rule="evenodd" clip-rule="evenodd" d="M9.27344 15.6855C9.52932 16.1379 9.76007 16.6039 9.96464 17.0816C9.92585 16.7515 9.82089 16.1865 9.27344 15.6855Z" fill="#E3C677"/>
<path fill-rule="evenodd" clip-rule="evenodd" d="M12.9557 16.8192C13.0333 16.7707 13.1868 16.5065 13.3208 16.4405C13.4547 16.3726 13.5557 16.359 13.6761 16.225C13.7964 16.0851 13.8297 15.9997 14.0935 15.8891C14.4625 15.7298 14.2087 15.5239 14.2087 15.5239C14.2494 15.484 14.2928 15.4471 14.3388 15.4133C14.434 15.3415 14.5446 15.2541 14.535 15.1006C14.5214 14.8425 14.4729 14.4677 14.2612 14.2502C14.467 14.2075 14.8611 14.1784 15.106 14.1163C15.3894 14.0444 15.5196 13.9434 15.5196 13.9434C15.5196 13.9434 15.3565 13.6658 15.6206 13.3862C15.8846 13.1067 16.1002 12.9396 16.2594 12.6269C16.0769 12.6036 15.7986 12.5066 15.0885 12.7764C15.1268 12.7945 15.1638 12.8152 15.1992 12.8385C15.1992 12.8385 14.7623 12.9589 14.6031 13.093C14.3253 13.3278 14.2904 13.5201 13.9895 13.6638C13.6885 13.8076 13.3856 13.7687 13.1352 13.8852C12.8848 14.0016 12.8478 14.1007 12.7564 14.1435C12.7759 14.1668 12.7526 14.2055 12.7895 14.2386C12.7662 14.2716 12.6302 14.4929 12.4924 14.4929C12.5059 14.5454 12.6224 14.5842 12.6224 14.5842C12.6224 14.5842 12.537 14.6464 12.3196 14.6619C12.4302 14.7771 12.5351 14.9026 12.8244 15.0852C12.8011 15.1337 12.704 15.2056 12.7429 15.2969C12.7856 15.3881 12.8965 15.5124 13.339 15.6134C13.1137 15.623 12.8497 15.6755 12.4942 15.627C12.1388 15.5842 12.0806 15.559 11.8612 15.6134C11.8845 15.6367 11.9466 15.6367 12.001 15.6988C11.9427 15.7026 11.5777 15.656 11.4534 15.8192C11.3233 15.9881 11.267 16.2658 11.2768 16.4522C11.2088 16.4852 11.1427 16.5435 11.1758 16.6639C11.2088 16.7844 11.3816 16.8231 11.4923 16.8988C11.6029 16.9803 11.6126 17.0094 11.7176 16.99C11.8282 16.9668 11.9913 16.8562 12.0865 16.8562C12.1817 16.8562 12.2496 16.928 12.2496 16.928C12.2496 16.928 12.5079 16.8037 12.5331 16.827C12.5564 16.8503 12.5369 16.9998 12.5621 17.0231C12.5877 17.0406 12.8787 16.8678 12.9564 16.8192H12.9557Z" fill="#ECD592"/>
<path fill-rule="evenodd" clip-rule="evenodd" d="M18.6001 9.04854C17.3866 5.91459 14.3865 5.33398 14.3865 5.33398H5.82728L5.8603 8.52618H7.56488V15.6544H5.82715V18.8408H14.1496C16.1553 18.8408 17.7631 16.8252 17.7631 16.8252C20.3379 13.1709 18.6 9.04854 18.6 9.04854H18.6001ZM14.1943 14.6776C14.1943 14.6776 13.5415 15.6194 12.8312 15.6194H11.4104L11.3768 8.53398H13.2001C13.2001 8.53398 14.0449 8.71062 14.6351 10.3824C14.6351 10.3824 15.4176 12.776 14.1943 14.6776Z" fill="white" fill-opacity="0.8"/>
</svg>
