<svg width="1103" height="585" viewBox="0 0 1103 585" fill="none" xmlns="http://www.w3.org/2000/svg">
<g clip-path="url(#clip0_417_2)">
<rect width="1103" height="585" fill="#F5FAFF"/>
<g filter="url(#filter0_f_417_2)">
<path fill-rule="evenodd" clip-rule="evenodd" d="M568.973 125.157L572.955 119.155L586.026 128.114L592.126 119.213L556.606 94.8671L550.505 103.768L563.576 112.726L559.507 118.662C548.517 111.71 539.034 108.406 537.269 110.98C535.505 113.554 541.994 121.226 552.47 128.959L539.726 147.552L549.092 153.971L561.836 135.379L562.033 135.514C573.045 142.466 582.524 145.775 584.285 143.206C586.047 140.636 579.382 132.887 568.973 125.157ZM553.421 127.572C544.331 120.76 538.526 114.168 539.882 112.189C541.238 110.211 549.347 113.442 559.116 119.263L554.64 125.794C555.227 126.197 556.857 127.601 559.386 129.334C562.31 131.339 564.005 132.213 564.222 132.361L568.593 125.772C577.632 132.556 583.394 139.112 582.041 141.086C580.688 143.06 572.576 139.833 562.805 134.004C559.55 132.052 556.416 129.904 553.421 127.572Z" fill="#CFE8FE" fill-opacity="0.65"/>
</g>
<g opacity="0.54" filter="url(#filter1_f_417_2)">
<path d="M-13.8328 573.106C-21.5585 534.153 11.8858 496.488 50.0525 486.246C53.4751 485.327 56.8909 484.59 60.3406 483.991C95.4623 477.987 131.893 487.962 165.627 500.421C172.133 502.819 178.624 505.332 185.13 507.854C215.62 519.66 246.358 531.671 278.942 534.167C289.491 534.968 299.91 534.783 310.173 533.663C379.528 526.132 440.966 477.118 493.121 428.313C496.911 424.77 500.717 421.193 504.524 417.617C561.008 364.714 621.729 313.239 694.35 301.354C716.594 297.704 738.975 295.944 762.363 300.392C790.082 305.616 816.904 318.59 841.851 331.625C858.874 340.521 875.437 349.56 892.654 357.057C900.739 360.579 909.003 363.738 917.477 366.468C971.477 383.807 1033.46 381.356 1088.99 362.672C1144.64 343.962 1194.26 310.028 1233.72 266.659" stroke="url(#paint0_linear_417_2)" stroke-width="1.56225" stroke-miterlimit="10"/>
</g>
<g opacity="0.54" filter="url(#filter2_f_417_2)">
<path d="M1181.3 334.828C1183.67 372.263 1147.66 403.352 1110.65 408.176C1107.33 408.608 1104.04 408.873 1100.73 409.002C1067.1 410.239 1034.24 396.351 1004.21 380.474C998.415 377.417 992.652 374.254 986.875 371.08C959.803 356.22 932.524 341.137 902.327 334.732C892.551 332.665 882.774 331.537 873.024 331.305C807.15 329.696 743.508 367.916 688.583 407.098C684.593 409.943 680.582 412.816 676.572 415.689C617.083 458.168 553.805 498.781 484.329 500.842C463.047 501.482 441.873 500.335 420.531 493.251C395.23 484.899 371.738 469.403 350.008 454.084C335.181 443.63 320.803 433.099 305.618 423.93C298.488 419.623 291.146 415.634 283.553 412.02C235.159 389.044 176.821 383.601 122.496 394.161C68.0602 404.73 17.3632 430.306 -25.0001 465.983" stroke="url(#paint1_linear_417_2)" stroke-width="1.56225" stroke-miterlimit="10"/>
</g>
<g clip-path="url(#clip1_417_2)" filter="url(#filter3_f_417_2)">
<path d="M1020.25 234.838L1015.49 231.407C1015.23 231.219 1014.87 231.278 1014.68 231.539L1011 236.64C1010.81 236.901 1010.87 237.265 1011.13 237.453L1015.95 240.927C1017.6 242.117 1019.9 241.759 1021.12 240.137C1022.36 238.466 1021.94 236.058 1020.25 234.838Z" fill="#CFE8FE"/>
<path d="M1013.71 243.906L1008.95 240.475C1008.69 240.287 1008.33 240.346 1008.14 240.607L1004.46 245.708C1004.27 245.969 1004.33 246.333 1004.59 246.521L1009.41 249.996C1011.06 251.185 1013.36 250.828 1014.58 249.205C1015.82 247.535 1015.4 245.126 1013.71 243.906Z" fill="#CFE8FE"/>
<path d="M1042.78 236.581C1041.51 228.719 1037.25 221.824 1030.79 217.165C1024.33 212.507 1016.44 210.642 1008.58 211.916C1000.72 213.19 993.824 217.449 989.166 223.908C984.507 230.368 982.643 238.255 983.916 246.117C985.19 253.979 989.449 260.874 995.909 265.533C1002.37 270.191 1010.26 272.055 1018.12 270.782C1025.98 269.508 1032.87 265.249 1037.53 258.789C1042.19 252.33 1044.06 244.442 1042.78 236.581ZM1017.64 251.334C1015.89 253.76 1012.94 254.819 1010.18 254.29C1009.95 254.247 1009.73 254.336 1009.59 254.52L1008.44 256.123C1007.85 256.937 1006.72 257.186 1005.88 256.638C1004.98 256.053 1004.77 254.845 1005.38 253.986L1006.13 252.947C1006.32 252.686 1006.26 252.322 1006 252.134L1003.92 250.635C1003.66 250.447 1003.3 250.506 1003.11 250.767L1002.39 251.763C1001.81 252.577 1000.68 252.826 999.835 252.278C998.937 251.693 998.719 250.485 999.339 249.626L1000.09 248.587C1000.28 248.326 1000.22 247.962 999.957 247.774L997.449 245.965C996.635 245.378 996.386 244.248 996.933 243.407C997.518 242.51 998.727 242.292 999.586 242.911L1000.63 243.661C1000.89 243.849 1001.25 243.79 1001.44 243.529L1006.55 236.444L1011.66 229.359C1011.85 229.098 1011.79 228.734 1011.53 228.546L1010.53 227.827C1009.72 227.24 1009.47 226.11 1010.01 225.269C1010.6 224.372 1011.81 224.154 1012.67 224.773L1015.22 226.613C1015.48 226.801 1015.84 226.742 1016.03 226.481L1016.75 225.485C1017.34 224.671 1018.47 224.421 1019.31 224.969C1020.2 225.555 1020.42 226.763 1019.8 227.622L1019.05 228.661C1018.86 228.922 1018.92 229.286 1019.18 229.474L1021.26 230.973C1021.52 231.161 1021.89 231.102 1022.08 230.841L1022.79 229.845C1023.38 229.031 1024.51 228.782 1025.35 229.33C1026.25 229.915 1026.47 231.123 1025.85 231.982L1024.66 233.628C1024.53 233.812 1024.52 234.055 1024.63 234.253C1026 236.705 1025.93 239.838 1024.18 242.265C1023 243.897 1021.28 244.91 1019.44 245.238C1019.13 245.293 1018.92 245.584 1018.96 245.898C1019.23 247.748 1018.81 249.701 1017.64 251.334Z" fill="#CFE8FE"/>
</g>
<g filter="url(#filter4_f_417_2)">
<path d="M994.599 492.757C995.466 493.987 996.676 494.933 998.077 495.476C999.478 496.019 1001.01 496.135 1002.47 495.808C1003.93 495.481 1005.26 494.727 1006.3 493.641C1007.33 492.554 1008.01 491.185 1008.27 489.705C1008.52 488.225 1008.33 486.702 1007.72 485.327C1007.11 483.953 1006.1 482.789 1004.83 481.983C1003.56 481.177 1002.09 480.765 1000.59 480.799C999.087 480.834 997.633 481.313 996.408 482.176C994.766 483.333 993.653 485.098 993.314 487.082C992.975 489.067 993.437 491.108 994.599 492.757ZM990.897 504.672C992.121 503.809 993.062 502.601 993.598 501.2C994.135 499.799 994.244 498.269 993.912 496.802C993.58 495.336 992.821 493.999 991.732 492.962C990.644 491.924 989.273 491.232 987.794 490.972C986.316 490.713 984.795 490.898 983.425 491.505C982.055 492.111 980.897 493.112 980.097 494.379C979.298 495.647 978.892 497.126 978.933 498.628C978.973 500.13 979.457 501.588 980.324 502.818C981.49 504.457 983.255 505.57 985.233 505.912C987.211 506.255 989.241 505.799 990.878 504.645L990.897 504.672ZM970.374 492.813C971.026 492.353 971.527 491.709 971.813 490.963C972.099 490.216 972.157 489.401 971.98 488.62C971.803 487.838 971.399 487.126 970.819 486.573C970.239 486.02 969.508 485.651 968.721 485.513C967.933 485.375 967.122 485.473 966.392 485.797C965.662 486.12 965.045 486.653 964.619 487.329C964.193 488.004 963.977 488.792 963.998 489.592C964.02 490.393 964.278 491.17 964.74 491.825C965.359 492.704 966.3 493.301 967.357 493.487C968.414 493.672 969.499 493.43 970.374 492.813ZM976.041 512.124C976.87 511.542 977.507 510.727 977.871 509.781C978.236 508.834 978.312 507.8 978.089 506.808C977.866 505.817 977.354 504.912 976.619 504.21C975.884 503.507 974.958 503.038 973.958 502.862C972.959 502.685 971.931 502.81 971.004 503.219C970.078 503.628 969.294 504.304 968.753 505.161C968.212 506.018 967.938 507.017 967.965 508.032C967.992 509.048 968.319 510.033 968.905 510.865C969.687 511.975 970.874 512.731 972.208 512.969C973.542 513.208 974.913 512.908 976.023 512.137L976.041 512.124ZM988.254 485.689C989.082 485.105 989.718 484.289 990.08 483.341C990.443 482.394 990.516 481.36 990.291 480.369C990.066 479.377 989.553 478.474 988.816 477.773C988.079 477.072 987.152 476.605 986.153 476.431C985.153 476.257 984.125 476.383 983.199 476.794C982.274 477.205 981.492 477.883 980.952 478.741C980.413 479.599 980.141 480.599 980.17 481.614C980.199 482.63 980.528 483.615 981.116 484.445C981.899 485.555 983.088 486.311 984.423 486.547C985.758 486.782 987.129 486.478 988.237 485.701L988.254 485.689ZM1011.67 474.506C1010.84 475.088 1010.2 475.903 1009.84 476.85C1009.47 477.796 1009.4 478.83 1009.62 479.822C1009.84 480.814 1010.35 481.718 1011.09 482.421C1011.82 483.123 1012.75 483.592 1013.75 483.769C1014.75 483.945 1015.78 483.821 1016.7 483.411C1017.63 483.002 1018.41 482.326 1018.95 481.47C1019.5 480.613 1019.77 479.613 1019.74 478.598C1019.72 477.583 1019.39 476.597 1018.8 475.766C1018.42 475.205 1017.92 474.727 1017.35 474.358C1016.78 473.989 1016.14 473.738 1015.47 473.617C1014.81 473.497 1014.12 473.511 1013.46 473.658C1012.8 473.805 1012.17 474.083 1011.62 474.474L1011.67 474.506ZM1029.13 499.28C1028.3 499.861 1027.66 500.677 1027.3 501.623C1026.93 502.57 1026.86 503.604 1027.08 504.596C1027.3 505.587 1027.81 506.492 1028.55 507.194C1029.28 507.897 1030.21 508.366 1031.21 508.542C1032.21 508.719 1033.24 508.594 1034.16 508.185C1035.09 507.776 1035.87 507.1 1036.41 506.243C1036.95 505.386 1037.23 504.387 1037.2 503.372C1037.18 502.356 1036.85 501.37 1036.26 500.539C1035.88 499.979 1035.38 499.5 1034.81 499.132C1034.24 498.763 1033.6 498.511 1032.93 498.391C1032.27 498.271 1031.58 498.285 1030.92 498.432C1030.26 498.579 1029.63 498.856 1029.08 499.248L1029.13 499.28ZM1036.9 481.556C1036.44 480.898 1035.79 480.392 1035.04 480.102C1034.29 479.812 1033.48 479.751 1032.69 479.926C1031.91 480.101 1031.2 480.505 1030.65 481.086C1030.1 481.668 1029.73 482.4 1029.6 483.192C1029.46 483.983 1029.57 484.797 1029.9 485.531C1030.22 486.266 1030.76 486.887 1031.44 487.316C1032.12 487.746 1032.91 487.964 1033.71 487.944C1034.51 487.924 1035.29 487.666 1035.94 487.203C1036.38 486.893 1036.75 486.5 1037.03 486.046C1037.31 485.592 1037.5 485.086 1037.58 484.558C1037.67 484.03 1037.65 483.49 1037.52 482.969C1037.4 482.448 1037.17 481.957 1036.85 481.524L1036.9 481.556ZM969.217 524.231C968.561 524.691 968.057 525.336 967.768 526.085C967.48 526.834 967.42 527.652 967.597 528.437C967.773 529.222 968.178 529.937 968.76 530.492C969.342 531.048 970.075 531.418 970.866 531.557C971.657 531.696 972.471 531.597 973.203 531.272C973.936 530.947 974.555 530.411 974.982 529.732C975.409 529.053 975.624 528.262 975.601 527.459C975.578 526.655 975.317 525.876 974.852 525.22C974.232 524.341 973.291 523.743 972.234 523.558C971.178 523.372 970.092 523.615 969.217 524.231ZM977.121 470.004C977.688 469.604 978.124 469.045 978.372 468.396C978.62 467.747 978.67 467.038 978.516 466.359C978.362 465.68 978.01 465.061 977.505 464.581C977 464.101 976.365 463.781 975.68 463.662C974.995 463.543 974.29 463.63 973.656 463.912C973.022 464.194 972.487 464.659 972.118 465.247C971.749 465.835 971.563 466.52 971.584 467.216C971.604 467.912 971.83 468.586 972.233 469.155C972.502 469.535 972.842 469.859 973.236 470.107C973.63 470.355 974.069 470.522 974.527 470.599C974.985 470.675 975.453 470.66 975.905 470.554C976.356 470.447 976.782 470.252 977.156 469.979L977.121 470.004ZM1027.48 541.456C1026.91 541.854 1026.47 542.413 1026.22 543.061C1025.97 543.71 1025.92 544.419 1026.07 545.099C1026.22 545.779 1026.57 546.399 1027.08 546.88C1027.58 547.362 1028.22 547.683 1028.9 547.803C1029.59 547.923 1030.29 547.837 1030.93 547.555C1031.56 547.274 1032.1 546.809 1032.47 546.221C1032.84 545.633 1033.03 544.947 1033.01 544.251C1032.99 543.555 1032.76 542.88 1032.36 542.311C1031.82 541.559 1031.02 541.045 1030.11 540.88C1029.2 540.715 1028.27 540.913 1027.51 541.431L1027.48 541.456ZM1018.77 461.483C1018.48 462.112 1018.39 462.813 1018.5 463.497C1018.61 464.182 1018.92 464.819 1019.39 465.328C1019.86 465.838 1020.47 466.197 1021.14 466.36C1021.82 466.523 1022.52 466.483 1023.17 466.245C1023.82 466.006 1024.38 465.581 1024.79 465.021C1025.19 464.462 1025.43 463.794 1025.45 463.102C1025.48 462.41 1025.3 461.724 1024.94 461.133C1024.58 460.541 1024.05 460.069 1023.42 459.776C1022.58 459.393 1021.62 459.355 1020.76 459.671C1019.9 459.987 1019.19 460.631 1018.8 461.464L1018.77 461.483ZM979.521 547.042C979.234 547.67 979.139 548.371 979.249 549.056C979.359 549.74 979.669 550.377 980.14 550.887C980.611 551.396 981.221 551.755 981.894 551.918C982.567 552.081 983.272 552.041 983.921 551.803C984.57 551.565 985.133 551.139 985.538 550.58C985.944 550.021 986.175 549.353 986.202 548.661C986.228 547.968 986.049 547.283 985.688 546.691C985.326 546.099 984.798 545.627 984.169 545.335C983.751 545.14 983.299 545.029 982.839 545.01C982.379 544.99 981.919 545.062 981.488 545.22C981.056 545.379 980.66 545.622 980.322 545.934C979.985 546.247 979.713 546.623 979.521 547.042ZM958.967 509.573C958.902 508.883 958.636 508.227 958.2 507.687C957.764 507.147 957.179 506.748 956.518 506.541C955.857 506.333 955.15 506.326 954.487 506.52C953.824 506.714 953.234 507.101 952.791 507.632C952.349 508.162 952.074 508.813 952.001 509.502C951.928 510.191 952.061 510.886 952.383 511.501C952.704 512.116 953.2 512.622 953.807 512.956C954.415 513.289 955.107 513.436 955.796 513.377C956.255 513.332 956.701 513.197 957.108 512.979C957.514 512.762 957.874 512.466 958.165 512.108C958.457 511.751 958.675 511.339 958.807 510.896C958.939 510.454 958.983 509.989 958.935 509.529L958.967 509.573ZM1045.76 501.932C1045.82 502.622 1046.09 503.278 1046.52 503.818C1046.96 504.358 1047.54 504.756 1048.2 504.964C1048.87 505.172 1049.57 505.179 1050.24 504.985C1050.9 504.791 1051.49 504.404 1051.93 503.873C1052.37 503.342 1052.65 502.692 1052.72 502.003C1052.79 501.314 1052.66 500.619 1052.34 500.004C1052.02 499.389 1051.52 498.883 1050.91 498.549C1050.31 498.215 1049.62 498.069 1048.93 498.128C1048 498.203 1047.15 498.641 1046.55 499.345C1045.95 500.049 1045.65 500.962 1045.72 501.887L1045.76 501.932ZM1000.09 454.033C1000.03 453.501 999.827 452.995 999.49 452.58C999.153 452.164 998.701 451.858 998.191 451.699C997.681 451.54 997.136 451.536 996.624 451.687C996.113 451.839 995.659 452.138 995.319 452.549C994.979 452.96 994.769 453.462 994.715 453.994C994.661 454.525 994.765 455.061 995.015 455.534C995.265 456.007 995.649 456.396 996.119 456.652C996.588 456.907 997.123 457.018 997.654 456.97C998.012 456.936 998.359 456.831 998.675 456.661C998.992 456.492 999.271 456.261 999.497 455.981C999.722 455.702 999.89 455.381 999.991 455.035C1000.09 454.69 1000.12 454.328 1000.08 453.97L1000.09 454.033ZM1004.67 557.158C1004.72 557.69 1004.93 558.196 1005.26 558.611C1005.6 559.027 1006.05 559.334 1006.56 559.492C1007.07 559.651 1007.62 559.655 1008.13 559.504C1008.64 559.352 1009.09 559.053 1009.43 558.642C1009.77 558.232 1009.98 557.729 1010.04 557.197C1010.09 556.666 1009.99 556.13 1009.74 555.657C1009.49 555.184 1009.1 554.795 1008.63 554.539C1008.16 554.284 1007.63 554.173 1007.1 554.221C1006.4 554.291 1005.75 554.636 1005.3 555.18C1004.85 555.724 1004.63 556.424 1004.69 557.13L1004.67 557.158ZM958.146 484.76C958.37 484.276 958.445 483.735 958.363 483.207C958.28 482.679 958.043 482.186 957.681 481.792C957.32 481.398 956.85 481.119 956.331 480.991C955.813 480.863 955.269 480.892 954.768 481.075C954.267 481.257 953.831 481.583 953.517 482.014C953.203 482.444 953.023 482.959 953.001 483.493C952.979 484.027 953.116 484.556 953.394 485.013C953.672 485.47 954.078 485.835 954.562 486.062C954.887 486.215 955.238 486.302 955.595 486.317C955.953 486.333 956.31 486.277 956.645 486.154C956.981 486.03 957.288 485.841 957.549 485.596C957.81 485.352 958.02 485.059 958.166 484.732L958.146 484.76ZM1046.58 526.396C1046.36 526.88 1046.28 527.42 1046.36 527.948C1046.45 528.477 1046.68 528.969 1047.05 529.363C1047.41 529.758 1047.88 530.037 1048.4 530.164C1048.91 530.292 1049.46 530.263 1049.96 530.081C1050.46 529.899 1050.9 529.572 1051.21 529.142C1051.52 528.711 1051.7 528.196 1051.73 527.663C1051.75 527.129 1051.61 526.6 1051.33 526.143C1051.06 525.685 1050.65 525.32 1050.17 525.094C1049.52 524.794 1048.79 524.759 1048.12 524.996C1047.45 525.233 1046.91 525.722 1046.6 526.359L1046.58 526.396ZM1042.77 473.671C1042.33 473.978 1042 474.408 1041.81 474.906C1041.62 475.405 1041.58 475.949 1041.7 476.471C1041.82 476.992 1042.09 477.468 1042.47 477.837C1042.86 478.206 1043.35 478.452 1043.87 478.545C1044.4 478.637 1044.94 478.571 1045.43 478.355C1045.92 478.139 1046.33 477.784 1046.61 477.333C1046.9 476.882 1047.04 476.356 1047.03 475.821C1047.01 475.287 1046.84 474.768 1046.53 474.331C1046.12 473.748 1045.5 473.349 1044.8 473.221C1044.1 473.092 1043.38 473.244 1042.79 473.644L1042.77 473.671ZM958.864 533.057C958.432 533.369 958.103 533.802 957.918 534.302C957.733 534.802 957.701 535.347 957.825 535.867C957.948 536.386 958.223 536.858 958.614 537.223C959.005 537.588 959.494 537.829 960.021 537.916C960.547 538.003 961.087 537.932 961.571 537.711C962.056 537.491 962.465 537.132 962.745 536.679C963.025 536.226 963.164 535.699 963.145 535.165C963.127 534.632 962.95 534.115 962.639 533.68C962.433 533.389 962.172 533.141 961.871 532.95C961.569 532.76 961.233 532.632 960.883 532.572C960.532 532.513 960.173 532.524 959.827 532.605C959.481 532.685 959.154 532.834 958.866 533.042L958.864 533.057ZM1016.87 525.692C1016.04 526.274 1015.4 527.09 1015.04 528.037C1014.67 528.984 1014.6 530.018 1014.82 531.01C1015.05 532.002 1015.56 532.907 1016.29 533.609C1017.03 534.311 1017.96 534.78 1018.96 534.955C1019.96 535.131 1020.99 535.005 1021.91 534.594C1022.84 534.184 1023.62 533.507 1024.16 532.648C1024.7 531.79 1024.97 530.79 1024.95 529.774C1024.92 528.758 1024.59 527.773 1024 526.942C1023.61 526.391 1023.12 525.921 1022.55 525.559C1021.99 525.197 1021.35 524.95 1020.69 524.833C1020.03 524.715 1019.35 524.729 1018.7 524.874C1018.04 525.019 1017.42 525.292 1016.87 525.677L1016.87 525.692ZM994.702 529.775C994.117 528.944 993.299 528.305 992.352 527.938C991.405 527.571 990.373 527.493 989.384 527.714C988.395 527.935 987.496 528.444 986.798 529.178C986.101 529.912 985.638 530.838 985.467 531.838C985.296 532.838 985.425 533.867 985.838 534.796C986.251 535.725 986.929 536.511 987.787 537.056C988.644 537.6 989.643 537.878 990.656 537.855C991.67 537.832 992.652 537.508 993.48 536.925C994.031 536.538 994.501 536.045 994.861 535.475C995.221 534.905 995.466 534.269 995.579 533.604C995.693 532.938 995.675 532.256 995.524 531.596C995.374 530.937 995.096 530.313 994.705 529.76L994.702 529.775ZM1001.29 471.036C1001.95 470.576 1002.45 469.933 1002.73 469.186C1003.02 468.44 1003.08 467.624 1002.9 466.843C1002.72 466.062 1002.32 465.349 1001.74 464.796C1001.16 464.243 1000.43 463.874 999.639 463.736C998.851 463.598 998.041 463.697 997.311 464.02C996.581 464.343 995.964 464.876 995.538 465.552C995.112 466.227 994.896 467.015 994.917 467.816C994.939 468.616 995.197 469.393 995.658 470.048C996.282 470.923 997.225 471.516 998.281 471.698C999.337 471.881 1000.42 471.637 1001.3 471.021L1001.29 471.036ZM1003.83 540.375C1003.17 540.834 1002.67 541.479 1002.38 542.227C1002.09 542.975 1002.03 543.793 1002.21 544.578C1002.38 545.362 1002.79 546.077 1003.37 546.633C1003.95 547.189 1004.68 547.56 1005.47 547.7C1006.26 547.839 1007.07 547.741 1007.81 547.418C1008.54 547.094 1009.16 546.56 1009.59 545.882C1010.01 545.205 1010.23 544.415 1010.21 543.612C1010.19 542.809 1009.93 542.029 1009.47 541.372C1008.85 540.497 1007.92 539.897 1006.87 539.703C1005.83 539.509 1004.74 539.736 1003.86 540.335L1003.83 540.375ZM1034.78 518.558C1034.13 519.019 1033.63 519.665 1033.34 520.413C1033.05 521.162 1033 521.979 1033.17 522.763C1033.35 523.546 1033.76 524.26 1034.34 524.815C1034.92 525.369 1035.65 525.739 1036.44 525.878C1037.23 526.016 1038.04 525.917 1038.78 525.593C1039.51 525.269 1040.13 524.735 1040.55 524.057C1040.98 523.38 1041.2 522.59 1041.18 521.787C1041.15 520.985 1040.9 520.206 1040.43 519.549C1040.13 519.112 1039.74 518.739 1039.29 518.452C1038.84 518.165 1038.34 517.969 1037.81 517.876C1037.29 517.782 1036.75 517.793 1036.23 517.908C1035.71 518.022 1035.22 518.238 1034.79 518.543L1034.78 518.558ZM1013.81 506.924C1012.59 507.787 1011.65 508.995 1011.11 510.396C1010.57 511.796 1010.46 513.327 1010.79 514.793C1011.13 516.26 1011.89 517.596 1012.97 518.634C1014.06 519.672 1015.43 520.364 1016.91 520.623C1018.39 520.883 1019.91 520.697 1021.28 520.091C1022.65 519.484 1023.81 518.484 1024.61 517.216C1025.41 515.948 1025.81 514.47 1025.77 512.968C1025.73 511.466 1025.25 510.008 1024.38 508.778C1023.22 507.129 1021.45 506.007 1019.47 505.659C1017.49 505.312 1015.45 505.766 1013.81 506.924ZM1010.36 500.145C1011.22 501.374 1012.43 502.321 1013.83 502.864C1015.23 503.407 1016.76 503.522 1018.23 503.196C1019.69 502.869 1021.02 502.115 1022.05 501.028C1023.08 499.942 1023.77 498.572 1024.02 497.093C1024.28 495.613 1024.09 494.089 1023.47 492.715C1022.86 491.34 1021.86 490.176 1020.59 489.371C1019.32 488.565 1017.84 488.153 1016.34 488.187C1014.84 488.222 1013.39 488.7 1012.17 489.563C1011.34 490.136 1010.64 490.867 1010.11 491.713C1009.57 492.56 1009.2 493.505 1009.04 494.495C1008.87 495.485 1008.89 496.499 1009.12 497.479C1009.34 498.459 1009.76 499.386 1010.35 500.205L1010.36 500.145ZM982.486 519.786C983.353 521.016 984.563 521.962 985.964 522.505C987.365 523.048 988.894 523.164 990.357 522.837C991.82 522.51 993.151 521.756 994.183 520.67C995.215 519.583 995.901 518.214 996.154 516.734C996.407 515.254 996.216 513.731 995.605 512.356C994.994 510.982 993.99 509.818 992.721 509.012C991.451 508.206 989.973 507.794 988.474 507.829C986.974 507.863 985.52 508.342 984.295 509.205C983.473 509.777 982.773 510.508 982.236 511.354C981.698 512.201 981.335 513.146 981.165 514.136C980.996 515.126 981.025 516.14 981.25 517.12C981.475 518.101 981.891 519.027 982.476 519.846L982.486 519.786ZM1010.12 518.793C1009.25 517.564 1008.04 516.617 1006.64 516.074C1005.24 515.531 1003.71 515.416 1002.24 515.742C1000.78 516.069 999.45 516.823 998.418 517.91C997.386 518.996 996.701 520.366 996.448 521.845C996.194 523.325 996.386 524.849 996.997 526.223C997.608 527.598 998.612 528.761 999.881 529.567C1001.15 530.373 1002.63 530.785 1004.13 530.751C1005.63 530.716 1007.08 530.237 1008.31 529.374C1009.93 528.215 1011.03 526.459 1011.37 524.488C1011.7 522.516 1011.25 520.488 1010.1 518.845L1010.12 518.793Z" fill="#CFE8FE" fill-opacity="0.85"/>
</g>
<g filter="url(#filter5_f_417_2)">
<circle cx="998" cy="377" r="6" fill="#CFE8FE" fill-opacity="0.85"/>
</g>
<g filter="url(#filter6_f_417_2)">
<circle cx="569" cy="537" r="18" fill="#CFE8FE" fill-opacity="0.8"/>
</g>
<g filter="url(#filter7_f_417_2)">
<circle cx="416" cy="491" r="9" fill="#CFE8FE" fill-opacity="0.8"/>
</g>
<g filter="url(#filter8_f_417_2)">
<circle cx="592.5" cy="234.5" r="5.5" fill="#CFE8FE" fill-opacity="0.8"/>
</g>
<g filter="url(#filter9_f_417_2)">
<circle cx="804.5" cy="35.5" r="5.5" fill="#CFE8FE" fill-opacity="0.8"/>
</g>
<g filter="url(#filter10_f_417_2)">
<circle cx="1028.5" cy="72.5" r="5.5" fill="#CFE8FE" fill-opacity="0.8"/>
</g>
<g filter="url(#filter11_f_417_2)">
<path d="M196.178 433.771L204.585 436.95C204.887 437.064 205.225 436.912 205.34 436.609L207.014 432.177C207.128 431.875 206.976 431.537 206.674 431.423L192.739 426.154C192.437 426.04 192.099 426.193 191.985 426.495L186.721 440.426C186.607 440.728 186.76 441.066 187.062 441.18L191.493 442.855C191.796 442.97 192.134 442.817 192.248 442.515L195.423 434.112C195.538 433.809 195.875 433.657 196.178 433.771Z" fill="#CFE8FE" fill-opacity="0.6"/>
<path d="M184.833 445.423L183.158 449.855C183.044 450.158 183.196 450.495 183.498 450.61L187.93 452.285C188.232 452.4 188.57 452.247 188.684 451.945L190.359 447.513C190.473 447.21 190.321 446.873 190.018 446.758L185.587 445.083C185.285 444.968 184.947 445.121 184.833 445.423Z" fill="#CFE8FE" fill-opacity="0.6"/>
<path d="M207.611 459.1L212.878 445.162C212.992 444.86 212.839 444.522 212.537 444.408L208.104 442.735C207.802 442.621 207.464 442.773 207.35 443.076L204.173 451.483C204.059 451.786 203.721 451.938 203.418 451.824L195.015 448.647C194.713 448.533 194.376 448.685 194.261 448.987L192.58 453.417C192.465 453.719 192.618 454.057 192.92 454.172L206.857 459.441C207.159 459.555 207.497 459.403 207.611 459.1Z" fill="#CFE8FE" fill-opacity="0.6"/>
<path d="M210.912 433.653L209.238 438.085C209.123 438.387 209.276 438.725 209.578 438.839L214.01 440.515C214.312 440.629 214.65 440.476 214.764 440.174L216.439 435.742C216.553 435.44 216.4 435.102 216.098 434.988L211.667 433.312C211.364 433.198 211.026 433.35 210.912 433.653Z" fill="#CFE8FE" fill-opacity="0.6"/>
<path d="M203.116 440.846L198.601 439.139C198.298 439.024 197.96 439.177 197.846 439.479L196.14 443.995C196.025 444.298 196.178 444.635 196.48 444.75L200.996 446.457C201.298 446.572 201.636 446.419 201.75 446.117L203.457 441.6C203.571 441.298 203.419 440.96 203.116 440.846Z" fill="#CFE8FE" fill-opacity="0.6"/>
</g>
</g>
<defs>
<filter id="filter0_f_417_2" x="532.981" y="90.8672" width="63.1455" height="67.1045" filterUnits="userSpaceOnUse" color-interpolation-filters="sRGB">
<feFlood flood-opacity="0" result="BackgroundImageFix"/>
<feBlend mode="normal" in="SourceGraphic" in2="BackgroundImageFix" result="shape"/>
<feGaussianBlur stdDeviation="2" result="effect1_foregroundBlur_417_2"/>
</filter>
<filter id="filter1_f_417_2" x="-17.7339" y="264.134" width="1254.04" height="311.124" filterUnits="userSpaceOnUse" color-interpolation-filters="sRGB">
<feFlood flood-opacity="0" result="BackgroundImageFix"/>
<feBlend mode="normal" in="SourceGraphic" in2="BackgroundImageFix" result="shape"/>
<feGaussianBlur stdDeviation="1" result="effect1_foregroundBlur_417_2"/>
</filter>
<filter id="filter2_f_417_2" x="-27.5034" y="328.475" width="1211.7" height="175.302" filterUnits="userSpaceOnUse" color-interpolation-filters="sRGB">
<feFlood flood-opacity="0" result="BackgroundImageFix"/>
<feBlend mode="normal" in="SourceGraphic" in2="BackgroundImageFix" result="shape"/>
<feGaussianBlur stdDeviation="1" result="effect1_foregroundBlur_417_2"/>
</filter>
<filter id="filter3_f_417_2" x="969.725" y="197.725" width="87.2485" height="87.249" filterUnits="userSpaceOnUse" color-interpolation-filters="sRGB">
<feFlood flood-opacity="0" result="BackgroundImageFix"/>
<feBlend mode="normal" in="SourceGraphic" in2="BackgroundImageFix" result="shape"/>
<feGaussianBlur stdDeviation="1" result="effect1_foregroundBlur_417_2"/>
</filter>
<filter id="filter4_f_417_2" x="945.981" y="445.576" width="112.759" height="120.038" filterUnits="userSpaceOnUse" color-interpolation-filters="sRGB">
<feFlood flood-opacity="0" result="BackgroundImageFix"/>
<feBlend mode="normal" in="SourceGraphic" in2="BackgroundImageFix" result="shape"/>
<feGaussianBlur stdDeviation="3" result="effect1_foregroundBlur_417_2"/>
</filter>
<filter id="filter5_f_417_2" x="987" y="366" width="22" height="22" filterUnits="userSpaceOnUse" color-interpolation-filters="sRGB">
<feFlood flood-opacity="0" result="BackgroundImageFix"/>
<feBlend mode="normal" in="SourceGraphic" in2="BackgroundImageFix" result="shape"/>
<feGaussianBlur stdDeviation="2.5" result="effect1_foregroundBlur_417_2"/>
</filter>
<filter id="filter6_f_417_2" x="519" y="487" width="100" height="100" filterUnits="userSpaceOnUse" color-interpolation-filters="sRGB">
<feFlood flood-opacity="0" result="BackgroundImageFix"/>
<feBlend mode="normal" in="SourceGraphic" in2="BackgroundImageFix" result="shape"/>
<feGaussianBlur stdDeviation="16" result="effect1_foregroundBlur_417_2"/>
</filter>
<filter id="filter7_f_417_2" x="399" y="474" width="34" height="34" filterUnits="userSpaceOnUse" color-interpolation-filters="sRGB">
<feFlood flood-opacity="0" result="BackgroundImageFix"/>
<feBlend mode="normal" in="SourceGraphic" in2="BackgroundImageFix" result="shape"/>
<feGaussianBlur stdDeviation="4" result="effect1_foregroundBlur_417_2"/>
</filter>
<filter id="filter8_f_417_2" x="579" y="221" width="27" height="27" filterUnits="userSpaceOnUse" color-interpolation-filters="sRGB">
<feFlood flood-opacity="0" result="BackgroundImageFix"/>
<feBlend mode="normal" in="SourceGraphic" in2="BackgroundImageFix" result="shape"/>
<feGaussianBlur stdDeviation="4" result="effect1_foregroundBlur_417_2"/>
</filter>
<filter id="filter9_f_417_2" x="791" y="22" width="27" height="27" filterUnits="userSpaceOnUse" color-interpolation-filters="sRGB">
<feFlood flood-opacity="0" result="BackgroundImageFix"/>
<feBlend mode="normal" in="SourceGraphic" in2="BackgroundImageFix" result="shape"/>
<feGaussianBlur stdDeviation="4" result="effect1_foregroundBlur_417_2"/>
</filter>
<filter id="filter10_f_417_2" x="1015" y="59" width="27" height="27" filterUnits="userSpaceOnUse" color-interpolation-filters="sRGB">
<feFlood flood-opacity="0" result="BackgroundImageFix"/>
<feBlend mode="normal" in="SourceGraphic" in2="BackgroundImageFix" result="shape"/>
<feGaussianBlur stdDeviation="4" result="effect1_foregroundBlur_417_2"/>
</filter>
<filter id="filter11_f_417_2" x="179.12" y="422.116" width="41.3564" height="41.3623" filterUnits="userSpaceOnUse" color-interpolation-filters="sRGB">
<feFlood flood-opacity="0" result="BackgroundImageFix"/>
<feBlend mode="normal" in="SourceGraphic" in2="BackgroundImageFix" result="shape"/>
<feGaussianBlur stdDeviation="2" result="effect1_foregroundBlur_417_2"/>
</filter>
<linearGradient id="paint0_linear_417_2" x1="1226.64" y1="239.421" x2="-12.3197" y2="581.551" gradientUnits="userSpaceOnUse">
<stop stop-color="#ECF5FF"/>
<stop offset="0.2294" stop-color="#C2DDFA"/>
<stop offset="0.711" stop-color="#B0D3F8"/>
<stop offset="1" stop-color="#76B2EF"/>
</linearGradient>
<linearGradient id="paint1_linear_417_2" x1="-21.7665" y1="492.37" x2="1180.94" y2="326.732" gradientUnits="userSpaceOnUse">
<stop stop-color="#ECF5FF"/>
<stop offset="0.2294" stop-color="#C2DDFA"/>
<stop offset="0.711" stop-color="#B0D3F8"/>
<stop offset="1" stop-color="#76B2EF"/>
</linearGradient>
<clipPath id="clip0_417_2">
<rect width="1103" height="585" fill="white"/>
</clipPath>
<clipPath id="clip1_417_2">
<rect width="59.6331" height="59.6331" fill="white" transform="translate(1006.61 199.725) rotate(35.7977)"/>
</clipPath>
</defs>
</svg>
