<svg xmlns="http://www.w3.org/2000/svg" width="106.926" height="100" viewBox="0 0 106.926 100"><defs><style>.a{fill:#32a8f9;}.b{fill:#389ef8;}.c{fill:#2e3656;}.d{fill:#fff;}</style></defs><g transform="translate(-1316.949 -688.424)"><circle class="a" cx="16" cy="16" r="16" transform="translate(1391.144 724.424)"/><path class="b" d="M1434.532,745.049a1.294,1.294,0,0,0,.925-.388,18.026,18.026,0,0,1,12.781-5.421h.161a18.119,18.119,0,0,1,11.766,4.359,1.3,1.3,0,1,0,1.687-1.971,20.724,20.724,0,0,0-13.453-4.982h-.171a20.609,20.609,0,0,0-14.62,6.2,1.3,1.3,0,0,0,.925,2.207Z" transform="translate(-40.876 -16.951)"/><path class="b" d="M1480.189,749.15a1.3,1.3,0,1,0-1.287,2.025,1.313,1.313,0,0,0,.223.019,1.3,1.3,0,0,0,1.28-1.075A1.283,1.283,0,0,0,1480.189,749.15Z" transform="translate(-56.551 -21.151)"/><path class="b" d="M1397,794.121a1.693,1.693,0,0,0,1.661-2.026l-.619-3.1a1.693,1.693,0,0,0-1.661-1.361h-5.005a1.693,1.693,0,0,0-1.661,1.361l-.619,3.1a1.694,1.694,0,0,0,1.661,2.026h.358l-2.259,27.193a1.833,1.833,0,0,0,1.826,1.984h6.394a1.833,1.833,0,0,0,1.826-1.984l-2.259-27.193Z" transform="translate(-25.274 -34.874)"/><path class="c" d="M1362.374,722.739c.494.347.523.4.546.516a.2.2,0,0,0,.009.021c1.979,12.954,10.708,22.348,20.782,22.348s18.814-9.4,20.788-22.367v0c.023-.119.052-.169.546-.516a6.5,6.5,0,0,0,2.871-4.371c1.045-4.346-.1-6.19-1.253-6.973a3.055,3.055,0,0,0-1.279-.492,16.252,16.252,0,0,0-.391-7.993c-3.064-9.749-10.026-14.487-21.285-14.487-10.99,0-17.876,4.505-21.05,13.774a16.06,16.06,0,0,0-.442,8.684,3.049,3.049,0,0,0-1.46.514c-1.149.783-2.3,2.627-1.253,6.974A6.5,6.5,0,0,0,1362.374,722.739Zm2.739-19.7c2.808-8.2,8.716-12.021,18.6-12.021,10.116,0,16.094,4.026,18.81,12.671a13.933,13.933,0,0,1-.189,8.671c-.159-.291-.318-.585-.477-.893a2.546,2.546,0,0,0-2.81-1.318,39.772,39.772,0,0,1-6.4.883l-4.908-4.908a1.3,1.3,0,0,0-1.835,1.834l3.066,3.066a29.57,29.57,0,0,1-6.762-1.133c-1.652-.488-3.151-1.087-4.6-1.669-2.387-.956-4.449-1.782-6.437-1.782a5.826,5.826,0,0,0-2.983.772,7.485,7.485,0,0,0-3.179,4.113A13.516,13.516,0,0,1,1365.113,703.039Zm-2.9,10.5a.791.791,0,0,1,.844.114c.022.016.049.018.071.031a15.887,15.887,0,0,0,1.2,2.342,1.3,1.3,0,0,0,1.1.6,1.27,1.27,0,0,0,.29-.033,1.3,1.3,0,0,0,1-1.114c.366-3.154,1.294-5.18,2.759-6.022,1.671-.961,4.1-.06,7.164,1.169,1.435.575,3.062,1.228,4.831,1.749a35.481,35.481,0,0,0,18.081.28c.222.427.442.831.663,1.235.345.63.69,1.259,1.034,1.992a1.3,1.3,0,0,0,1.135.741h.041a1.3,1.3,0,0,0,1.139-.675,17.66,17.66,0,0,0,1.085-2.435.627.627,0,0,1,.559.025c.385.263.857,1.447.19,4.222a4.019,4.019,0,0,1-1.84,2.855,3.315,3.315,0,0,0-1.6,2.139c0,.01,0,.019,0,.029s-.008.018-.01.028c-1.763,11.715-9.431,20.217-18.233,20.217s-16.468-8.5-18.231-20.217c0-.014-.011-.025-.013-.038s0-.012,0-.019a3.318,3.318,0,0,0-1.6-2.139,4.019,4.019,0,0,1-1.84-2.854C1361.359,714.987,1361.831,713.8,1362.216,713.54Z" transform="translate(-14.814 0)"/><path class="c" d="M1415.086,802.029a30.989,30.989,0,0,0-25.643-28.72c-.047-.01-.093-.017-.141-.023v0c-.152-.028-.3-.052-.455-.065-.028,0-.055.01-.083.009a1.286,1.286,0,0,0-.972.318,19.311,19.311,0,0,1-25.82,0c-.017-.016-.04-.02-.058-.034a1.291,1.291,0,0,0-.268-.157,1.51,1.51,0,0,0-.676-.119c-.03,0-.057-.007-.087,0l-.427.077a30.989,30.989,0,0,0-25.648,28.721,1.3,1.3,0,0,0,.429,1.046,59.134,59.134,0,0,0,31.691,14.611,1.3,1.3,0,1,0,.344-2.571,56.553,56.553,0,0,1-14.439-3.927V797.944a1.3,1.3,0,0,0-2.594,0v12.072a56.938,56.938,0,0,1-12.8-8.453,28.378,28.378,0,0,1,21.941-25.368v10.08a1.3,1.3,0,0,0,1.967,1.111l10.772-6.5a19.418,19.418,0,0,0,5.521,0l10.771,6.5a1.3,1.3,0,0,0,1.968-1.111V776.168a28.377,28.377,0,0,1,22.07,25.395,56.939,56.939,0,0,1-11.63,7.878v-11.5a1.3,1.3,0,0,0-2.594,0v12.741a56.44,56.44,0,0,1-15.732,4.443,1.3,1.3,0,0,0,.167,2.582,1.374,1.374,0,0,0,.17-.011,59.272,59.272,0,0,0,31.824-14.624A1.3,1.3,0,0,0,1415.086,802.029Zm-53.108-18.05v-7.111a21.98,21.98,0,0,0,6.445,3.224Zm19.364-3.888a21.985,21.985,0,0,0,6.446-3.224v7.111Z" transform="translate(-6.277 -29.806)"/><path class="c" d="M1382.9,739.223h4.539a1.3,1.3,0,1,0,0-2.594H1382.9a1.3,1.3,0,0,0,0,2.594Z" transform="translate(-22.727 -16.945)"/><path class="c" d="M1404.9,739.223h4.539a1.3,1.3,0,1,0,0-2.594H1404.9a1.3,1.3,0,0,0,0,2.594Z" transform="translate(-30.461 -16.945)"/><path class="c" d="M1387.418,758.231a1.3,1.3,0,0,0,.251,1.816,9.183,9.183,0,0,0,11.813,0,1.3,1.3,0,0,0-1.566-2.067,6.637,6.637,0,0,1-8.682,0A1.3,1.3,0,0,0,1387.418,758.231Z" transform="translate(-24.678 -24.357)"/><circle class="c" cx="1.621" cy="1.621" r="1.621" transform="translate(1322.887 768.645)"/><path class="c" d="M1323.314,742.419v36.315a1.3,1.3,0,0,0,2.594,0V742.419a2.7,2.7,0,0,0-2.7-2.7h-3.563l-.092-.154,10.806-13.391a.062.062,0,0,1,.022,0c.051,0,.162.005.164,0l10.806,13.391,1.009-.814-1.1.968h-3.683a2.7,2.7,0,0,0-2.7,2.7v18.11a1.3,1.3,0,1,0,2.594,0v-18.11a.1.1,0,0,1,.1-.1h3.683a2.7,2.7,0,0,0,2.11-4.376l-10.8-13.379a2.79,2.79,0,0,0-4.233-.013l-10.817,13.406a2.7,2.7,0,0,0,2.121,4.362h3.563A.1.1,0,0,1,1323.314,742.419Z" transform="translate(0 -12.358)"/><g transform="translate(1334.9 731.668)"><path class="d" d="M77.408,8.7a2.994,2.994,0,0,0-1.745-1.027A2.364,2.364,0,0,0,76.969,5.1a2.542,2.542,0,0,0-.364-1.141,2.284,2.284,0,0,0-.823-.777,4.528,4.528,0,0,0-1.127-.449,8.888,8.888,0,0,0-1.4-.224V0H71.725V2.443q-.4,0-1.216.02V0H68.973V2.512q-.329.01-.967.01l-2.113-.01V4.147H67a.792.792,0,0,1,.887.678V7.687a1.013,1.013,0,0,1,.16.01h-.16V11.7a.532.532,0,0,1-.578.508H66.2l-.309,1.824h1.994q.189,0,.548,0t.538.005v2.542h1.536V14.077q.419.01,1.216.01v2.5h1.535V14.047a11.935,11.935,0,0,0,1.45-.149,5.9,5.9,0,0,0,1.211-.344,3.269,3.269,0,0,0,.967-.583,2.752,2.752,0,0,0,.643-.887,3.772,3.772,0,0,0,.324-1.246A2.953,2.953,0,0,0,77.408,8.7ZM70.539,4.257l.394-.005.538-.01q.214,0,.578.025a5.5,5.5,0,0,1,.613.08,3.415,3.415,0,0,1,.548.164,1.486,1.486,0,0,1,.478.279,1.384,1.384,0,0,1,.3.419,1.307,1.307,0,0,1,.125.583,1.387,1.387,0,0,1-.09.509.958.958,0,0,1-.269.384,2.727,2.727,0,0,1-.369.269,1.69,1.69,0,0,1-.483.184q-.294.07-.513.11a4.2,4.2,0,0,1-.548.055q-.329.015-.5.02t-.464,0l-.344-.005V4.257h0Zm4.192,6.789a1.418,1.418,0,0,1-.244.4,1.385,1.385,0,0,1-.394.3,3.378,3.378,0,0,1-.473.209,3.812,3.812,0,0,1-.553.14q-.324.06-.569.085t-.583.04q-.339.015-.528.015t-.479-.005l-.369,0V8.853q.08,0,.474-.01t.643-.01q.249,0,.688.03a5.878,5.878,0,0,1,.738.089,4.85,4.85,0,0,1,.653.185,1.893,1.893,0,0,1,.573.3,1.5,1.5,0,0,1,.369.459,1.424,1.424,0,0,1,.055,1.147Z"/></g></g></svg>