<svg width="136" height="111" viewBox="0 0 136 111" fill="none" xmlns="http://www.w3.org/2000/svg">
<g clip-path="url(#clip0_153_1114)">
<path opacity="0.5" d="M60.8398 80.4739L69.9895 9.49121C69.9895 9.49121 118.429 10.7725 128.744 60.6536C69.0825 84.6983 64.8366 85.6793 64.8366 85.6793C64.8366 85.6793 62.6439 81.3548 60.8398 80.4739Z" fill="url(#paint0_radial_153_1114)"/>
<path opacity="0.5" d="M73.747 84.6485L128.884 63.707C128.884 63.707 145.489 84.6285 126.283 128.003L67.9463 93.948C67.9463 93.948 75.2819 90.6747 73.747 84.6485Z" fill="url(#paint1_radial_153_1114)"/>
<path opacity="0.5" d="M52.6972 83.6176L-10.6924 46.97C-10.6924 46.97 20.3346 2.22419 65.4648 15.9583L59.8036 82.9669C59.8136 82.9769 54.3019 82.4063 52.6972 83.6176Z" fill="url(#paint2_radial_153_1114)"/>
<path d="M29.0156 74.6685L83.2356 106.611L83.714 105.79L29.494 73.8477" fill="url(#paint3_linear_153_1114)"/>
<path d="M33.9688 71.7752L88.1788 103.718L88.6672 102.887L34.4472 70.9443" fill="url(#paint4_linear_153_1114)"/>
<path d="M38.7236 68.2818L92.9437 100.224L93.4221 99.4037L39.202 67.4609" fill="url(#paint5_linear_153_1114)"/>
<path d="M66.3922 104.639L70.7876 102.096L70.3092 101.265L66.3922 103.538L55.7575 97.3713L59.1163 95.4093L58.6379 94.5785L54.8106 96.8207L44.146 90.6344L47.5149 88.6824L47.0364 87.8516L43.1892 90.0838L31.6575 83.397L23.6939 87.8015L15.3915 82.9365L14.9131 83.7574L23.674 88.8926L31.6376 84.4881L38.3752 88.4021L35.4449 90.0838L32.6442 88.4822C32.714 88.252 32.5944 88.0017 32.2854 87.8215C31.7871 87.5312 30.9698 87.5312 30.4615 87.8215C29.9631 88.1118 29.9631 88.5823 30.4615 88.8726C30.8103 89.0728 31.2987 89.1329 31.7372 89.0528L35.435 91.175L39.3221 88.9427L42.2224 90.6244L30.611 97.3713L38.5147 101.846C38.5446 101.956 38.6244 102.056 38.7639 102.136C39.1227 102.346 39.7008 102.346 40.0496 102.136C40.4084 101.926 40.4084 101.596 40.0496 101.385C39.8603 101.275 39.6211 101.225 39.3819 101.235L32.5246 97.3513L43.1693 91.1649L57.7509 99.6136L50.9833 103.468L47.3255 101.435L47.3155 101.445C46.9866 101.315 46.5281 101.325 46.2391 101.496C45.9102 101.686 45.9102 101.996 46.2391 102.186C46.4384 102.296 46.6976 102.346 46.9567 102.326L50.9833 104.569L58.7077 100.174L61.6479 101.876L47.7608 109.655L48.889 110.501L62.5948 102.416L66.3922 104.639Z" fill="url(#paint6_linear_153_1114)"/>
<path d="M102.243 81.8257C101.755 81.5454 100.967 81.5454 100.489 81.8257C100.18 82.0059 100.07 82.2562 100.15 82.4864L96.9309 84.3483L87.273 78.7526L94.5588 74.4882L82.9075 67.8214L101.097 57.3707C101.496 57.4207 101.934 57.3607 102.243 57.1805C102.732 56.9002 102.732 56.4397 102.243 56.1594C101.755 55.8791 100.967 55.8791 100.489 56.1594C100.18 56.3396 100.07 56.5899 100.15 56.8201L80.9938 67.8214L92.6551 74.4882L86.3361 78.192L62.2062 64.1977L54.2426 68.6022L51.7509 67.1407L60.2327 62.2156L63.9305 60.0734C64.2594 60.0734 64.5883 60.0134 64.8375 59.8632C65.3258 59.5829 65.3258 59.1225 64.8375 58.8422C64.3491 58.5619 63.5617 58.5619 63.0833 58.8422C62.7245 59.0524 62.6248 59.3627 62.8042 59.623L59.7643 61.3848L50.814 66.5901L46.8771 64.2777C47.0465 64.0175 46.9568 63.7172 46.598 63.507C46.1096 63.2267 45.3222 63.2267 44.8438 63.507C44.3554 63.7873 44.3554 64.2477 44.8438 64.528C45.103 64.6782 45.4418 64.7482 45.7708 64.7382L49.8671 67.1407L47.5748 68.472L56.1064 73.307L56.5749 72.4762L49.4884 68.462L50.804 67.6912L54.2327 69.7033L62.1962 65.2988L85.3892 78.7526L73.2794 85.8398L73.7578 86.6707L78.6117 83.8278L87.572 89.0431C87.4823 89.2734 87.5919 89.5236 87.9109 89.7038C88.3992 89.9841 89.1866 89.9841 89.665 89.7038C90.1534 89.4235 90.1534 88.963 89.665 88.6828C89.356 88.5026 88.9275 88.4425 88.5288 88.4926L79.5586 83.2672L86.346 79.3031L96.9508 85.4494L101.117 83.027C101.516 83.077 101.944 83.0069 102.253 82.8368C102.732 82.5665 102.732 82.106 102.243 81.8257Z" fill="url(#paint7_linear_153_1114)"/>
<path d="M50.5847 93.4366C48.6511 92.2554 47.3953 90.844 46.8371 89.3725C46.6179 88.7819 46.4982 88.1913 46.4883 87.6007V87.5406C46.4883 85.3684 47.9335 83.2262 50.8239 81.6245C56.515 78.4813 65.6248 78.6715 71.1863 82.055C74.0169 83.7767 75.3724 85.999 75.2727 88.1712C75.2428 88.7719 75.1033 89.3725 74.8541 89.9631C74.2262 91.4146 72.9305 92.7659 70.9371 93.8571C65.246 97.0103 56.1363 96.8101 50.5847 93.4366Z" fill="#6D67B1"/>
<path d="M50.5847 92.255C48.6511 91.0738 47.3953 89.6623 46.8371 88.1908C46.6179 87.6002 46.4982 87.0096 46.4883 86.419V86.359C46.4883 84.1867 47.9335 82.0445 50.8239 80.4429C56.515 77.2997 65.6248 77.4899 71.1863 80.8733C74.0169 82.5951 75.3724 84.8174 75.2727 86.9896C75.2428 87.5902 75.1033 88.1908 74.8541 88.7814C74.2262 90.2329 72.9305 91.5843 70.9371 92.6754C65.246 95.8287 56.1363 95.6284 50.5847 92.255Z" fill="url(#paint8_linear_153_1114)"/>
<path d="M50.5847 91.5958C48.6511 90.4146 47.3953 89.0032 46.8371 87.5317C46.6179 86.9411 46.4982 86.3504 46.4883 85.7598V85.6998C46.4883 83.5276 47.9335 81.3854 50.8239 79.7837C56.515 76.6405 65.6248 76.8307 71.1863 80.2142C74.0169 81.9359 75.3724 84.1582 75.2727 86.3304C75.2428 86.931 75.1033 87.5317 74.8541 88.1223C74.2262 89.5738 72.9305 90.9251 70.9371 92.0162C65.246 95.1695 56.1363 94.9693 50.5847 91.5958Z" fill="url(#paint9_linear_153_1114)"/>
<path d="M51.9303 90.8445C50.2459 89.8234 49.1595 88.5922 48.6711 87.3109C48.4817 86.8003 48.3721 86.2798 48.3721 85.7693V85.7192C48.3721 83.8373 49.6279 81.9654 52.1396 80.584C57.0832 77.8512 65.0069 78.0213 69.8308 80.9544C72.2927 82.4459 73.4688 84.3779 73.3791 86.2698C73.3591 86.7903 73.2296 87.3109 73.0103 87.8214C72.4721 89.0827 71.3358 90.2539 69.6116 91.2049C64.6779 93.9477 56.7543 93.7775 51.9303 90.8445Z" fill="url(#paint10_linear_153_1114)"/>
<path d="M56.6641 68.7722L63.4216 92.1762L71.5845 87.4313L64.827 64.0273L56.6641 68.7722Z" fill="url(#paint11_linear_153_1114)"/>
<path d="M56.664 68.7725L49.8965 84.3284L63.4216 92.1765L56.664 68.7725Z" fill="url(#paint12_linear_153_1114)"/>
<path d="M56.6638 71.2354L51.3115 83.5179L62.006 89.7143L56.6638 71.2354Z" fill="#ADD0FF"/>
<path d="M32.624 54.2375L87.9902 87.7519L95.2661 82.7167L40.3584 49.7529L32.624 54.2375Z" fill="#6D67B1"/>
<path d="M40.3681 49.7519L32.6338 54.2365L35.1554 31.7835L37.7369 30.292L40.3681 49.7519Z" fill="#6D67B1"/>
<path d="M41.0166 49.6321L33.2822 54.1167L35.8138 31.6636L38.3853 30.1621L41.0166 49.6321Z" fill="url(#paint13_linear_153_1114)"/>
<path d="M33.2822 54.1174L87.3428 86.1102L95.1469 81.5856L41.0165 49.6328L33.2822 54.1174Z" fill="url(#paint14_linear_153_1114)"/>
<path d="M41.4052 50.3125L34.6377 54.2365L37.5879 55.9783L47.7243 54.0263L41.4052 50.3125Z" fill="url(#paint15_linear_153_1114)"/>
<path d="M41.4052 50.3125L34.6377 54.2365L37.5879 55.9783L47.7243 54.0263L41.4052 50.3125Z" fill="url(#paint16_linear_153_1114)"/>
<path d="M93.7914 81.1543L84.2132 75.5186L83.3262 82.9762L86.9541 85.1183L93.7914 81.1543Z" fill="url(#paint17_linear_153_1114)"/>
<path d="M53.8737 57.6504L52.0995 56.6094L42.4316 58.8417L50.8437 63.8068L53.8737 57.6504Z" fill="url(#paint18_linear_153_1114)"/>
<path d="M53.8737 57.6504L52.0995 56.6094L42.4316 58.8417L50.8437 63.8068L53.8737 57.6504Z" fill="url(#paint19_linear_153_1114)"/>
<path d="M47.7242 54.0264L37.5879 55.9784L42.4318 58.8413L52.0997 56.609L47.7242 54.0264Z" fill="url(#paint20_linear_153_1114)"/>
<path d="M47.7242 54.0264L37.5879 55.9784L42.4318 58.8413L52.0997 56.609L47.7242 54.0264Z" fill="url(#paint21_linear_153_1114)"/>
<path d="M53.8737 57.6504L50.8438 63.8067L51.7806 64.3573L61.8472 62.3452L53.8737 57.6504Z" fill="url(#paint22_linear_153_1114)"/>
<path d="M53.8737 57.6504L50.8438 63.8067L51.7806 64.3573L61.8472 62.3452L53.8737 57.6504Z" fill="url(#paint23_linear_153_1114)"/>
<path d="M61.8469 62.3447L51.7803 64.3568L56.983 67.4299L64.3087 63.7962L61.8469 62.3447Z" fill="url(#paint24_linear_153_1114)"/>
<path d="M61.8469 62.3447L51.7803 64.3568L56.983 67.4299L64.3087 63.7962L61.8469 62.3447Z" fill="url(#paint25_linear_153_1114)"/>
<path d="M65.236 64.3374L64.3091 63.7969L56.9834 67.4306L65.4652 72.4357L65.236 64.3374Z" fill="url(#paint26_linear_153_1114)"/>
<path d="M65.236 64.3374L64.3091 63.7969L56.9834 67.4306L65.4652 72.4357L65.236 64.3374Z" fill="url(#paint27_linear_153_1114)"/>
<path d="M65.2354 64.3369L65.4646 72.4352L67.3583 73.5564L75.7006 70.5032L65.2354 64.3369Z" fill="url(#paint28_linear_153_1114)"/>
<path d="M65.2354 64.3369L65.4646 72.4352L67.3583 73.5564L75.7006 70.5032L65.2354 64.3369Z" fill="url(#paint29_linear_153_1114)"/>
<path d="M75.7007 70.5039L67.3584 73.557L77.425 79.4931L78.332 72.0555L75.7007 70.5039Z" fill="url(#paint30_linear_153_1114)"/>
<path d="M84.2132 75.5192L78.3328 72.0557L77.4258 79.4933L83.3262 82.9769L84.2132 75.5192Z" fill="url(#paint31_linear_153_1114)"/>
<path d="M23.4545 36.6693C19.7568 34.4169 17.3747 31.7242 16.3082 28.9213C15.8796 27.8002 15.6604 26.669 15.6504 25.5379V25.4277C15.6504 21.2835 18.4212 17.1893 23.9329 14.1462C34.7869 8.15004 52.1791 8.52042 62.7839 14.967C68.186 18.2504 70.7774 22.4847 70.5781 26.639C70.5282 27.7902 70.2591 28.9313 69.7707 30.0525C68.5847 32.8153 66.0929 35.398 62.3055 37.4901C51.4316 43.4862 34.0393 43.1058 23.4545 36.6693Z" fill="url(#paint32_linear_153_1114)"/>
<path d="M23.4545 35.3978C19.7568 33.1455 17.3747 30.4527 16.3082 27.6498C15.8796 26.5287 15.6604 25.3975 15.6504 24.2664V24.1563C15.6504 20.012 18.4212 15.9178 23.9329 12.8747C34.7869 6.87855 52.1791 7.24893 62.7839 13.6955C68.186 16.9789 70.7774 21.2132 70.5781 25.3675C70.5282 26.5187 70.2591 27.6598 69.7707 28.781C68.5847 31.5438 66.0929 34.1265 62.3055 36.2186C51.4316 42.2147 34.0393 41.8444 23.4545 35.3978Z" fill="url(#paint33_linear_153_1114)"/>
<path d="M26.026 33.9757C22.8166 32.0237 20.7435 29.6813 19.8066 27.2388C19.4378 26.2678 19.2385 25.2768 19.2285 24.2958V24.1957C19.2285 20.602 21.6305 17.0384 26.4246 14.3957C35.8633 9.19033 50.9731 9.51066 60.1826 15.1064C64.877 17.9593 67.1295 21.6431 66.9601 25.2568C66.9102 26.2578 66.681 27.2488 66.2624 28.2198C65.2258 30.6223 63.063 32.8646 59.7739 34.6864C50.3452 39.9018 35.2254 39.5714 26.026 33.9757Z" fill="url(#paint34_linear_153_1114)"/>
<path d="M15.8398 22.2235L47.2456 40.3621C47.2456 40.3621 48.5114 40.3121 50.1858 40.0518C52.1493 39.0508 69.8207 28.6301 69.8207 28.6301C69.8207 28.6301 70.1894 27.6992 70.1994 27.549C69.711 27.2887 17.0857 19.0703 17.0857 19.0703C16.5575 20.2515 15.8996 21.5929 15.8398 22.2235Z" fill="#6D67B1"/>
<path d="M46.5574 12.3431L23.3544 25.7969L11.7529 19.07V18.139L34.9559 5.61621L46.5574 11.4121V12.3431Z" fill="#C2DDFF"/>
<path d="M46.5574 11.432L23.3544 24.8858L11.7529 18.1589V17.2279L34.9559 4.70508L46.5574 10.501V11.432Z" fill="url(#paint35_linear_153_1114)"/>
<path d="M46.5574 11.432L23.3544 24.8858L11.7529 18.1589V17.2279L34.9559 4.70508L46.5574 10.501V11.432Z" fill="url(#paint36_linear_153_1114)"/>
<path d="M46.5574 11.0921L23.3544 24.5459L11.7529 17.819V16.8881L34.9559 4.36523L46.5574 10.1612V11.0921Z" fill="#91B9EC"/>
<path d="M46.5574 11.0921L23.3544 24.5459L11.7529 17.819V16.8881L34.9559 4.36523L46.5574 10.1612V11.0921Z" fill="#C2DDFF"/>
<path d="M46.5574 10.4017L23.3544 23.8555L11.7529 17.1286V16.1976L34.9559 3.6748L46.5574 9.47074V10.4017Z" fill="url(#paint37_linear_153_1114)"/>
<path d="M46.5574 10.4017L23.3544 23.8555L11.7529 17.1286V16.1976L34.9559 3.6748L46.5574 9.47074V10.4017Z" fill="url(#paint38_linear_153_1114)"/>
<path d="M46.5574 10.0609L23.3544 23.5147L11.7529 16.7878V15.8568L34.9559 3.33398L46.5574 9.12992V10.0609Z" fill="#91B9EC"/>
<path d="M46.5574 10.0609L23.3544 23.5147L11.7529 16.7878V15.8568L34.9559 3.33398L46.5574 9.12992V10.0609Z" fill="#C2DDFF"/>
<path d="M46.5574 9.13021L23.3544 22.584L11.7529 15.8571L34.9559 2.40332L46.5574 9.13021Z" fill="#FFFAEF"/>
<path d="M44.9627 9.1602L23.4043 21.663L13.3477 15.827L34.9061 3.32422L44.9627 9.1602Z" fill="#65A8EB"/>
<path d="M42.142 10.051L24.9391 20.0212C24.1218 19.5408 22.8759 19.4907 22.1683 19.9011L16.3675 16.5377C17.0752 16.1273 16.9855 15.4065 16.1582 14.936L33.3611 4.96582C34.1784 5.44631 35.4242 5.49636 36.1319 5.08594L41.9426 8.44939C41.235 8.85981 41.3247 9.58055 42.142 10.051Z" fill="#FFFAEF"/>
<path d="M35.3457 13.5308C35.6619 11.6222 33.1451 9.61156 29.7244 9.04C26.3037 8.46845 23.2743 9.55239 22.9582 11.4611C22.642 13.3697 25.1588 15.3803 28.5795 15.9519C32.0002 16.5234 35.0296 15.4395 35.3457 13.5308Z" fill="#3784D1"/>
<path d="M35.3457 13.5308C35.6619 11.6222 33.1451 9.61156 29.7244 9.04C26.3037 8.46845 23.2743 9.55239 22.9582 11.4611C22.642 13.3697 25.1588 15.3803 28.5795 15.9519C32.0002 16.5234 35.0296 15.4395 35.3457 13.5308Z" fill="#65A8EB"/>
<path d="M34.8277 13.4664C35.1158 11.7268 32.8229 9.89443 29.7062 9.37368C26.5896 8.85293 23.8294 9.84102 23.5413 11.5806C23.2531 13.3202 25.5461 15.1526 28.6627 15.6734C31.7794 16.1941 34.5395 15.206 34.8277 13.4664Z" fill="#C9E1FF"/>
<path d="M38.1643 8.49187C38.2271 7.93151 37.4844 7.38748 36.5052 7.27675C35.5261 7.16601 34.6815 7.5305 34.6186 8.09085C34.5558 8.65121 35.2986 9.19524 36.2777 9.30598C37.2568 9.41671 38.1015 9.05222 38.1643 8.49187Z" fill="#3784D1"/>
<path d="M37.749 8.4451C37.797 8.0166 37.2285 7.60052 36.4791 7.51576C35.7297 7.43101 35.0833 7.70967 35.0352 8.13818C34.9872 8.56669 35.5557 8.98277 36.3051 9.06752C37.0545 9.15228 37.7009 8.87361 37.749 8.4451Z" fill="#91B9EC"/>
<path d="M23.679 16.8981C23.7418 16.3378 22.999 15.7937 22.0199 15.683C21.0408 15.5723 20.1961 15.9368 20.1333 16.4971C20.0705 17.0575 20.8133 17.6015 21.7924 17.7122C22.7715 17.823 23.6161 17.4585 23.679 16.8981Z" fill="#3784D1"/>
<path d="M23.679 16.8981C23.7418 16.3378 22.999 15.7937 22.0199 15.683C21.0408 15.5723 20.1961 15.9368 20.1333 16.4971C20.0705 17.0575 20.8133 17.6015 21.7924 17.7122C22.7715 17.823 23.6161 17.4585 23.679 16.8981Z" fill="#65A8EB"/>
<path d="M23.2958 16.8787C23.3439 16.4502 22.7753 16.0341 22.026 15.9494C21.2766 15.8646 20.6302 16.1433 20.5821 16.5718C20.5341 17.0003 21.1026 17.4164 21.852 17.5011C22.6014 17.5859 23.2478 17.3072 23.2958 16.8787Z" fill="#C9E1FF"/>
<path d="M29.3645 12.9738C29.0754 13.0439 28.8063 13.114 28.5472 13.164C28.298 13.2141 28.0488 13.2441 27.7997 13.2441C27.5605 13.2441 27.3212 13.2241 27.092 13.164C26.8628 13.104 26.6236 13.0139 26.3844 12.8737C26.0156 12.6635 25.8063 12.4233 25.7564 12.163C25.7066 11.9027 25.8162 11.6425 26.0953 11.3722L25.4375 10.9918C25.4674 10.9618 25.5172 10.9117 25.597 10.8517C25.6667 10.7916 25.7564 10.7315 25.8461 10.6815C26.0255 10.5714 26.2149 10.5113 26.3844 10.4913C26.5638 10.4713 26.7731 10.5313 27.0023 10.6715L27.1119 10.7315C27.4508 10.5914 27.7698 10.5013 28.0787 10.4713C28.3877 10.4412 28.6568 10.4913 28.8761 10.6314C29.0156 10.7115 29.1053 10.8016 29.1552 10.8917C29.195 10.9818 29.215 11.0719 29.205 11.162C29.0256 11.182 28.8163 11.222 28.587 11.2921C28.3578 11.3622 28.1385 11.4523 27.9292 11.5724C27.7199 11.6925 27.5904 11.8026 27.5605 11.9027C27.5306 12.0028 27.5605 12.0729 27.6701 12.133C27.7498 12.183 27.8495 12.203 27.9591 12.193C28.0688 12.183 28.2083 12.163 28.3777 12.113L28.886 11.9728C29.494 11.8126 30.0422 11.7326 30.5306 11.7426C31.019 11.7526 31.4774 11.8827 31.916 12.133C32.2848 12.3432 32.4941 12.5834 32.5439 12.8537C32.5937 13.124 32.4741 13.3943 32.1751 13.6746L32.823 14.0449C32.7931 14.075 32.7432 14.125 32.6635 14.1851C32.5937 14.2451 32.504 14.3052 32.4143 14.3552C32.2349 14.4654 32.0456 14.5254 31.8761 14.5454C31.6967 14.5655 31.4874 14.5054 31.2582 14.3653L31.1784 14.3152C30.9891 14.4053 30.7997 14.4754 30.6103 14.5254C30.421 14.5755 30.2416 14.6155 30.0621 14.6255C29.8827 14.6455 29.7133 14.6355 29.5538 14.6055C29.3944 14.5755 29.2548 14.5254 29.1253 14.4554C28.9658 14.3653 28.8761 14.2652 28.8462 14.155C28.8163 14.0449 28.8163 13.9448 28.8561 13.8547C29.1053 13.8447 29.3744 13.8147 29.6535 13.7546C29.9326 13.6946 30.1818 13.5945 30.411 13.4643C30.6402 13.3342 30.7698 13.2141 30.7798 13.114C30.7897 13.0139 30.7499 12.9338 30.6402 12.8637C30.5306 12.8037 30.411 12.7736 30.2814 12.7836C30.1518 12.7937 29.9924 12.8237 29.793 12.8737L29.3645 12.9738Z" fill="#3784D1"/>
<path d="M38.0953 14.0553L33.5204 16.688L21.9189 9.96106L26.3144 7.43848L38.0953 14.0553Z" fill="#E6E6E6"/>
<path d="M33.5303 16.6879V19.9012L38.0951 17.2084V13.9951L33.5303 16.6879Z" fill="#CCCCCC"/>
<path d="M59.0759 19.6214L35.873 33.0752L24.2715 26.3483V25.4174L47.4745 12.8945L59.0759 18.6905V19.6214Z" fill="#91B9EC"/>
<path d="M59.0759 19.6214L35.873 33.0752L24.2715 26.3483V25.4174L47.4745 12.8945L59.0759 18.6905V19.6214Z" fill="#C2DDFF"/>
<path d="M59.0759 18.7103L35.873 32.1641L24.2715 25.4372V24.5062L47.4745 11.9834L59.0759 17.7793V18.7103Z" fill="url(#paint39_linear_153_1114)"/>
<path d="M59.0759 18.7103L35.873 32.1641L24.2715 25.4372V24.5062L47.4745 11.9834L59.0759 17.7793V18.7103Z" fill="url(#paint40_linear_153_1114)"/>
<path d="M59.0759 18.3704L35.873 31.8242L24.2715 25.0973V24.1664L47.4745 11.6436L59.0759 17.4395V18.3704Z" fill="#91B9EC"/>
<path d="M59.0759 18.3704L35.873 31.8242L24.2715 25.0973V24.1664L47.4745 11.6436L59.0759 17.4395V18.3704Z" fill="#C2DDFF"/>
<path d="M59.0759 17.68L35.873 31.1338L24.2715 24.4069V23.476L47.4745 10.9531L59.0759 16.7491V17.68Z" fill="url(#paint41_linear_153_1114)"/>
<path d="M59.0759 17.68L35.873 31.1338L24.2715 24.4069V23.476L47.4745 10.9531L59.0759 16.7491V17.68Z" fill="url(#paint42_linear_153_1114)"/>
<path d="M59.0759 17.3392L35.873 30.793L24.2715 24.0661V23.1351L47.4745 10.6123L59.0759 16.4082V17.3392Z" fill="#91B9EC"/>
<path d="M59.0759 17.3392L35.873 30.793L24.2715 24.0661V23.1351L47.4745 10.6123L59.0759 16.4082V17.3392Z" fill="#C2DDFF"/>
<path d="M59.0759 16.4085L35.873 29.8623L24.2715 23.1354L47.4745 9.68164L59.0759 16.4085Z" fill="#FFFAEF"/>
<path d="M57.4815 16.4385L35.923 28.9413L25.8564 23.1054L47.4149 10.6025L57.4815 16.4385Z" fill="#65A8EB"/>
<path d="M54.6607 17.3294L37.4578 27.2996C36.6405 26.8191 35.3947 26.769 34.687 27.1794L28.8763 23.816C29.5839 23.4056 29.4942 22.6848 28.667 22.2144L45.8699 12.2441C46.6872 12.7246 47.933 12.7747 48.6407 12.3643L54.4514 15.7277C53.7437 16.1381 53.8434 16.8489 54.6607 17.3294Z" fill="#FFFAEF"/>
<path d="M47.8604 20.8062C48.1765 18.8976 45.6598 16.8869 42.239 16.3154C38.8183 15.7438 35.789 16.8278 35.4728 18.7364C35.1567 20.6451 37.6734 22.6557 41.0941 23.2273C44.5149 23.7988 47.5442 22.7149 47.8604 20.8062Z" fill="#3784D1"/>
<path d="M47.3101 20.7135C47.5983 18.9739 45.3053 17.1415 42.1887 16.6207C39.072 16.1 36.3119 17.0881 36.0237 18.8277C35.7355 20.5673 38.0285 22.3997 41.1452 22.9204C44.2618 23.4412 47.022 22.4531 47.3101 20.7135Z" fill="#91B9EC"/>
<path d="M50.679 15.777C50.7418 15.2167 49.999 14.6727 49.0199 14.5619C48.0408 14.4512 47.1961 14.8157 47.1333 15.376C47.0705 15.9364 47.8133 16.4804 48.7924 16.5911C49.7715 16.7019 50.6161 16.3374 50.679 15.777Z" fill="#3784D1"/>
<path d="M50.2626 15.7303C50.3107 15.3017 49.7421 14.8857 48.9928 14.8009C48.2434 14.7162 47.597 14.9948 47.5489 15.4233C47.5009 15.8518 48.0694 16.2679 48.8188 16.3527C49.5681 16.4374 50.2146 16.1588 50.2626 15.7303Z" fill="#91B9EC"/>
<path d="M36.1946 24.1725C36.2574 23.6122 35.5146 23.0681 34.5355 22.9574C33.5564 22.8467 32.7117 23.2112 32.6489 23.7715C32.5861 24.3319 33.3289 24.8759 34.308 24.9866C35.2871 25.0974 36.1318 24.7329 36.1946 24.1725Z" fill="#65A8EB"/>
<path d="M35.8115 24.1531C35.8595 23.7246 35.291 23.3085 34.5416 23.2238C33.7922 23.139 33.1458 23.4177 33.0977 23.8462C33.0497 24.2747 33.6182 24.6908 34.3676 24.7755C35.117 24.8603 35.7634 24.5816 35.8115 24.1531Z" fill="#C9E1FF"/>
<path d="M41.8733 20.2522C41.5842 20.3222 41.3151 20.3923 41.056 20.4424C40.8068 20.4924 40.5576 20.5224 40.3085 20.5224C40.0692 20.5224 39.83 20.5024 39.6008 20.4424C39.3716 20.3823 39.1324 20.2922 38.8931 20.1521C38.5244 19.9418 38.3151 19.7016 38.2652 19.4413C38.2154 19.1811 38.325 18.9208 38.6041 18.6505L37.9463 18.2701C37.9762 18.2401 38.026 18.19 38.1058 18.13C38.1755 18.0699 38.2652 18.0099 38.3549 17.9598C38.5343 17.8497 38.7237 17.7896 38.8931 17.7696C39.0726 17.7496 39.2819 17.8097 39.5111 17.9498L39.6207 18.0099C39.9596 17.8697 40.2785 17.7796 40.5875 17.7496C40.8965 17.7196 41.1656 17.7696 41.3849 17.9098C41.5244 17.9898 41.6141 18.0799 41.6639 18.17C41.7038 18.2601 41.7238 18.3502 41.7138 18.4403C41.5344 18.4603 41.3251 18.5004 41.0958 18.5704C40.8666 18.6405 40.6473 18.7306 40.438 18.8507C40.2287 18.9708 40.0991 19.081 40.0692 19.1811C40.0393 19.2812 40.0692 19.3512 40.1789 19.4113C40.2586 19.4614 40.3583 19.4814 40.4679 19.4714C40.5776 19.4614 40.7171 19.4413 40.8865 19.3913L41.3948 19.2511C42.0028 19.091 42.551 19.0109 43.0394 19.0209C43.5278 19.0309 43.9862 19.161 44.4248 19.4113C44.7936 19.6215 45.0029 19.8618 45.0527 20.132C45.1025 20.4023 44.9829 20.6726 44.6839 20.9529L45.3318 21.3233C45.3019 21.3533 45.252 21.4033 45.1723 21.4634C45.1025 21.5235 45.0128 21.5835 44.9231 21.6336C44.7437 21.7437 44.5544 21.8038 44.3849 21.8238C44.2055 21.8438 43.9962 21.7837 43.767 21.6436L43.6872 21.5935C43.4979 21.6836 43.3085 21.7537 43.1191 21.8038C42.9298 21.8538 42.7503 21.8938 42.5709 21.9039C42.3915 21.9239 42.2221 21.9139 42.0626 21.8838C41.9032 21.8538 41.7636 21.8038 41.6341 21.7337C41.4746 21.6436 41.3849 21.5435 41.355 21.4334C41.3251 21.3233 41.3251 21.2232 41.3649 21.1331C41.6141 21.1231 41.8832 21.093 42.1623 21.033C42.4414 20.9729 42.6905 20.8728 42.9198 20.7427C43.149 20.6125 43.2786 20.4924 43.2886 20.3923C43.2985 20.2922 43.2587 20.2121 43.149 20.1421C43.0394 20.082 42.9198 20.052 42.7902 20.062C42.6606 20.072 42.5012 20.102 42.3018 20.1521L41.8733 20.2522Z" fill="#3784D1"/>
<path d="M50.614 21.3336L46.0292 23.9663L34.4277 17.2394L38.8331 14.7168L50.614 21.3336Z" fill="#E6E6E6"/>
<path d="M46.0391 23.9662V27.1795L50.6139 24.4867V21.2734L46.0391 23.9662Z" fill="#CCCCCC"/>
<path d="M71.5847 26.8978L48.3818 40.3516L36.7803 33.6247V32.6937L59.9832 20.1709L71.5847 25.9668V26.8978Z" fill="#91B9EC"/>
<path d="M71.5847 26.8978L48.3818 40.3516L36.7803 33.6247V32.6937L59.9832 20.1709L71.5847 25.9668V26.8978Z" fill="#C2DDFF"/>
<path d="M71.5847 25.9867L48.3818 39.4405L36.7803 32.7136V31.7826L59.9832 19.2598L71.5847 25.0557V25.9867Z" fill="url(#paint43_linear_153_1114)"/>
<path d="M71.5847 25.6468L48.3818 39.1006L36.7803 32.3737V31.4428L59.9832 18.9199L71.5847 24.7159V25.6468Z" fill="#91B9EC"/>
<path d="M71.5847 25.6468L48.3818 39.1006L36.7803 32.3737V31.4428L59.9832 18.9199L71.5847 24.7159V25.6468Z" fill="#C2DDFF"/>
<path d="M71.5847 24.9564L48.3818 38.4102L36.7803 31.6833V30.7523L59.9832 18.2295L71.5847 24.0254V24.9564Z" fill="url(#paint44_linear_153_1114)"/>
<path d="M71.5847 24.9564L48.3818 38.4102L36.7803 31.6833V30.7523L59.9832 18.2295L71.5847 24.0254V24.9564Z" fill="url(#paint45_linear_153_1114)"/>
<path d="M71.5847 24.6156L48.3818 38.0694L36.7803 31.3425V30.4115L59.9832 17.8887L71.5847 23.6846V24.6156Z" fill="#91B9EC"/>
<path d="M71.5847 24.6156L48.3818 38.0694L36.7803 31.3425V30.4115L59.9832 17.8887L71.5847 23.6846V24.6156Z" fill="#C2DDFF"/>
<path d="M71.5847 23.6849L48.3818 37.1387L36.7803 30.4118L59.9833 16.958L71.5847 23.6849Z" fill="#FFFAEF"/>
<path d="M70 23.7149L48.4416 36.2177L38.375 30.3817L59.9334 17.8789L70 23.7149Z" fill="#65A8EB"/>
<path d="M67.1793 24.6057L49.9764 34.5759C49.1591 34.0954 47.9132 34.0454 47.2056 34.4558L41.3948 31.0924C42.1025 30.6819 42.0128 29.9612 41.1855 29.4907L58.3884 19.5205C59.2057 20.001 60.4516 20.0511 61.1592 19.6406L66.9699 23.0041C66.2623 23.4145 66.352 24.1252 67.1793 24.6057Z" fill="#FFFAEF"/>
<path d="M60.375 28.0884C60.6912 26.1798 58.1744 24.1692 54.7537 23.5976C51.333 23.0261 48.3036 24.11 47.9875 26.0187C47.6713 27.9273 50.1881 29.9379 53.6088 30.5095C57.0295 31.0811 60.0589 29.9971 60.375 28.0884Z" fill="#3784D1"/>
<path d="M60.375 28.0884C60.6912 26.1798 58.1744 24.1692 54.7537 23.5976C51.333 23.0261 48.3036 24.11 47.9875 26.0187C47.6713 27.9273 50.1881 29.9379 53.6088 30.5095C57.0295 31.0811 60.0589 29.9971 60.375 28.0884Z" fill="#65A8EB"/>
<path d="M59.857 28.024C60.1451 26.2844 57.8522 24.452 54.7355 23.9313C51.6189 23.4105 48.8587 24.3986 48.5706 26.1382C48.2824 27.8779 50.5754 29.7102 53.692 30.231C56.8087 30.7517 59.5688 29.7637 59.857 28.024Z" fill="#C9E1FF"/>
<path d="M63.1946 23.0495C63.2574 22.4891 62.5146 21.9451 61.5355 21.8344C60.5564 21.7236 59.7117 22.0881 59.6489 22.6485C59.5861 23.2088 60.3289 23.7529 61.308 23.8636C62.2871 23.9743 63.1318 23.6098 63.1946 23.0495Z" fill="#3784D1"/>
<path d="M63.1946 23.0495C63.2574 22.4891 62.5146 21.9451 61.5355 21.8344C60.5564 21.7236 59.7117 22.0881 59.6489 22.6485C59.5861 23.2088 60.3289 23.7529 61.308 23.8636C62.2871 23.9743 63.1318 23.6098 63.1946 23.0495Z" fill="#65A8EB"/>
<path d="M62.8115 23.0301C62.8595 22.6016 62.291 22.1855 61.5416 22.1007C60.7922 22.016 60.1458 22.2946 60.0977 22.7231C60.0497 23.1517 60.6182 23.5677 61.3676 23.6525C62.117 23.7372 62.7634 23.4586 62.8115 23.0301Z" fill="#C9E1FF"/>
<path d="M48.7102 31.446C48.7731 30.8856 48.0303 30.3416 47.0511 30.2308C46.072 30.1201 45.2274 30.4846 45.1645 31.045C45.1017 31.6053 45.8445 32.1493 46.8236 32.2601C47.8027 32.3708 48.6474 32.0063 48.7102 31.446Z" fill="#3784D1"/>
<path d="M48.7102 31.446C48.7731 30.8856 48.0303 30.3416 47.0511 30.2308C46.072 30.1201 45.2274 30.4846 45.1645 31.045C45.1017 31.6053 45.8445 32.1493 46.8236 32.2601C47.8027 32.3708 48.6474 32.0063 48.7102 31.446Z" fill="#65A8EB"/>
<path d="M48.3271 31.4265C48.3751 30.998 47.8066 30.582 47.0572 30.4972C46.3078 30.4125 45.6614 30.6911 45.6134 31.1196C45.5653 31.5481 46.1339 31.9642 46.8832 32.049C47.6326 32.1337 48.279 31.855 48.3271 31.4265Z" fill="#C9E1FF"/>
<path d="M54.3918 27.5285C54.1028 27.5986 53.8337 27.6687 53.5745 27.7187C53.3254 27.7688 53.0762 27.7988 52.827 27.7988C52.5878 27.7988 52.3486 27.7788 52.1194 27.7187C51.8901 27.6587 51.6509 27.5686 51.4117 27.4284C51.0429 27.2182 50.8336 26.978 50.7838 26.7177C50.734 26.4574 50.8436 26.1972 51.1227 25.9269L50.4648 25.5465C50.4947 25.5165 50.5446 25.4664 50.6243 25.4063C50.6941 25.3463 50.7838 25.2862 50.8735 25.2362C51.0529 25.1261 51.2423 25.066 51.4117 25.046C51.5911 25.026 51.8004 25.086 52.0297 25.2262L52.1393 25.2862C52.4782 25.1461 52.7971 25.056 53.1061 25.026C53.4151 24.9959 53.6842 25.046 53.9034 25.1861C54.043 25.2662 54.1327 25.3563 54.1825 25.4464C54.2224 25.5365 54.2423 25.6266 54.2323 25.7167C54.0529 25.7367 53.8436 25.7767 53.6144 25.8468C53.3851 25.9169 53.1659 26.007 52.9566 26.1271C52.7473 26.2472 52.6177 26.3573 52.5878 26.4574C52.5579 26.5575 52.5878 26.6276 52.6974 26.6877C52.7772 26.7377 52.8768 26.7577 52.9865 26.7477C53.0961 26.7377 53.2356 26.7177 53.4051 26.6676L53.9134 26.5275C54.5214 26.3673 55.0696 26.2873 55.5579 26.2973C56.0463 26.3073 56.5048 26.4374 56.9433 26.6877C57.3121 26.8979 57.5214 27.1381 57.5713 27.4084C57.6211 27.6787 57.5015 27.949 57.2025 28.2292L57.8503 28.5996C57.8204 28.6297 57.7706 28.6797 57.6909 28.7398C57.6211 28.7998 57.5314 28.8599 57.4417 28.9099C57.2623 29.02 57.0729 29.0801 56.9035 29.1001C56.7241 29.1202 56.5148 29.0601 56.2855 28.9199L56.2058 28.8699C56.0164 28.96 55.8271 29.0301 55.6377 29.0801C55.4483 29.1302 55.2689 29.1702 55.0895 29.1802C54.9101 29.2002 54.7407 29.1902 54.5812 29.1602C54.4217 29.1302 54.2822 29.0801 54.1526 29.01C53.9931 28.9199 53.9034 28.8198 53.8735 28.7097C53.8436 28.5996 53.8436 28.4995 53.8835 28.4094C54.1327 28.3994 54.4018 28.3694 54.6809 28.3093C54.9599 28.2493 55.2091 28.1492 55.4383 28.019C55.6676 27.8889 55.7971 27.7688 55.8071 27.6687C55.8171 27.5686 55.7772 27.4885 55.6676 27.4184C55.5579 27.3583 55.4383 27.3283 55.3088 27.3383C55.1792 27.3483 55.0197 27.3784 54.8204 27.4284L54.3918 27.5285Z" fill="#65A8EB"/>
<path d="M63.1226 28.6102L58.5478 31.2429L46.9463 24.516L51.3417 21.9834L63.1226 28.6102Z" fill="#E6E6E6"/>
<path d="M58.5576 31.2426V34.4559L63.1225 31.7631V28.5498L58.5576 31.2426Z" fill="#CCCCCC"/>
<path d="M55.6179 10.8626L32.415 24.3164L20.8135 17.5895V16.6586L44.0165 4.13574L55.6179 9.93168V10.8626Z" fill="#91B9EC"/>
<path d="M55.6179 10.8626L32.415 24.3164L20.8135 17.5895V16.6586L44.0165 4.13574L55.6179 9.93168V10.8626Z" fill="#C2DDFF"/>
<path d="M55.6179 9.94076L32.415 23.3945L20.8135 16.6677V15.7367L44.0165 3.21387L55.6179 9.00981V9.94076Z" fill="url(#paint46_linear_153_1114)"/>
<path d="M55.6179 9.94076L32.415 23.3945L20.8135 16.6677V15.7367L44.0165 3.21387L55.6179 9.00981V9.94076Z" fill="url(#paint47_linear_153_1114)"/>
<path d="M55.6179 9.60091L32.415 23.0547L20.8135 16.3278V15.3969L44.0165 2.87402L55.6179 8.66996V9.60091Z" fill="#91B9EC"/>
<path d="M55.6179 9.60091L32.415 23.0547L20.8135 16.3278V15.3969L44.0165 2.87402L55.6179 8.66996V9.60091Z" fill="#C2DDFF"/>
<path d="M55.6179 8.91048L32.415 22.3643L20.8135 15.6374V14.7064L44.0165 2.18359L55.6179 7.97953V8.91048Z" fill="url(#paint48_linear_153_1114)"/>
<path d="M55.6179 8.91048L32.415 22.3643L20.8135 15.6374V14.7064L44.0165 2.18359L55.6179 7.97953V8.91048Z" fill="url(#paint49_linear_153_1114)"/>
<path d="M55.6179 8.56967L32.415 22.0235L20.8135 15.2966V14.3656L44.0165 1.84277L55.6179 7.63871V8.56967Z" fill="#91B9EC"/>
<path d="M55.6179 8.56967L32.415 22.0235L20.8135 15.2966V14.3656L44.0165 1.84277L55.6179 7.63871V8.56967Z" fill="#C2DDFF"/>
<path d="M55.6179 7.639L32.415 21.0928L20.8135 14.3659L44.0165 0.912109L55.6179 7.639Z" fill="#FFFAEF"/>
<path d="M54.0235 7.66899L32.465 20.1718L22.3984 14.3358L43.9569 1.83301L54.0235 7.66899Z" fill="#65A8EB"/>
<path d="M51.2027 8.55982L33.9998 18.53C33.1825 18.0495 31.9366 17.9995 31.229 18.4099L25.4183 15.0465C26.1259 14.636 26.0362 13.9153 25.209 13.4448L42.4119 3.47461C43.2292 3.9551 44.475 4.00515 45.1827 3.59473L50.9934 6.95818C50.2857 7.3686 50.3854 8.08934 51.2027 8.55982Z" fill="#FFFAEF"/>
<path d="M44.4004 12.0396C44.7166 10.131 42.1998 8.12034 38.7791 7.54879C35.3584 6.97723 32.329 8.06118 32.0129 9.96984C31.6967 11.8785 34.2135 13.8891 37.6342 14.4607C41.0549 15.0322 44.0842 13.9483 44.4004 12.0396Z" fill="#3784D1"/>
<path d="M44.4004 12.0396C44.7166 10.131 42.1998 8.12034 38.7791 7.54879C35.3584 6.97723 32.329 8.06118 32.0129 9.96984C31.6967 11.8785 34.2135 13.8891 37.6342 14.4607C41.0549 15.0322 44.0842 13.9483 44.4004 12.0396Z" fill="#65A8EB"/>
<path d="M43.8824 11.9752C44.1705 10.2356 41.8776 8.40322 38.7609 7.88247C35.6443 7.36172 32.8841 8.3498 32.596 10.0894C32.3078 11.829 34.6008 13.6614 37.7174 14.1822C40.8341 14.7029 43.5942 13.7148 43.8824 11.9752Z" fill="#C9E1FF"/>
<path d="M47.2278 7.01139C47.2906 6.45104 46.5478 5.90701 45.5687 5.79628C44.5896 5.68554 43.7449 6.05002 43.6821 6.61038C43.6193 7.17073 44.3621 7.71477 45.3412 7.82551C46.3203 7.93624 47.165 7.57175 47.2278 7.01139Z" fill="#3784D1"/>
<path d="M46.8124 6.96463C46.8605 6.53612 46.2919 6.12005 45.5426 6.03529C44.7932 5.95054 44.1468 6.2292 44.0987 6.65771C44.0507 7.08621 44.6192 7.5023 45.3686 7.58705C46.118 7.67181 46.7644 7.39314 46.8124 6.96463Z" fill="#91B9EC"/>
<path d="M32.7434 15.4069C32.8062 14.8465 32.0635 14.3025 31.0843 14.1918C30.1052 14.081 29.2606 14.4455 29.1977 15.0059C29.1349 15.5662 29.8777 16.1103 30.8568 16.221C31.8359 16.3318 32.6806 15.9673 32.7434 15.4069Z" fill="#3784D1"/>
<path d="M32.7434 15.4069C32.8062 14.8465 32.0635 14.3025 31.0843 14.1918C30.1052 14.081 29.2606 14.4455 29.1977 15.0059C29.1349 15.5662 29.8777 16.1103 30.8568 16.221C31.8359 16.3318 32.6806 15.9673 32.7434 15.4069Z" fill="#65A8EB"/>
<path d="M32.3603 15.3875C32.4083 14.959 31.8398 14.5429 31.0904 14.4581C30.341 14.3734 29.6946 14.6521 29.6466 15.0806C29.5985 15.5091 30.1671 15.9252 30.9164 16.0099C31.6658 16.0947 32.3122 15.816 32.3603 15.3875Z" fill="#C9E1FF"/>
<path d="M38.4152 11.4826C38.1262 11.5527 37.8571 11.6228 37.598 11.6728C37.3488 11.7229 37.0996 11.7529 36.8504 11.7529C36.6112 11.7529 36.372 11.7329 36.1428 11.6728C35.9136 11.6128 35.6743 11.5227 35.4351 11.3825C35.0664 11.1723 34.8571 10.9321 34.8072 10.6718C34.7574 10.4115 34.867 10.1513 35.1461 9.88098L34.4883 9.50059C34.5182 9.47056 34.568 9.42051 34.6478 9.36045C34.7175 9.30039 34.8072 9.24033 34.8969 9.19028C35.0763 9.08016 35.2657 9.0201 35.4351 9.00008C35.6145 8.98006 35.8238 9.04012 36.0531 9.18027L36.1627 9.24033C36.5016 9.10018 36.8205 9.01009 37.1295 8.98006C37.4385 8.95003 37.7076 9.00008 37.9269 9.14023C38.0664 9.22031 38.1561 9.3104 38.2059 9.40049C38.2458 9.49058 38.2657 9.58068 38.2558 9.67077C38.0764 9.69079 37.8671 9.73083 37.6378 9.8009C37.4086 9.87097 37.1893 9.96107 36.98 10.0812C36.7707 10.2013 36.6411 10.3114 36.6112 10.4115C36.5813 10.5116 36.6112 10.5817 36.7209 10.6418C36.8006 10.6918 36.9003 10.7118 37.0099 10.7018C37.1195 10.6918 37.2591 10.6718 37.4285 10.6217L37.9368 10.4816C38.5448 10.3214 39.093 10.2414 39.5814 10.2514C40.0698 10.2614 40.5282 10.3915 40.9668 10.6418C41.3355 10.852 41.5449 11.0922 41.5947 11.3625C41.6445 11.6328 41.5249 11.9031 41.2259 12.1833L41.8738 12.5537C41.8439 12.5838 41.794 12.6338 41.7143 12.6939C41.6445 12.7539 41.5548 12.814 41.4651 12.864C41.2857 12.9742 41.0963 13.0342 40.9269 13.0542C40.7475 13.0743 40.5382 13.0142 40.309 12.8741L40.2292 12.824C40.0399 12.9141 39.8505 12.9842 39.6611 13.0342C39.4717 13.0843 39.2923 13.1243 39.1129 13.1343C38.9335 13.1543 38.7641 13.1443 38.6046 13.1143C38.4451 13.0843 38.3056 13.0342 38.176 12.9641C38.0166 12.8741 37.9269 12.7739 37.897 12.6638C37.8671 12.5537 37.8671 12.4536 37.9069 12.3635C38.1561 12.3535 38.4252 12.3235 38.7043 12.2634C38.9834 12.2034 39.2325 12.1033 39.4618 11.9731C39.691 11.843 39.8206 11.7229 39.8305 11.6228C39.8405 11.5227 39.8006 11.4426 39.691 11.3725C39.5814 11.3125 39.4618 11.2824 39.3322 11.2924C39.2026 11.3024 39.0432 11.3325 38.8438 11.3825L38.4152 11.4826Z" fill="#65A8EB"/>
<path d="M47.156 12.5741L42.5712 15.1967L30.9697 8.46985L35.3751 5.94727L47.156 12.5741Z" fill="#E6E6E6"/>
<path d="M42.5811 15.1967V18.42L47.1559 15.7272V12.5039L42.5811 15.1967Z" fill="#CCCCCC"/>
<path d="M68.6248 18.14L45.4218 31.5938L33.8203 24.8669V23.9359L57.0233 11.4131L68.6248 17.209V18.14Z" fill="#91B9EC"/>
<path d="M68.6248 18.14L45.4218 31.5938L33.8203 24.8669V23.9359L57.0233 11.4131L68.6248 17.209V18.14Z" fill="#C2DDFF"/>
<path d="M68.6248 17.2181L45.4218 30.6719L33.8203 23.945V23.014L57.0233 10.4912L68.6248 16.2872V17.2181Z" fill="url(#paint50_linear_153_1114)"/>
<path d="M68.6248 17.2181L45.4218 30.6719L33.8203 23.945V23.014L57.0233 10.4912L68.6248 16.2872V17.2181Z" fill="url(#paint51_linear_153_1114)"/>
<path d="M68.6248 16.8783L45.4218 30.332L33.8203 23.6051V22.6742L57.0233 10.1514L68.6248 15.9473V16.8783Z" fill="#91B9EC"/>
<path d="M68.6248 16.8783L45.4218 30.332L33.8203 23.6051V22.6742L57.0233 10.1514L68.6248 15.9473V16.8783Z" fill="#C2DDFF"/>
<path d="M68.6248 16.1878L45.4218 29.6416L33.8203 22.9147V21.9838L57.0233 9.46094L68.6248 15.2569V16.1878Z" fill="url(#paint52_linear_153_1114)"/>
<path d="M68.6248 16.1878L45.4218 29.6416L33.8203 22.9147V21.9838L57.0233 9.46094L68.6248 15.2569V16.1878Z" fill="url(#paint53_linear_153_1114)"/>
<path d="M68.6248 15.847L45.4218 29.3008L33.8203 22.5739V21.6429L57.0233 9.12012L68.6248 14.9161V15.847Z" fill="#91B9EC"/>
<path d="M68.6248 15.847L45.4218 29.3008L33.8203 22.5739V21.6429L57.0233 9.12012L68.6248 14.9161V15.847Z" fill="#C2DDFF"/>
<path d="M68.6248 14.9163L45.4218 28.3701L33.8203 21.6432L57.0233 8.18945L68.6248 14.9163Z" fill="#FFFAEF"/>
<path d="M67.0301 14.9463L45.4717 27.4491L35.415 21.6132L56.9735 9.11035L67.0301 14.9463Z" fill="#65A8EB"/>
<path d="M64.2093 15.8372L47.0064 25.8074C46.1892 25.3269 44.9433 25.2768 44.2356 25.6873L38.4349 22.3238C39.1425 21.9134 39.0528 21.1927 38.2256 20.7222L55.4285 10.752C56.2458 11.2324 57.4916 11.2825 58.1993 10.8721L64.01 14.2355C63.3023 14.6459 63.392 15.3667 64.2093 15.8372Z" fill="#FFFAEF"/>
<path d="M57.4092 19.3189C57.7254 17.4103 55.2086 15.3996 51.7879 14.8281C48.3672 14.2565 45.3378 15.3405 45.0217 17.2491C44.7055 19.1578 47.2223 21.1684 50.643 21.74C54.0637 22.3115 57.093 21.2276 57.4092 19.3189Z" fill="#3784D1"/>
<path d="M57.4092 19.3189C57.7254 17.4103 55.2086 15.3996 51.7879 14.8281C48.3672 14.2565 45.3378 15.3405 45.0217 17.2491C44.7055 19.1578 47.2223 21.1684 50.643 21.74C54.0637 22.3115 57.093 21.2276 57.4092 19.3189Z" fill="#65A8EB"/>
<path d="M56.8912 19.2555C57.1793 17.5159 54.8864 15.6835 51.7697 15.1628C48.653 14.642 45.8929 15.6301 45.6048 17.3697C45.3166 19.1093 47.6096 20.9417 50.7262 21.4624C53.8429 21.9832 56.603 20.9951 56.8912 19.2555Z" fill="#C9E1FF"/>
<path d="M60.2385 14.2809C60.3014 13.7206 59.5586 13.1765 58.5795 13.0658C57.6004 12.9551 56.7557 13.3196 56.6929 13.8799C56.63 14.4403 57.3728 14.9843 58.3519 15.095C59.3311 15.2058 60.1757 14.8413 60.2385 14.2809Z" fill="#3784D1"/>
<path d="M60.2385 14.2809C60.3014 13.7206 59.5586 13.1765 58.5795 13.0658C57.6004 12.9551 56.7557 13.3196 56.6929 13.8799C56.63 14.4403 57.3728 14.9843 58.3519 15.095C59.3311 15.2058 60.1757 14.8413 60.2385 14.2809Z" fill="#65A8EB"/>
<path d="M59.8554 14.2615C59.9035 13.833 59.3349 13.4169 58.5855 13.3322C57.8362 13.2474 57.1897 13.5261 57.1417 13.9546C57.0936 14.3831 57.6622 14.7992 58.4116 14.8839C59.1609 14.9687 59.8074 14.69 59.8554 14.2615Z" fill="#C9E1FF"/>
<path d="M45.7532 22.6872C45.816 22.1268 45.0732 21.5828 44.0941 21.4721C43.115 21.3613 42.2703 21.7258 42.2075 22.2862C42.1447 22.8465 42.8875 23.3906 43.8666 23.5013C44.8457 23.612 45.6904 23.2475 45.7532 22.6872Z" fill="#3784D1"/>
<path d="M45.7532 22.6872C45.816 22.1268 45.0732 21.5828 44.0941 21.4721C43.115 21.3613 42.2703 21.7258 42.2075 22.2862C42.1447 22.8465 42.8875 23.3906 43.8666 23.5013C44.8457 23.612 45.6904 23.2475 45.7532 22.6872Z" fill="#65A8EB"/>
<path d="M45.3701 22.6678C45.4181 22.2392 44.8496 21.8232 44.1002 21.7384C43.3508 21.6537 42.7044 21.9323 42.6563 22.3608C42.6083 22.7893 43.1768 23.2054 43.9262 23.2902C44.6756 23.3749 45.322 23.0963 45.3701 22.6678Z" fill="#C9E1FF"/>
<path d="M51.4319 18.76C51.1428 18.83 50.8737 18.9001 50.6146 18.9502C50.3654 19.0002 50.1162 19.0302 49.867 19.0302C49.6278 19.0302 49.3886 19.0102 49.1594 18.9502C48.9301 18.8901 48.6909 18.8 48.4517 18.6599C48.083 18.4496 47.8737 18.2094 47.8238 17.9491C47.774 17.6889 47.8836 17.4286 48.1627 17.1583L47.5049 16.7779C47.5348 16.7479 47.5846 16.6979 47.6644 16.6378C47.7341 16.5777 47.8238 16.5177 47.9135 16.4676C48.0929 16.3575 48.2823 16.2974 48.4517 16.2774C48.6311 16.2574 48.8404 16.3175 49.0697 16.4576L49.1793 16.5177C49.5182 16.3775 49.8371 16.2874 50.1461 16.2574C50.4551 16.2274 50.7242 16.2774 50.9435 16.4176C51.083 16.4977 51.1727 16.5877 51.2225 16.6778C51.2624 16.7679 51.2823 16.858 51.2724 16.9481C51.093 16.9681 50.8837 17.0082 50.6544 17.0782C50.4252 17.1483 50.2059 17.2384 49.9966 17.3585C49.7873 17.4787 49.6577 17.5888 49.6278 17.6889C49.5979 17.789 49.6278 17.859 49.7375 17.9191C49.8172 17.9692 49.9169 17.9892 50.0265 17.9792C50.1361 17.9692 50.2757 17.9491 50.4451 17.8991L50.9534 17.7589C51.5614 17.5988 52.1096 17.5187 52.598 17.5287C53.0864 17.5387 53.5448 17.6689 53.9834 17.9191C54.3522 18.1293 54.5615 18.3696 54.6113 18.6398C54.6611 18.9101 54.5415 19.1804 54.2425 19.4607L54.8904 19.8311C54.8605 19.8611 54.8106 19.9111 54.7309 19.9712C54.6611 20.0313 54.5714 20.0913 54.4817 20.1414C54.3023 20.2515 54.1129 20.3116 53.9435 20.3316C53.7641 20.3516 53.5548 20.2915 53.3256 20.1514L53.2458 20.1013C53.0565 20.1914 52.8671 20.2615 52.6777 20.3116C52.4883 20.3616 52.3089 20.4016 52.1295 20.4117C51.9501 20.4317 51.7807 20.4217 51.6212 20.3916C51.4617 20.3616 51.3222 20.3116 51.1926 20.2415C51.0332 20.1514 50.9435 20.0513 50.9136 19.9412C50.8837 19.8311 50.8837 19.731 50.9235 19.6409C51.1727 19.6309 51.4418 19.6008 51.7209 19.5408C52 19.4807 52.2491 19.3806 52.4784 19.2505C52.7076 19.1203 52.8372 19.0002 52.8471 18.9001C52.8571 18.8 52.8172 18.7199 52.7076 18.6499C52.598 18.5898 52.4784 18.5598 52.3488 18.5698C52.2192 18.5798 52.0598 18.6098 51.8604 18.6599L51.4319 18.76Z" fill="#65A8EB"/>
<path d="M60.1626 19.8514L55.5779 22.4741L43.9863 15.7472L48.3817 13.2246L60.1626 19.8514Z" fill="#E6E6E6"/>
<path d="M55.5977 22.474V25.6873L60.1625 23.0046V19.7812L55.5977 22.474Z" fill="#CCCCCC"/>
<path d="M65.6548 10.5326L42.4618 23.9863L30.8604 17.2594V16.3285L54.0534 3.80566L65.6548 9.6016V10.5326Z" fill="#91B9EC"/>
<path d="M65.6548 10.5326L42.4618 23.9863L30.8604 17.2594V16.3285L54.0534 3.80566L65.6548 9.6016V10.5326Z" fill="#C2DDFF"/>
<path d="M65.6548 9.61068L42.4618 23.0645L30.8604 16.3376V15.4066L54.0534 2.88379L65.6548 8.67973V9.61068Z" fill="url(#paint54_linear_153_1114)"/>
<path d="M65.6548 9.61068L42.4618 23.0645L30.8604 16.3376V15.4066L54.0534 2.88379L65.6548 8.67973V9.61068Z" fill="url(#paint55_linear_153_1114)"/>
<path d="M65.6548 9.27084L42.4618 22.7246L30.8604 15.9977V15.0668L54.0534 2.54395L65.6548 8.33988V9.27084Z" fill="#91B9EC"/>
<path d="M65.6548 9.27084L42.4618 22.7246L30.8604 15.9977V15.0668L54.0534 2.54395L65.6548 8.33988V9.27084Z" fill="#C2DDFF"/>
<path d="M65.6548 8.58041L42.4618 22.0342L30.8604 15.3073V14.3763L54.0534 1.85352L65.6548 7.64945V8.58041Z" fill="url(#paint56_linear_153_1114)"/>
<path d="M65.6548 8.58041L42.4618 22.0342L30.8604 15.3073V14.3763L54.0534 1.85352L65.6548 7.64945V8.58041Z" fill="url(#paint57_linear_153_1114)"/>
<path d="M65.6548 8.23959L42.4618 21.6934L30.8604 14.9665V14.0355L54.0534 1.5127L65.6548 7.30863V8.23959Z" fill="#91B9EC"/>
<path d="M65.6548 8.23959L42.4618 21.6934L30.8604 14.9665V14.0355L54.0534 1.5127L65.6548 7.30863V8.23959Z" fill="#C2DDFF"/>
<path d="M65.6548 7.30892L42.4618 20.7627L30.8604 14.0358L54.0534 0.582031L65.6548 7.30892Z" fill="#FFFAEF"/>
<path d="M64.0703 7.33891L42.5119 19.8417L32.4453 14.0057L54.0037 1.50293L64.0703 7.33891Z" fill="#65A8EB"/>
<path d="M61.2494 8.22974L44.0465 18.2C43.2292 17.7195 41.9833 17.6694 41.2757 18.0798L35.4749 14.7164C36.1826 14.306 36.0929 13.5852 35.2656 13.1147L52.4685 3.14453C53.2858 3.62502 54.5317 3.67508 55.2393 3.26466L61.0501 6.6281C60.3324 7.03852 60.4321 7.75926 61.2494 8.22974Z" fill="#FFFAEF"/>
<path d="M54.4463 11.7076C54.7625 9.79893 52.2457 7.78831 48.825 7.21676C45.4043 6.6452 42.3749 7.72915 42.0588 9.63781C41.7426 11.5465 44.2594 13.5571 47.6801 14.1286C51.1008 14.7002 54.1302 13.6163 54.4463 11.7076Z" fill="#3784D1"/>
<path d="M54.4463 11.7076C54.7625 9.79893 52.2457 7.78831 48.825 7.21676C45.4043 6.6452 42.3749 7.72915 42.0588 9.63781C41.7426 11.5465 44.2594 13.5571 47.6801 14.1286C51.1008 14.7002 54.1302 13.6163 54.4463 11.7076Z" fill="#65A8EB"/>
<path d="M53.9273 11.6442C54.2154 9.90455 51.9225 8.07216 48.8058 7.55141C45.6892 7.03066 42.929 8.01875 42.6409 9.75836C42.3527 11.498 44.6457 13.3304 47.7623 13.8511C50.879 14.3719 53.6391 13.3838 53.9273 11.6442Z" fill="#C9E1FF"/>
<path d="M57.2737 6.67937C57.3365 6.11902 56.5937 5.57498 55.6146 5.46425C54.6355 5.35351 53.7908 5.718 53.728 6.27836C53.6652 6.83872 54.408 7.38274 55.3871 7.49348C56.3662 7.60421 57.2109 7.23973 57.2737 6.67937Z" fill="#3784D1"/>
<path d="M57.2737 6.67937C57.3365 6.11902 56.5937 5.57498 55.6146 5.46425C54.6355 5.35351 53.7908 5.718 53.728 6.27836C53.6652 6.83872 54.408 7.38274 55.3871 7.49348C56.3662 7.60421 57.2109 7.23973 57.2737 6.67937Z" fill="#65A8EB"/>
<path d="M56.8906 6.65995C56.9386 6.23144 56.3701 5.81536 55.6207 5.7306C54.8713 5.64585 54.2249 5.92452 54.1768 6.35303C54.1288 6.78154 54.6973 7.19761 55.4467 7.28237C56.1961 7.36712 56.8425 7.08846 56.8906 6.65995Z" fill="#C9E1FF"/>
<path d="M42.7893 15.0749C42.8521 14.5145 42.1094 13.9705 41.1302 13.8598C40.1511 13.749 39.3065 14.1135 39.2436 14.6739C39.1808 15.2342 39.9236 15.7782 40.9027 15.889C41.8818 15.9997 42.7265 15.6352 42.7893 15.0749Z" fill="#65A8EB"/>
<path d="M42.4062 15.0555C42.4542 14.6269 41.8857 14.2109 41.1363 14.1261C40.3869 14.0414 39.7405 14.32 39.6925 14.7485C39.6444 15.177 40.213 15.5931 40.9623 15.6779C41.7117 15.7626 42.3581 15.484 42.4062 15.0555Z" fill="#C9E1FF"/>
<path d="M48.4621 11.1525C48.1731 11.2226 47.904 11.2927 47.6448 11.3427C47.3957 11.3928 47.1465 11.4228 46.8973 11.4228C46.6581 11.4228 46.4189 11.4028 46.1897 11.3427C45.9604 11.2827 45.7212 11.1926 45.482 11.0524C45.1132 10.8422 44.9039 10.602 44.8541 10.3417C44.8043 10.0814 44.9139 9.82118 45.193 9.55091L44.5352 9.17052C44.5651 9.14049 44.6149 9.09043 44.6946 9.03037C44.7644 8.97031 44.8541 8.91025 44.9438 8.8602C45.1232 8.75009 45.3126 8.69003 45.482 8.67C45.6614 8.64998 45.8707 8.71004 46.1 8.85019L46.2096 8.91025C46.5485 8.77011 46.8674 8.68001 47.1764 8.64998C47.4854 8.61995 47.7545 8.67 47.9737 8.81015C48.1133 8.89023 48.203 8.98032 48.2528 9.07041C48.2927 9.16051 48.3126 9.2506 48.3027 9.34069C48.1232 9.36071 47.9139 9.40075 47.6847 9.47083C47.4555 9.5409 47.2362 9.63099 47.0269 9.75111C46.8176 9.87123 46.688 9.98135 46.6581 10.0815C46.6282 10.1816 46.6581 10.2516 46.7677 10.3117C46.8475 10.3617 46.9472 10.3818 47.0568 10.3717C47.1664 10.3617 47.306 10.3417 47.4754 10.2917L47.9837 10.1515C48.5917 9.99136 49.1399 9.91128 49.6282 9.92129C50.1166 9.9313 50.5751 10.0614 51.0136 10.3117C51.3824 10.5219 51.5917 10.7621 51.6416 11.0324C51.6914 11.3027 51.5718 11.573 51.2728 11.8533L51.9206 12.2236C51.8907 12.2537 51.8409 12.3037 51.7612 12.3638C51.6914 12.4239 51.6017 12.4839 51.512 12.534C51.3326 12.6441 51.1432 12.7041 50.9738 12.7242C50.7944 12.7442 50.5851 12.6841 50.3558 12.544L50.2761 12.4939C50.0867 12.584 49.8974 12.6541 49.708 12.7041C49.5186 12.7542 49.3392 12.7942 49.1598 12.8042C48.9804 12.8243 48.811 12.8143 48.6515 12.7842C48.492 12.7542 48.3525 12.7041 48.2229 12.6341C48.0634 12.544 47.9737 12.4439 47.9438 12.3338C47.9139 12.2236 47.9139 12.1235 47.9538 12.0335C48.203 12.0234 48.4721 11.9934 48.7512 11.9333C49.0302 11.8733 49.2794 11.7732 49.5086 11.643C49.7379 11.5129 49.8675 11.3928 49.8774 11.2927C49.8874 11.1926 49.8475 11.1125 49.7379 11.0424C49.6283 10.9824 49.5086 10.9523 49.3791 10.9624C49.2495 10.9724 49.09 11.0024 48.8907 11.0524L48.4621 11.1525Z" fill="#65A8EB"/>
<path d="M58.8775 11.2723L54.2927 13.895L42.7012 7.16809L47.0966 4.64551L58.8775 11.2723Z" fill="#E6E6E6"/>
<path d="M54.3125 13.8959V17.1192L58.8773 14.4264V11.2031L54.3125 13.8959Z" fill="#CCCCCC"/>
<path d="M95.2363 81.5744L87.502 86.059L90.0236 63.606L92.605 62.1045L95.2363 81.5744Z" fill="#6D67B1"/>
<path d="M96.1133 82.8858L87.9902 87.7508L90.6713 63.4759L93.2528 61.9844L96.1133 82.8858Z" fill="url(#paint58_linear_153_1114)"/>
<path d="M73.5785 65.7288C69.8808 63.4765 67.4987 60.7838 66.4322 57.9809C66.0037 56.8598 65.7844 55.7286 65.7744 54.5974V54.4873C65.7744 50.3431 68.5452 46.2489 74.0569 43.2058C84.9109 37.2096 102.303 37.58 112.908 44.0266C118.31 47.31 120.901 51.5443 120.702 55.6986C120.652 56.8497 120.383 57.9909 119.895 59.1121C118.709 61.8749 116.217 64.4575 112.43 66.5497C101.556 72.5458 84.1634 72.1754 73.5785 65.7288Z" fill="url(#paint59_linear_153_1114)"/>
<path d="M73.5785 64.4573C69.8808 62.205 67.4987 59.5123 66.4322 56.7094C66.0037 55.5883 65.7844 54.4571 65.7744 53.3259V53.2158C65.7744 49.0716 68.5452 44.9774 74.0569 41.9343C84.9109 35.9381 102.303 36.3085 112.908 42.7551C118.31 46.0385 120.901 50.2728 120.702 54.4271C120.652 55.5782 120.383 56.7194 119.895 57.8406C118.709 60.6034 116.217 63.186 112.43 65.2782C101.556 71.2743 84.1634 70.904 73.5785 64.4573Z" fill="url(#paint60_linear_153_1114)"/>
<path d="M76.15 63.0363C72.9406 61.0843 70.8675 58.7419 69.9306 56.2994C69.5618 55.3284 69.3625 54.3374 69.3525 53.3564V53.2563C69.3525 49.6626 71.7546 46.0989 76.5487 43.4562C85.9873 38.2509 101.097 38.5712 110.307 44.1669C115.001 47.0199 117.254 50.7036 117.084 54.3173C117.034 55.3184 116.805 56.3094 116.386 57.2804C115.35 59.6828 113.187 61.9251 109.898 63.747C100.469 68.9624 85.3494 68.642 76.15 63.0363Z" fill="url(#paint61_linear_153_1114)"/>
<path d="M84.0427 59.4522C82.5576 58.5513 81.6108 57.4702 81.1822 56.349C81.0128 55.8986 80.9231 55.4481 80.9131 54.9976V54.9576C80.9131 53.2959 82.0194 51.6542 84.2321 50.443C88.5777 48.0405 95.5445 48.1907 99.7904 50.7733C101.953 52.0846 102.99 53.7864 102.91 55.4481C102.89 55.9086 102.781 56.369 102.591 56.8195C102.113 57.9306 101.116 58.9617 99.6011 59.8026C95.2455 62.185 88.2886 62.0348 84.0427 59.4522Z" fill="#6D67B1"/>
<path d="M84.073 55.6778C82.5879 54.7769 81.641 53.6957 81.2125 52.5746C81.043 52.1241 80.9533 51.6737 80.9434 51.2232V51.1832C80.9434 49.5215 82.0497 47.8798 84.2623 46.6685C88.6079 44.2661 95.5748 44.4162 99.8207 46.9989C101.984 48.3102 103.02 50.012 102.94 51.6737C102.92 52.1341 102.811 52.5946 102.621 53.0451C102.143 54.1562 101.146 55.1873 99.6313 56.0281C95.2857 58.4006 88.3189 58.2504 84.073 55.6778Z" fill="#FFDB6C"/>
<path d="M86.2062 54.4963C85.1298 53.8356 84.4321 53.0548 84.1132 52.2339C83.9836 51.9036 83.9238 51.5733 83.9238 51.2429V51.2129C83.9238 50.0016 84.7311 48.8104 86.3458 47.9195C89.5153 46.1677 94.5984 46.2778 97.6981 48.1598C99.2729 49.1207 100.03 50.352 99.9805 51.5733C99.9606 51.9136 99.8908 52.2439 99.7413 52.5743C99.3925 53.3851 98.6649 54.1359 97.5586 54.7465C94.3791 56.4883 89.296 56.3782 86.2062 54.4963Z" fill="#FFA800"/>
<path d="M86.4152 54.6268C85.3587 53.9861 84.681 53.2154 84.372 52.4145C84.2524 52.0942 84.1826 51.7739 84.1826 51.4535V51.4235C84.1826 50.2423 84.97 49.0711 86.5448 48.2002C89.6445 46.4885 94.608 46.5986 97.638 48.4304C99.1828 49.3714 99.9204 50.5726 99.8606 51.7639C99.8406 52.0942 99.7709 52.4145 99.6313 52.7349C99.2925 53.5257 98.5848 54.2664 97.4984 54.857C94.3987 56.5688 89.4352 56.4687 86.4152 54.6268Z" fill="#FFAF04"/>
<path d="M84.0132 58.6105C81.9899 57.3792 80.9534 55.8176 80.8936 54.266V54.256L80.9035 53.8156L80.9534 51.2129C80.9534 51.6634 81.0431 52.1238 81.2225 52.5643C81.651 53.6854 82.6079 54.7665 84.083 55.6674C88.3289 58.2501 95.2858 58.4002 99.6413 55.9978C101.156 55.1569 102.153 54.1259 102.631 53.0147C102.821 52.5643 102.93 52.1138 102.95 51.6433L102.881 54.0858L102.851 54.9267C102.641 56.3982 101.545 57.8297 99.5716 58.9208C95.216 61.3433 88.2591 61.1931 84.0132 58.6105Z" fill="#FFC83E"/>
<path d="M94.0097 47.1888C98.0762 47.9095 100.468 50.4121 99.342 52.7745C98.2057 55.1569 93.9499 56.4983 89.8535 55.7676C85.7571 55.0368 83.3849 52.5142 84.561 50.1418C85.7172 47.7794 89.9531 46.4681 94.0097 47.1888Z" fill="#FFF1DE"/>
<path d="M93.4818 50.2318C93.4818 50.2318 93.9403 49.7513 92.834 49.1206C91.7077 48.4499 90.1927 49.1206 89.7741 49.3308L88.4186 48.5L87.6013 48.9505L88.9568 49.7813L88.3788 50.1016L87.0233 49.2708L86.206 49.7213L87.5615 50.5521L86.0166 51.403L86.784 51.8735C86.784 51.8735 87.0233 51.7433 87.3821 51.5431C87.7409 51.3429 88.0797 51.5131 88.0797 51.5131C88.0797 51.5131 91.3888 53.5352 91.5482 53.6453C91.7177 53.7554 91.5582 53.8455 91.5582 53.8455L90.8804 54.2259L91.6579 54.9366L93.2526 54.0457L94.5483 54.8365L95.3656 54.376L94.0699 53.5852L94.6479 53.2649L95.9436 54.0557L96.7609 53.6052L95.4652 52.8144C95.5051 52.7944 95.5948 52.7343 95.7742 52.6342C97.04 51.8434 96.9802 51.0726 95.8838 50.4019C94.8074 49.7313 93.4818 50.2318 93.4818 50.2318ZM89.2359 50.6122L90.0233 50.1717C90.0233 50.1717 91.0698 49.6512 91.7775 50.0816C92.4851 50.5121 91.4685 51.1327 91.4685 51.1327L90.7409 51.5331L89.2359 50.6122ZM94.04 52.5341L93.1629 53.0246L91.4984 52.0036L92.4552 51.473C92.4552 51.473 93.7111 50.8324 94.4885 51.3129C95.2659 51.7934 94.04 52.5341 94.04 52.5341Z" fill="#FFC261"/>
</g>
<defs>
<radialGradient id="paint0_radial_153_1114" cx="0" cy="0" r="1" gradientUnits="userSpaceOnUse" gradientTransform="translate(60.4427 85.5958) scale(86.0997 86.4741)">
<stop stop-color="#71AEED"/>
<stop offset="0.076571" stop-color="#71AEED" stop-opacity="0.9104"/>
<stop offset="0.2527" stop-color="#71AEED" stop-opacity="0.7044"/>
<stop offset="0.4232" stop-color="#71AEED" stop-opacity="0.5049"/>
<stop offset="0.5843" stop-color="#71AEED" stop-opacity="0.3164"/>
<stop offset="0.7323" stop-color="#71AEED" stop-opacity="0.1433"/>
<stop offset="0.8547" stop-color="#71AEED" stop-opacity="0"/>
</radialGradient>
<radialGradient id="paint1_radial_153_1114" cx="0" cy="0" r="1" gradientUnits="userSpaceOnUse" gradientTransform="translate(66.7981 88.3527) scale(72.7665 73.0829)">
<stop stop-color="#71AEED"/>
<stop offset="0.076571" stop-color="#71AEED" stop-opacity="0.9104"/>
<stop offset="0.2527" stop-color="#71AEED" stop-opacity="0.7044"/>
<stop offset="0.4232" stop-color="#71AEED" stop-opacity="0.5049"/>
<stop offset="0.5843" stop-color="#71AEED" stop-opacity="0.3164"/>
<stop offset="0.7323" stop-color="#71AEED" stop-opacity="0.1433"/>
<stop offset="0.8547" stop-color="#71AEED" stop-opacity="0"/>
</radialGradient>
<radialGradient id="paint2_radial_153_1114" cx="0" cy="0" r="1" gradientUnits="userSpaceOnUse" gradientTransform="translate(65.7798 91.6083) scale(92.9868 93.3912)">
<stop stop-color="#71AEED"/>
<stop offset="0.076571" stop-color="#71AEED" stop-opacity="0.9104"/>
<stop offset="0.2527" stop-color="#71AEED" stop-opacity="0.7044"/>
<stop offset="0.4232" stop-color="#71AEED" stop-opacity="0.5049"/>
<stop offset="0.5843" stop-color="#71AEED" stop-opacity="0.3164"/>
<stop offset="0.7323" stop-color="#71AEED" stop-opacity="0.1433"/>
<stop offset="0.8547" stop-color="#71AEED" stop-opacity="0"/>
</radialGradient>
<linearGradient id="paint3_linear_153_1114" x1="58.1478" y1="85.9842" x2="54.556" y2="94.4593" gradientUnits="userSpaceOnUse">
<stop stop-color="#65A8EB"/>
<stop offset="1" stop-color="#98C1F8"/>
</linearGradient>
<linearGradient id="paint4_linear_153_1114" x1="63.1009" y1="83.0845" x2="59.5072" y2="91.5615" gradientUnits="userSpaceOnUse">
<stop stop-color="#65A8EB"/>
<stop offset="1" stop-color="#98C1F8"/>
</linearGradient>
<linearGradient id="paint5_linear_153_1114" x1="67.8558" y1="79.5974" x2="64.264" y2="88.0726" gradientUnits="userSpaceOnUse">
<stop stop-color="#65A8EB"/>
<stop offset="1" stop-color="#98C1F8"/>
</linearGradient>
<linearGradient id="paint6_linear_153_1114" x1="44.6716" y1="93.147" x2="42.0547" y2="100.644" gradientUnits="userSpaceOnUse">
<stop stop-color="#65A8EB"/>
<stop offset="1" stop-color="#98C1F8"/>
</linearGradient>
<linearGradient id="paint7_linear_153_1114" x1="75.4391" y1="68.5307" x2="71.7801" y2="77.382" gradientUnits="userSpaceOnUse">
<stop stop-color="#65A8EB"/>
<stop offset="1" stop-color="#98C1F8"/>
</linearGradient>
<linearGradient id="paint8_linear_153_1114" x1="70.0923" y1="77.6505" x2="52.9213" y2="94.1365" gradientUnits="userSpaceOnUse">
<stop stop-color="#65A8EB"/>
<stop offset="1" stop-color="#99C2F8"/>
</linearGradient>
<linearGradient id="paint9_linear_153_1114" x1="46.4891" y1="85.9053" x2="75.2792" y2="85.9053" gradientUnits="userSpaceOnUse">
<stop stop-color="#65A8EB"/>
<stop offset="1" stop-color="#B8D7FF"/>
</linearGradient>
<linearGradient id="paint10_linear_153_1114" x1="53.1743" y1="94.7203" x2="60.0612" y2="86.9126" gradientUnits="userSpaceOnUse">
<stop stop-color="#90C4F9"/>
<stop offset="1" stop-color="#96C0F8"/>
</linearGradient>
<linearGradient id="paint11_linear_153_1114" x1="56.6594" y1="78.1035" x2="71.587" y2="78.1035" gradientUnits="userSpaceOnUse">
<stop stop-color="#65A8EB"/>
<stop offset="1" stop-color="#ACD0FF"/>
</linearGradient>
<linearGradient id="paint12_linear_153_1114" x1="49.8947" y1="80.4746" x2="63.424" y2="80.4746" gradientUnits="userSpaceOnUse">
<stop stop-color="#65A8EB"/>
<stop offset="1" stop-color="#99C2F8"/>
</linearGradient>
<linearGradient id="paint13_linear_153_1114" x1="31.4937" y1="40.0845" x2="46.9602" y2="47.346" gradientUnits="userSpaceOnUse">
<stop stop-color="#65A8EB"/>
<stop offset="1" stop-color="#95C0F7"/>
</linearGradient>
<linearGradient id="paint14_linear_153_1114" x1="32.1697" y1="41.3332" x2="93.9981" y2="92.0462" gradientUnits="userSpaceOnUse">
<stop stop-color="#65A8EB"/>
<stop offset="1" stop-color="#98C1F8"/>
</linearGradient>
<linearGradient id="paint15_linear_153_1114" x1="36.2779" y1="50.0773" x2="45.7404" y2="57.8386" gradientUnits="userSpaceOnUse">
<stop stop-color="#7D57C4"/>
<stop offset="0.076571" stop-color="#8B6CCD" stop-opacity="0.9104"/>
<stop offset="0.2527" stop-color="#A898DE" stop-opacity="0.7044"/>
<stop offset="0.4232" stop-color="#BFBAEC" stop-opacity="0.5049"/>
<stop offset="0.5843" stop-color="#D0D2F6" stop-opacity="0.3164"/>
<stop offset="0.7323" stop-color="#DAE1FC" stop-opacity="0.1433"/>
<stop offset="0.8547" stop-color="#DDE6FE" stop-opacity="0"/>
</linearGradient>
<linearGradient id="paint16_linear_153_1114" x1="36.2672" y1="49.6131" x2="42.6709" y2="59.5511" gradientUnits="userSpaceOnUse">
<stop stop-color="#65A8EB"/>
<stop offset="0.076571" stop-color="#65A8EB" stop-opacity="0.9104"/>
<stop offset="0.2527" stop-color="#65A8EB" stop-opacity="0.7044"/>
<stop offset="0.4232" stop-color="#65A8EB" stop-opacity="0.5049"/>
<stop offset="0.5843" stop-color="#65A8EB" stop-opacity="0.3164"/>
<stop offset="0.7323" stop-color="#65A8EB" stop-opacity="0.1433"/>
<stop offset="0.8547" stop-color="#65A8EB" stop-opacity="0"/>
</linearGradient>
<linearGradient id="paint17_linear_153_1114" x1="81.604" y1="76.314" x2="92.011" y2="84.8501" gradientUnits="userSpaceOnUse">
<stop stop-color="#65A8EB"/>
<stop offset="0.076571" stop-color="#65A8EB" stop-opacity="0.9104"/>
<stop offset="0.2527" stop-color="#65A8EB" stop-opacity="0.7044"/>
<stop offset="0.4232" stop-color="#65A8EB" stop-opacity="0.5049"/>
<stop offset="0.5843" stop-color="#65A8EB" stop-opacity="0.3164"/>
<stop offset="0.7323" stop-color="#65A8EB" stop-opacity="0.1433"/>
<stop offset="0.8547" stop-color="#65A8EB" stop-opacity="0"/>
</linearGradient>
<linearGradient id="paint18_linear_153_1114" x1="44.0128" y1="54.8201" x2="53.1574" y2="62.3207" gradientUnits="userSpaceOnUse">
<stop stop-color="#7D57C4"/>
<stop offset="0.076571" stop-color="#8B6CCD" stop-opacity="0.9104"/>
<stop offset="0.2527" stop-color="#A898DE" stop-opacity="0.7044"/>
<stop offset="0.4232" stop-color="#BFBAEC" stop-opacity="0.5049"/>
<stop offset="0.5843" stop-color="#D0D2F6" stop-opacity="0.3164"/>
<stop offset="0.7323" stop-color="#DAE1FC" stop-opacity="0.1433"/>
<stop offset="0.8547" stop-color="#DDE6FE" stop-opacity="0"/>
</linearGradient>
<linearGradient id="paint19_linear_153_1114" x1="43.8564" y1="55.7209" x2="52.7701" y2="65.2421" gradientUnits="userSpaceOnUse">
<stop stop-color="#65A8EB"/>
<stop offset="0.076571" stop-color="#65A8EB" stop-opacity="0.9104"/>
<stop offset="0.2527" stop-color="#65A8EB" stop-opacity="0.7044"/>
<stop offset="0.4232" stop-color="#65A8EB" stop-opacity="0.5049"/>
<stop offset="0.5843" stop-color="#65A8EB" stop-opacity="0.3164"/>
<stop offset="0.7323" stop-color="#65A8EB" stop-opacity="0.1433"/>
<stop offset="0.8547" stop-color="#65A8EB" stop-opacity="0"/>
</linearGradient>
<linearGradient id="paint20_linear_153_1114" x1="39.1336" y1="51.5694" x2="50.1453" y2="60.6015" gradientUnits="userSpaceOnUse">
<stop stop-color="#7D57C4"/>
<stop offset="0.076571" stop-color="#8B6CCD" stop-opacity="0.9104"/>
<stop offset="0.2527" stop-color="#A898DE" stop-opacity="0.7044"/>
<stop offset="0.4232" stop-color="#BFBAEC" stop-opacity="0.5049"/>
<stop offset="0.5843" stop-color="#D0D2F6" stop-opacity="0.3164"/>
<stop offset="0.7323" stop-color="#DAE1FC" stop-opacity="0.1433"/>
<stop offset="0.8547" stop-color="#DDE6FE" stop-opacity="0"/>
</linearGradient>
<linearGradient id="paint21_linear_153_1114" x1="39.3949" y1="53.432" x2="44.1399" y2="63.041" gradientUnits="userSpaceOnUse">
<stop stop-color="#65A8EB"/>
<stop offset="0.076571" stop-color="#65A8EB" stop-opacity="0.9104"/>
<stop offset="0.2527" stop-color="#65A8EB" stop-opacity="0.7044"/>
<stop offset="0.4232" stop-color="#65A8EB" stop-opacity="0.5049"/>
<stop offset="0.5843" stop-color="#65A8EB" stop-opacity="0.3164"/>
<stop offset="0.7323" stop-color="#65A8EB" stop-opacity="0.1433"/>
<stop offset="0.8547" stop-color="#65A8EB" stop-opacity="0"/>
</linearGradient>
<linearGradient id="paint22_linear_153_1114" x1="51.2587" y1="58.8678" x2="59.9133" y2="65.9666" gradientUnits="userSpaceOnUse">
<stop stop-color="#7D57C4"/>
<stop offset="0.076571" stop-color="#8B6CCD" stop-opacity="0.9104"/>
<stop offset="0.2527" stop-color="#A898DE" stop-opacity="0.7044"/>
<stop offset="0.4232" stop-color="#BFBAEC" stop-opacity="0.5049"/>
<stop offset="0.5843" stop-color="#D0D2F6" stop-opacity="0.3164"/>
<stop offset="0.7323" stop-color="#DAE1FC" stop-opacity="0.1433"/>
<stop offset="0.8547" stop-color="#DDE6FE" stop-opacity="0"/>
</linearGradient>
<linearGradient id="paint23_linear_153_1114" x1="47.7794" y1="58.3134" x2="52.6491" y2="68.8572" gradientUnits="userSpaceOnUse">
<stop stop-color="#65A8EB"/>
<stop offset="0.076571" stop-color="#65A8EB" stop-opacity="0.9104"/>
<stop offset="0.2527" stop-color="#65A8EB" stop-opacity="0.7044"/>
<stop offset="0.4232" stop-color="#65A8EB" stop-opacity="0.5049"/>
<stop offset="0.5843" stop-color="#65A8EB" stop-opacity="0.3164"/>
<stop offset="0.7323" stop-color="#65A8EB" stop-opacity="0.1433"/>
<stop offset="0.8547" stop-color="#65A8EB" stop-opacity="0"/>
</linearGradient>
<linearGradient id="paint24_linear_153_1114" x1="53.4585" y1="60.2826" x2="62.3054" y2="67.5389" gradientUnits="userSpaceOnUse">
<stop stop-color="#7D57C4"/>
<stop offset="0.076571" stop-color="#8B6CCD" stop-opacity="0.9104"/>
<stop offset="0.2527" stop-color="#A898DE" stop-opacity="0.7044"/>
<stop offset="0.4232" stop-color="#BFBAEC" stop-opacity="0.5049"/>
<stop offset="0.5843" stop-color="#D0D2F6" stop-opacity="0.3164"/>
<stop offset="0.7323" stop-color="#DAE1FC" stop-opacity="0.1433"/>
<stop offset="0.8547" stop-color="#DDE6FE" stop-opacity="0"/>
</linearGradient>
<linearGradient id="paint25_linear_153_1114" x1="53.3403" y1="61.717" x2="58.9271" y2="70.9651" gradientUnits="userSpaceOnUse">
<stop stop-color="#65A8EB"/>
<stop offset="0.076571" stop-color="#65A8EB" stop-opacity="0.9104"/>
<stop offset="0.2527" stop-color="#65A8EB" stop-opacity="0.7044"/>
<stop offset="0.4232" stop-color="#65A8EB" stop-opacity="0.5049"/>
<stop offset="0.5843" stop-color="#65A8EB" stop-opacity="0.3164"/>
<stop offset="0.7323" stop-color="#65A8EB" stop-opacity="0.1433"/>
<stop offset="0.8547" stop-color="#65A8EB" stop-opacity="0"/>
</linearGradient>
<linearGradient id="paint26_linear_153_1114" x1="58.3748" y1="63.6236" x2="67.6011" y2="71.1911" gradientUnits="userSpaceOnUse">
<stop stop-color="#7D57C4"/>
<stop offset="0.076571" stop-color="#8B6CCD" stop-opacity="0.9104"/>
<stop offset="0.2527" stop-color="#A898DE" stop-opacity="0.7044"/>
<stop offset="0.4232" stop-color="#BFBAEC" stop-opacity="0.5049"/>
<stop offset="0.5843" stop-color="#D0D2F6" stop-opacity="0.3164"/>
<stop offset="0.7323" stop-color="#DAE1FC" stop-opacity="0.1433"/>
<stop offset="0.8547" stop-color="#DDE6FE" stop-opacity="0"/>
</linearGradient>
<linearGradient id="paint27_linear_153_1114" x1="58.0396" y1="62.7305" x2="67.8965" y2="69.233" gradientUnits="userSpaceOnUse">
<stop stop-color="#65A8EB"/>
<stop offset="0.076571" stop-color="#65A8EB" stop-opacity="0.9104"/>
<stop offset="0.2527" stop-color="#65A8EB" stop-opacity="0.7044"/>
<stop offset="0.4232" stop-color="#65A8EB" stop-opacity="0.5049"/>
<stop offset="0.5843" stop-color="#65A8EB" stop-opacity="0.3164"/>
<stop offset="0.7323" stop-color="#65A8EB" stop-opacity="0.1433"/>
<stop offset="0.8547" stop-color="#65A8EB" stop-opacity="0"/>
</linearGradient>
<linearGradient id="paint28_linear_153_1114" x1="62.6409" y1="64.8989" x2="74.0124" y2="74.226" gradientUnits="userSpaceOnUse">
<stop stop-color="#7D57C4"/>
<stop offset="0.076571" stop-color="#8B6CCD" stop-opacity="0.9104"/>
<stop offset="0.2527" stop-color="#A898DE" stop-opacity="0.7044"/>
<stop offset="0.4232" stop-color="#BFBAEC" stop-opacity="0.5049"/>
<stop offset="0.5843" stop-color="#D0D2F6" stop-opacity="0.3164"/>
<stop offset="0.7323" stop-color="#DAE1FC" stop-opacity="0.1433"/>
<stop offset="0.8547" stop-color="#DDE6FE" stop-opacity="0"/>
</linearGradient>
<linearGradient id="paint29_linear_153_1114" x1="62.3209" y1="65.2482" x2="70.4413" y2="77.4132" gradientUnits="userSpaceOnUse">
<stop stop-color="#65A8EB"/>
<stop offset="0.076571" stop-color="#65A8EB" stop-opacity="0.9104"/>
<stop offset="0.2527" stop-color="#65A8EB" stop-opacity="0.7044"/>
<stop offset="0.4232" stop-color="#65A8EB" stop-opacity="0.5049"/>
<stop offset="0.5843" stop-color="#65A8EB" stop-opacity="0.3164"/>
<stop offset="0.7323" stop-color="#65A8EB" stop-opacity="0.1433"/>
<stop offset="0.8547" stop-color="#65A8EB" stop-opacity="0"/>
</linearGradient>
<linearGradient id="paint30_linear_153_1114" x1="68.7248" y1="69.3943" x2="79.6663" y2="78.3687" gradientUnits="userSpaceOnUse">
<stop stop-color="#65A8EB"/>
<stop offset="0.076571" stop-color="#65A8EB" stop-opacity="0.9104"/>
<stop offset="0.2527" stop-color="#65A8EB" stop-opacity="0.7044"/>
<stop offset="0.4232" stop-color="#65A8EB" stop-opacity="0.5049"/>
<stop offset="0.5843" stop-color="#65A8EB" stop-opacity="0.3164"/>
<stop offset="0.7323" stop-color="#65A8EB" stop-opacity="0.1433"/>
<stop offset="0.8547" stop-color="#65A8EB" stop-opacity="0"/>
</linearGradient>
<linearGradient id="paint31_linear_153_1114" x1="75.5356" y1="73.1352" x2="85.75" y2="81.5133" gradientUnits="userSpaceOnUse">
<stop stop-color="#65A8EB"/>
<stop offset="0.076571" stop-color="#65A8EB" stop-opacity="0.9104"/>
<stop offset="0.2527" stop-color="#65A8EB" stop-opacity="0.7044"/>
<stop offset="0.4232" stop-color="#65A8EB" stop-opacity="0.5049"/>
<stop offset="0.5843" stop-color="#65A8EB" stop-opacity="0.3164"/>
<stop offset="0.7323" stop-color="#65A8EB" stop-opacity="0.1433"/>
<stop offset="0.8547" stop-color="#65A8EB" stop-opacity="0"/>
</linearGradient>
<linearGradient id="paint32_linear_153_1114" x1="72.9008" y1="31.307" x2="33.4435" y2="24.0976" gradientUnits="userSpaceOnUse">
<stop stop-color="#65A8EB"/>
<stop offset="1" stop-color="#9AC2F9"/>
</linearGradient>
<linearGradient id="paint33_linear_153_1114" x1="15.6398" y1="24.5494" x2="70.5749" y2="24.5494" gradientUnits="userSpaceOnUse">
<stop stop-color="#64A7EA"/>
<stop offset="1" stop-color="#96C0F8"/>
</linearGradient>
<linearGradient id="paint34_linear_153_1114" x1="53.6528" y1="12.888" x2="29.294" y2="39.5882" gradientUnits="userSpaceOnUse">
<stop stop-color="#64A7EA"/>
<stop offset="1" stop-color="#A0C5FA"/>
</linearGradient>
<linearGradient id="paint35_linear_153_1114" x1="11.7538" y1="14.7938" x2="46.5561" y2="14.7938" gradientUnits="userSpaceOnUse">
<stop stop-color="#5940E7"/>
<stop offset="1" stop-color="#1BAFF8"/>
</linearGradient>
<linearGradient id="paint36_linear_153_1114" x1="11.7568" y1="14.7929" x2="46.5591" y2="14.7929" gradientUnits="userSpaceOnUse">
<stop stop-color="#65A8EB"/>
<stop offset="1" stop-color="#9BC6FF"/>
</linearGradient>
<linearGradient id="paint37_linear_153_1114" x1="11.7538" y1="13.7658" x2="46.5561" y2="13.7658" gradientUnits="userSpaceOnUse">
<stop stop-color="#5940E7"/>
<stop offset="1" stop-color="#1BAFF8"/>
</linearGradient>
<linearGradient id="paint38_linear_153_1114" x1="11.7568" y1="13.7626" x2="46.5591" y2="13.7626" gradientUnits="userSpaceOnUse">
<stop stop-color="#65A8EB"/>
<stop offset="1" stop-color="#9BC6FF"/>
</linearGradient>
<linearGradient id="paint39_linear_153_1114" x1="24.2689" y1="22.0716" x2="59.0712" y2="22.0716" gradientUnits="userSpaceOnUse">
<stop stop-color="#5940E7"/>
<stop offset="1" stop-color="#1BAFF8"/>
</linearGradient>
<linearGradient id="paint40_linear_153_1114" x1="24.2754" y1="22.0712" x2="59.0777" y2="22.0712" gradientUnits="userSpaceOnUse">
<stop stop-color="#65A8EB"/>
<stop offset="1" stop-color="#9BC6FF"/>
</linearGradient>
<linearGradient id="paint41_linear_153_1114" x1="24.2689" y1="21.0437" x2="59.0712" y2="21.0437" gradientUnits="userSpaceOnUse">
<stop stop-color="#5940E7"/>
<stop offset="1" stop-color="#1BAFF8"/>
</linearGradient>
<linearGradient id="paint42_linear_153_1114" x1="24.2754" y1="21.0409" x2="59.0777" y2="21.0409" gradientUnits="userSpaceOnUse">
<stop stop-color="#65A8EB"/>
<stop offset="1" stop-color="#9BC6FF"/>
</linearGradient>
<linearGradient id="paint43_linear_153_1114" x1="36.7842" y1="29.3476" x2="71.5865" y2="29.3476" gradientUnits="userSpaceOnUse">
<stop stop-color="#65A8EB"/>
<stop offset="1" stop-color="#9BC6FF"/>
</linearGradient>
<linearGradient id="paint44_linear_153_1114" x1="36.7842" y1="28.3196" x2="71.5865" y2="28.3196" gradientUnits="userSpaceOnUse">
<stop stop-color="#5940E7"/>
<stop offset="1" stop-color="#1BAFF8"/>
</linearGradient>
<linearGradient id="paint45_linear_153_1114" x1="36.7842" y1="28.3173" x2="71.5865" y2="28.3173" gradientUnits="userSpaceOnUse">
<stop stop-color="#65A8EB"/>
<stop offset="1" stop-color="#9BC6FF"/>
</linearGradient>
<linearGradient id="paint46_linear_153_1114" x1="20.8113" y1="13.3056" x2="55.6137" y2="13.3056" gradientUnits="userSpaceOnUse">
<stop stop-color="#5940E7"/>
<stop offset="1" stop-color="#1BAFF8"/>
</linearGradient>
<linearGradient id="paint47_linear_153_1114" x1="20.8174" y1="13.3017" x2="55.6197" y2="13.3017" gradientUnits="userSpaceOnUse">
<stop stop-color="#65A8EB"/>
<stop offset="1" stop-color="#9BC6FF"/>
</linearGradient>
<linearGradient id="paint48_linear_153_1114" x1="20.8113" y1="12.2776" x2="55.6137" y2="12.2776" gradientUnits="userSpaceOnUse">
<stop stop-color="#5940E7"/>
<stop offset="1" stop-color="#1BAFF8"/>
</linearGradient>
<linearGradient id="paint49_linear_153_1114" x1="20.8174" y1="12.2714" x2="55.6197" y2="12.2714" gradientUnits="userSpaceOnUse">
<stop stop-color="#65A8EB"/>
<stop offset="1" stop-color="#9BC6FF"/>
</linearGradient>
<linearGradient id="paint50_linear_153_1114" x1="33.8203" y1="20.5825" x2="68.6226" y2="20.5825" gradientUnits="userSpaceOnUse">
<stop stop-color="#5940E7"/>
<stop offset="1" stop-color="#1BAFF8"/>
</linearGradient>
<linearGradient id="paint51_linear_153_1114" x1="33.8242" y1="20.579" x2="68.6265" y2="20.579" gradientUnits="userSpaceOnUse">
<stop stop-color="#65A8EB"/>
<stop offset="1" stop-color="#9BC6FF"/>
</linearGradient>
<linearGradient id="paint52_linear_153_1114" x1="33.8203" y1="19.5545" x2="68.6226" y2="19.5545" gradientUnits="userSpaceOnUse">
<stop stop-color="#5940E7"/>
<stop offset="1" stop-color="#1BAFF8"/>
</linearGradient>
<linearGradient id="paint53_linear_153_1114" x1="33.8242" y1="19.5487" x2="68.6265" y2="19.5487" gradientUnits="userSpaceOnUse">
<stop stop-color="#65A8EB"/>
<stop offset="1" stop-color="#9BC6FF"/>
</linearGradient>
<linearGradient id="paint54_linear_153_1114" x1="30.8564" y1="12.9751" x2="65.6588" y2="12.9751" gradientUnits="userSpaceOnUse">
<stop stop-color="#5940E7"/>
<stop offset="1" stop-color="#1BAFF8"/>
</linearGradient>
<linearGradient id="paint55_linear_153_1114" x1="30.8642" y1="12.9716" x2="65.6566" y2="12.9716" gradientUnits="userSpaceOnUse">
<stop stop-color="#65A8EB"/>
<stop offset="1" stop-color="#9BC6FF"/>
</linearGradient>
<linearGradient id="paint56_linear_153_1114" x1="30.8564" y1="11.9471" x2="65.6588" y2="11.9471" gradientUnits="userSpaceOnUse">
<stop stop-color="#5940E7"/>
<stop offset="1" stop-color="#1BAFF8"/>
</linearGradient>
<linearGradient id="paint57_linear_153_1114" x1="30.8642" y1="11.9413" x2="65.6566" y2="11.9413" gradientUnits="userSpaceOnUse">
<stop stop-color="#65A8EB"/>
<stop offset="1" stop-color="#9BC6FF"/>
</linearGradient>
<linearGradient id="paint58_linear_153_1114" x1="85.9774" y1="72.6644" x2="102.475" y2="80.4101" gradientUnits="userSpaceOnUse">
<stop stop-color="#65A8EA"/>
<stop offset="1" stop-color="#9AC2F9"/>
</linearGradient>
<linearGradient id="paint59_linear_153_1114" x1="123.025" y1="60.3689" x2="83.5673" y2="53.1604" gradientUnits="userSpaceOnUse">
<stop stop-color="#65A8EB"/>
<stop offset="1" stop-color="#9AC2F9"/>
</linearGradient>
<linearGradient id="paint60_linear_153_1114" x1="65.7638" y1="53.609" x2="120.699" y2="53.609" gradientUnits="userSpaceOnUse">
<stop stop-color="#64A7EA"/>
<stop offset="1" stop-color="#96C0F8"/>
</linearGradient>
<linearGradient id="paint61_linear_153_1114" x1="103.777" y1="41.9488" x2="79.4146" y2="68.6493" gradientUnits="userSpaceOnUse">
<stop stop-color="#64A7EA"/>
<stop offset="1" stop-color="#A0C5FA"/>
</linearGradient>
<clipPath id="clip0_153_1114">
<rect width="135.949" height="110" fill="white" transform="translate(0 0.5)"/>
</clipPath>
</defs>
</svg>
